<?xml version="1.0" encoding="utf-8"?>
<!-- Generator: Adobe Illustrator 23.0.1, SVG Export Plug-In . SVG Version: 6.00 Build 0)  -->
<svg version="1.1" id="Layer_1" xmlns="http://www.w3.org/2000/svg" xmlns:xlink="http://www.w3.org/1999/xlink" x="0px" y="0px"
	 viewBox="0 0 1000 1000" style="enable-background:new 0 0 1000 1000;" xml:space="preserve">
<style type="text/css">
	.st0{fill-rule:evenodd;clip-rule:evenodd;fill:#EAEAEA;}
	.st1{display:none;fill-rule:evenodd;clip-rule:evenodd;fill:#478FB3;stroke:#478FB3;stroke-width:4;stroke-miterlimit:10;}
	.st2{display:none;fill-rule:evenodd;clip-rule:evenodd;fill:#0076B2;stroke:#0076B2;stroke-width:4;stroke-miterlimit:10;}
	.st3{display:none;}
	.st4{display:inline;}
	.st5{fill:#0076B2;}
	.st6{fill:#478FB3;}
	.st7{display:inline;fill-rule:evenodd;clip-rule:evenodd;fill:#9BC53D;stroke:#9BC53D;stroke-width:4;stroke-miterlimit:10;}
</style>
<g>
	<path class="st0" d="M386.9,975c67.5-0.9,135-1.7,202.5-2.6c-31.6-59.1-46.6-129.6-51.2-195.9c-3.5-46.5-15.2-94.6-9.5-141.3
		c4.8-32.5,13.6-64.9,30.2-93.5c28-24.2,64.7-35,101.1-36.2c24.6,0.5,47.3,3.3,70,12.9c16.1,6.9,30.4,12.6,48.3,12.6
		c26.8-0.9,51.5-5,76.1-15.9c17.1-7.6,33.1-16.8,51.9-19.5c20.6-2.5,43-5.9,63.7-1.8c-9.4-15.9-42.8-14.6-58.5-14.9
		c-24.2,1.5-47.9,7.3-68.6,20.4c5.4-15,12.1-29.5,19.3-43.7c4.6-8.8,13.3-20.3,13.2-30.2c-3,2.3-5.7,5.1-7.8,8.3
		c-13.1,16.8-21.1,36.8-33.7,54c-6.5,12-15.2,24.1-30.5,24.3c-44.6,0.8-76.5-34.4-119.7-37.1c-44.6-1.9-91.9,3-132.5,23
		c12.3-22.9,30.5-42.1,49.4-59.7c27.8-22.7,62.7-28,90.8-48.7c24.2-19,46-41,63.2-66.6c0,0,9.1-8.7,16.9-8.9
		c11.6,0.5,21.8,7,33.1,9.3c14.4,2.5,29.2,3.1,43.8,2.8c20.4-1.6,41.1-2.6,61.5-1.1c11.3,0.8,22.9,2.1,33.9,4.9
		c1.8-1.3-5.1-5.8-3.3-7.1c-13.2-2.4-26.1-5-39.4-6.9c-29.7-4.1-60-1.1-89.6-5.5c-12.1-2.4-24.1-5-35.7-9.3
		c14.8-12,32.2-19.6,50.1-25.7c33.5-9.4,69.3-5.4,103.4-11.4c5.8-1.5,30.1-5.1,23-15.9c-1.3-1.3-3.8-2.2-5-3.5
		c2.5,9.6-21.3,10.6-26.8,11.5c-26.8,3.4-54.1-5.1-80.6,1.1c-23.8,6.6-49.5,14.5-68.8,30.8c2.8-27.7,11.5-54.5,24.2-79.2
		c14.4-26.1,36.3-48.9,59.3-67.7c0,0,2.1-3.9-5.4,0c-14.8,8-29.5,19.3-39.9,32.6c-19.2,24.2-33.5,53.3-44.8,81.9
		c1.9-17.8,1.4-35.6-0.4-53.4c-2.6-14.5-9.9-27.2-12.6-41.8c-0.5-17.6,0.3-35,4.1-52.2c-1.6,0-2.5,0-4.1,0
		c-3,13.9-5.2,28.1-8.9,41.8c-13.3-9.6-23.8-22.5-37.6-31.5c-10.6-6.7-12.1-2.6-12.1-2.7c21.6,13.1,39.3,34.3,48.7,57.6
		c6.7,19.8,9.1,39,9.4,59.9c-0.7,16.3-2,32.3-6.7,48c-4.1,12.3-2.5,21-12,31.2c-15.4,17.8-29.7,38.4-48.7,52.5
		c-12.1,7.6-25,13.6-38.2,19.2c-11.9,3.7-24.7,2.4-35.9,8.4c-15.3,9.4-30.5,19.1-44.4,30.5c-11.6,10.1-22.8,20.5-33.1,31.9
		c0.7-18.9-0.7-37.8-2.4-56.7c-1.8-16.4-7-32.3-9.2-48.7c-3.3-23.9-7.7-47.7-11-71.6c-1.5-19.6-0.4-38.7,2.6-58.1
		c4.4-12.3,23.1-20,33.5-26.1c16.2-9.5,34.1-18.5,46.4-33c15.9-20.2,16.7-46.4,27.1-69c12.6-25.8,2.7-8,2.7-8c-1.4-0.4,1.4,0.4,0,0
		c0,0,13.1-21.3-5.9,8c-12.5,20.4-20.4,44.1-35.9,62.5c-15.8,17.4-39.3,29.1-62,34.6c2.8-22.4,2-44.9-0.8-67.3
		c-2.2-15.4-9.5-29.4-14-44.1c-4.1-15-7.9-30.1-11-45.3c-1.6-0.4-3.4-0.8-5.2-1.2c0.8,17.9,4.5,35.6,8.2,53.1
		c5.1,22.4,12.8,45.4,12.4,68.6c-0.4,20.8-9.3,41.6-20.5,58.9c-21.5-7.8-44.1-26-51.6-48.1c-7.4-23.9-1-58,0.5-82.5
		c1.1-17.1,2.5-34.2,4.6-51.2c-3.3,0.3-4.9,0.5-8.1,0.8c-1.6,12.5-3.7,24.9-5.6,37.4c-3,17.9-6.2,35.9-6,54.2
		c0.7,19.7-0.4,38.5,8.9,56.5c-17.1-6-33.8-16.4-43.6-32c-9.2-18.7-16.3-38.2-24.8-57.2c-3.9-8.5-8.7-16.6-14-24.3
		c-1.5,0.1-3.1,0.1-4.5,0.1c4.2,8.5,8.2,17.2,11.9,26c9.3,22.6,15.3,47.3,28.3,68c11.9,15.7,31.1,26.5,48.4,35.4
		c12.2,6,26.1,11.1,33.1,23.7c10,18.2,19.3,40.9,19.6,62.1c0,9.6,0.7,22,1.1,24.2c4.3,24.1,6,48.7,11.8,72.5
		c5.5,26.8,3.9,54.1-5.9,79.8c-22.2-14.4-40.5-34.1-56.8-54.7c-24.2-33.8-40.9-71.5-67.9-103.4c-6.5-7.2-14-13.8-21.6-19.9
		c-19.9-15.8-43.1-29.8-61.2-47.7c-27.3-33.3-39.1-68.4-42.5-110.9c-1.3-8.8-2.5-23.5-8.6-29.4c-0.3,3.4,4.5,5.4,5.7,2.5
		c0.5-1.2,1-2.3,1.5-3.5c-3.9,11.4-8.2,23.3-8.8,35.5c-0.7,18.1,0,34.1,4.6,51.6c7.5,22.5,21.2,43.4,38.1,60
		c-30.2-3.3-60.1-9.4-88.9-18.9c-23.7-8.4-46.4-21.3-66.8-36c-1,0.9-1.9,1.7-2.9,2.6c18.5,15.3,38.4,28.5,59.6,39.8
		c18.9,8.7,38.3,15.5,58.7,19.7c-21.4-1-42.7,1.1-63.7,4.8c-16.6,4.2-32.8,9.6-47.7,18.1c0.5,1.3,1.1,2.6,1.6,3.9
		c20.9-9.1,42.9-14.1,65.5-16.8c40.9-3.2,92.3,7,127.1,29.5c45.9,30.6,59.8,86.5,87.2,131.1c15.6,24.1,33.7,46.7,56.1,64.9
		c-24.5-5-47.5-15.6-69.2-27.7C361,434.7,339.7,407.1,307,395c-29-9.7-57.5-11.8-87.9-11.9c-16.7,0.8-32.5,2.4-49.2,0
		c-24.5-7.1-45.4-18.6-68.2-29.5c-15.5-7.4-29.2-18.1-44.6-25.6c-13.7-6.1-25.8-6.3-25.8-6.3c-1.1,1.3-2.2,2.6-3.3,3.9
		c9.6,2.9,18.5,7.1,27.5,11.5c16.3,9.3,31.3,20.7,47.9,29.4c15.2,7.6,30.6,14.9,46.7,20.5c-10.2,4.7-19.8,10.7-29.2,16.8
		c-15,10.5-28.6,22.6-44.1,32.3C62,444.7,47,452.7,31.3,459.5c0,1,0,1.6,0,2.6c18.2-3.5,35.6-12.7,52-20.9
		c25.2-13.2,51.5-45,82.3-42.7c46,4.8,91.8,0.1,136.1,15.8c25.5,10.6,36.7,35.8,58.7,50.6c25,16.5,51.4,30.8,79.3,41.9
		c-28.4,6-57.5,6.6-86.2,3.2c-14.5-2.2-26.2-9.6-39.3-15.5c-20.7-9.3-42.5-11.4-65-12.1c-36.8,0.6-71.3,9.6-107,17.6
		c-12.7,2.6-25.4,5.1-38.2,6.9c0,2.6,0,5.2,0,7.7c11-1.6,21.9-3.4,32.8-5.2c34.4-6,68.7-9.8,103.6-6.4c34.3,6.1,63.7,22.9,96.3,33.9
		c24,7.8,48.3,14.7,73.3,18.6c16.5,16.8,26.8,39.1,32.4,60.8c5.8,22.6-2.2,48.2,1,72c4.2,25.4,9.6,50,9.6,75.9
		c-4.4,72-27.4,147.2-64.8,209.2"/>
</g>
<ellipse class="st1" cx="37.5" cy="326.7" rx="12.5" ry="12.5"/>
<ellipse class="st1" cx="40.7" cy="454.9" rx="12.5" ry="12.5"/>
<ellipse class="st2" cx="108.9" cy="507.7" rx="12.5" ry="12.5"/>
<ellipse class="st1" cx="126.2" cy="269" rx="12.5" ry="12.5"/>
<ellipse class="st1" cx="121.4" cy="187.8" rx="12.5" ry="12.5"/>
<ellipse class="st1" cx="238.6" cy="102" rx="12.5" ry="12.5"/>
<ellipse class="st1" cx="355.9" cy="37.5" rx="12.5" ry="12.5"/>
<ellipse class="st1" cx="448.3" cy="38" rx="12.5" ry="12.5"/>
<ellipse class="st1" cx="492.3" cy="42.4" rx="12.5" ry="12.5"/>
<ellipse class="st1" cx="625" cy="80.6" rx="12.5" ry="12.5"/>
<ellipse class="st1" cx="694.2" cy="114.5" rx="12.5" ry="12.5"/>
<ellipse class="st1" cx="753" cy="114.5" rx="12.5" ry="12.5"/>
<ellipse class="st1" cx="850.9" cy="142.8" rx="12.5" ry="12.5"/>
<ellipse class="st1" cx="946.3" cy="250.4" rx="12.5" ry="12.5"/>
<ellipse class="st1" cx="933.9" cy="326.7" rx="12.5" ry="12.5"/>
<ellipse class="st2" cx="873.6" cy="430" rx="12.5" ry="12.5"/>
<ellipse class="st2" cx="958.8" cy="488" rx="12.5" ry="12.5"/>
<ellipse class="st2" cx="768" cy="299.4" rx="27.4" ry="27.4"/>
<ellipse transform="matrix(0.1602 -0.9871 0.9871 0.1602 199.2912 663.0388)" class="st2" cx="489.3" cy="214.4" rx="26.6" ry="26.6"/>
<ellipse class="st2" cx="260.7" cy="244.1" rx="22.1" ry="22.2"/>
<ellipse class="st2" cx="151.2" cy="386.1" rx="22.1" ry="22.2"/>
<g class="st3">
	<g class="st4">
		<path class="st5" d="M721,386.4c-2.2-1.1-3.9-2.6-5.1-4.6l7-5.1c0.7,1,1.6,1.7,2.7,2.2c1,0.5,2.1,0.8,3.3,0.8
			c1.6,0,2.9-0.6,3.8-1.7c0.9-1.2,1.3-2.8,1.3-4.9v-30.8h8.8v30.9c0,3.1-0.6,5.8-1.7,8c-1.1,2.2-2.8,3.9-4.9,5.1
			c-2.2,1.2-4.8,1.7-7.8,1.7C725.7,388,723.2,387.5,721,386.4z"/>
		<path class="st5" d="M763.8,388c0,0-1-0.2-3.1-0.7c-2.1-0.4-4-1.1-5.8-1.9s-3.4-1.9-4.9-3l4-7c1.7,1.4,3.8,2.5,6,3.3
			c2.3,0.8,4.6,1.2,7,1.2c2.8,0,4.9-0.5,6.5-1.4c1.5-0.9,2.3-2.3,2.3-4l0,0c0-1.2-0.3-2.2-1-2.9c-0.7-0.7-1.6-1.2-2.7-1.6
			c-1.1-0.3-2.5-0.6-4.2-0.9c-0.1,0-0.1,0-0.2,0s-0.1,0-0.2,0l-0.7-0.1c-3-0.5-5.5-1.1-7.5-1.8c-2-0.7-3.7-2-5.1-3.8
			c-1.4-1.8-2.1-4.3-2.1-7.6l0,0c0-2.9,0.7-5.4,2-7.5s3.2-3.7,5.7-4.7c2.5-1.1,5.5-1.6,9-1.6c1.6,0,3.3,0.2,5,0.6s3.3,0.9,5,1.6
			c1.6,0.7,3.2,1.6,4.6,2.6l-3.6,7.2c-1.7-1.2-3.6-2.1-5.5-2.8c-1.9-0.7-3.7-1-5.5-1c-2.6,0-4.6,0.4-6.1,1.3
			c-1.4,0.9-2.1,2.1-2.1,3.6l0,0c0,1.3,0.4,2.3,1.1,3.1s1.7,1.3,2.8,1.7c1.1,0.4,2.6,0.7,4.6,1.1c0.1,0,0.2,0,0.2,0
			c0.1,0,0.2,0,0.2,0c0.1,0,0.2,0,0.4,0.1s0.2,0.1,0.4,0.1c2.9,0.6,5.3,1.2,7.2,2s3.5,2.1,4.8,3.9s1.9,4.2,1.9,7.3v0.1
			c0,2.9-0.7,5.4-2,7.4s-3.3,3.6-5.9,4.7c-2.6,1.1-5.7,1.6-9.3,1.6C764.9,388,763.8,388,763.8,388z"/>
	</g>
</g>
<g class="st3">
	<g class="st4">
		<path class="st5" d="M527.2,208.4h6.7v35.4h-6.7V208.4z M530.2,223.6h11.3c0.8,0,1.5-0.2,2.1-0.5c0.6-0.4,1.1-0.9,1.4-1.5
			c0.3-0.7,0.5-1.4,0.5-2.3s-0.2-1.6-0.5-2.3s-0.8-1.2-1.4-1.6c-0.6-0.4-1.3-0.5-2.1-0.5h-11.3v-6.4h11.1c2.2,0,4.1,0.4,5.8,1.4
			c1.7,0.9,3,2.2,3.9,3.8s1.4,3.5,1.4,5.7s-0.5,4-1.4,5.7c-0.9,1.6-2.2,2.9-3.9,3.8c-1.7,0.9-3.6,1.3-5.8,1.3h-11.1V223.6z"/>
		<path class="st5" d="M555.1,218.5h6.3l8.5,21.9l-4.2,5.4L555.1,218.5z M578.4,218.5l-11.2,31.2c-0.4,1.2-0.9,2.1-1.6,2.7
			s-1.4,1.2-2.3,1.4c-0.9,0.3-2,0.4-3.4,0.4h-1.5v-6.5h1.5c0.7,0,1.3-0.2,1.8-0.5s0.8-0.8,1.1-1.5l9.4-27.3L578.4,218.5L578.4,218.5
			z"/>
		<path class="st5" d="M579.8,218.5h12.4v5.7h-12.4V218.5z M584,242.2c-1-1.1-1.5-2.8-1.5-5v-26h6.7v24.4c0,0.6,0.1,1.1,0.4,1.4
			c0.2,0.3,0.6,0.5,1.1,0.5h1.7v6.4H589C586.6,243.9,585,243.3,584,242.2z"/>
		<path class="st5" d="M598,208.4h6.7v35.4H598V208.4z M612.6,228.5c0-1.2-0.4-2.2-1.1-2.9s-1.7-1-3-1c-1.2,0-2.2,0.3-2.9,1
			s-1,1.7-1,2.9l-0.5-5.6c0.8-1.6,1.7-2.8,2.7-3.6c1.1-0.8,2.4-1.2,4-1.2c2.7,0,4.7,0.9,6.2,2.7s2.2,4.3,2.2,7.6v15.3h-6.7
			L612.6,228.5L612.6,228.5z"/>
		<path class="st5" d="M630.1,242.9c-1.6-0.9-2.9-2.1-3.7-3.8c-0.9-1.6-1.3-3.6-1.3-5.9V229c0-2.3,0.4-4.2,1.3-5.9
			c0.9-1.6,2.1-2.9,3.7-3.7c1.6-0.9,3.6-1.3,5.9-1.3s4.3,0.4,5.9,1.3c1.6,0.9,2.9,2.1,3.7,3.7c0.9,1.6,1.3,3.6,1.3,5.9v4.2
			c0,2.3-0.4,4.3-1.3,5.9s-2.1,2.9-3.7,3.7c-1.6,0.9-3.6,1.3-5.9,1.3S631.8,243.7,630.1,242.9z M639.2,236.5
			c0.7-0.8,1.1-1.9,1.1-3.3V229c0-1.4-0.4-2.5-1.1-3.3c-0.7-0.8-1.8-1.2-3.1-1.2s-2.4,0.4-3.1,1.2c-0.7,0.8-1.1,1.9-1.1,3.3v4.2
			c0,1.4,0.4,2.5,1.1,3.3s1.8,1.2,3.1,1.2S638.4,237.3,639.2,236.5z"/>
		<path class="st5" d="M653,218.5h6.7v25.2H653V218.5z M667.6,228.5c0-1.2-0.4-2.2-1.1-2.9s-1.7-1-3-1c-1.2,0-2.2,0.3-2.9,1
			s-1,1.7-1,2.9l-0.5-5.6c0.8-1.6,1.7-2.8,2.7-3.6c1.1-0.8,2.4-1.2,4-1.2c2.7,0,4.7,0.9,6.2,2.7s2.2,4.3,2.2,7.6v15.3h-6.7
			L667.6,228.5L667.6,228.5z"/>
	</g>
</g>
<g class="st3">
	<g class="st4">
		<g>
			<path class="st5" d="M299.8,237c-2.2-1.1-3.9-2.6-5.1-4.6l7-5.1c0.7,1,1.6,1.7,2.7,2.2c1,0.5,2.1,0.8,3.3,0.8
				c1.6,0,2.9-0.6,3.8-1.7c0.9-1.2,1.3-2.8,1.3-4.9v-30.8h8.8v30.9c0,3.1-0.6,5.8-1.7,8s-2.8,3.9-4.9,5.1c-2.2,1.2-4.8,1.7-7.8,1.7
				C304.4,238.6,302,238.1,299.8,237z"/>
			<path class="st5" d="M332,236.2c-1.7-1.6-2.6-4.2-2.6-7.5c0-3.2,1-5.6,2.9-7.2s4.8-2.4,8.6-2.4h8.1l0.4,6.5H341
				c-1.3,0-2.3,0.3-2.9,0.8s-1,1.3-1,2.3c0,1.1,0.4,1.8,1.2,2.3c0.8,0.5,2,0.8,3.7,0.8c2.3,0,4-0.3,5.1-0.8s1.7-1.3,1.7-2.4l0.7,4.7
				c-0.1,1.2-0.7,2.1-1.6,3s-2.1,1.4-3.5,1.8s-2.9,0.6-4.5,0.6C336.3,238.6,333.7,237.8,332,236.2z M348.8,217.7
				c0-1.5-0.5-2.6-1.5-3.5c-1-0.8-2.4-1.2-4.2-1.2c-1.2,0-2.4,0.2-3.6,0.6s-2.2,0.9-3.1,1.6l-5.3-5.2c1.3-1.5,3-2.6,5.1-3.4
				s4.5-1.2,7-1.2c2.8,0,5.2,0.5,7.2,1.4s3.5,2.3,4.6,4.1c1,1.8,1.6,4,1.6,6.5v20.8h-7.7v-20.5L348.8,217.7L348.8,217.7z"/>
			<path class="st5" d="M383.3,205.9h8.5l-12.1,32.3h-6l-12.1-32.3h8.5l6.7,20.3L383.3,205.9z"/>
			<path class="st5" d="M397.8,236.2c-1.7-1.6-2.6-4.2-2.6-7.5c0-3.2,1-5.6,2.9-7.2s4.8-2.4,8.6-2.4h8.1l0.4,6.5h-8.5
				c-1.3,0-2.3,0.3-2.9,0.8s-1,1.3-1,2.3c0,1.1,0.4,1.8,1.2,2.3c0.8,0.5,2,0.8,3.7,0.8c2.3,0,4-0.3,5.1-0.8s1.7-1.3,1.7-2.4l0.7,4.7
				c-0.1,1.2-0.7,2.1-1.6,3s-2.1,1.4-3.5,1.8s-2.9,0.6-4.5,0.6C402.1,238.6,399.5,237.8,397.8,236.2z M414.5,217.7
				c0-1.5-0.5-2.6-1.5-3.5c-1-0.8-2.4-1.2-4.2-1.2c-1.2,0-2.4,0.2-3.6,0.6s-2.2,0.9-3.1,1.6l-5.3-5.2c1.3-1.5,3-2.6,5.1-3.4
				s4.5-1.2,7-1.2c2.8,0,5.2,0.5,7.2,1.4s3.5,2.3,4.6,4.1c1,1.8,1.6,4,1.6,6.5v20.8h-7.7v-20.5L414.5,217.7L414.5,217.7z"/>
		</g>
	</g>
</g>
<g class="st3">
	<g class="st4">
		<path class="st5" d="M158.2,452.4c0,0-0.8-0.2-2.3-0.5s-3-0.8-4.3-1.4s-2.5-1.4-3.6-2.2l2.9-5.2c1.3,1.1,2.8,1.9,4.5,2.4
			c1.7,0.6,3.4,0.9,5.2,0.9c2,0,3.6-0.3,4.8-1c1.1-0.7,1.7-1.7,1.7-2.9l0,0c0-0.9-0.3-1.6-0.8-2.1s-1.2-0.9-2-1.1s-1.9-0.5-3.1-0.7
			h-0.1H161l-0.5-0.1c-2.2-0.4-4.1-0.8-5.6-1.3s-2.7-1.5-3.7-2.8s-1.5-3.2-1.5-5.6l0,0c0-2.2,0.5-4,1.4-5.5c1-1.5,2.4-2.7,4.2-3.5
			s4.1-1.2,6.7-1.2c1.2,0,2.4,0.1,3.7,0.4c1.2,0.3,2.5,0.7,3.7,1.2s2.3,1.1,3.4,1.9l-2.7,5.3c-1.3-0.9-2.6-1.6-4-2.1s-2.7-0.7-4-0.7
			c-1.9,0-3.4,0.3-4.5,1c-1.1,0.6-1.6,1.5-1.6,2.7l0,0c0,1,0.3,1.7,0.8,2.3c0.6,0.6,1.2,1,2,1.2c0.8,0.3,1.9,0.5,3.4,0.8
			c0.1,0,0.1,0,0.2,0c0.1,0,0.1,0,0.2,0c0.1,0,0.2,0,0.3,0.1s0.2,0,0.3,0.1c2.1,0.4,3.9,0.9,5.3,1.5c1.4,0.6,2.6,1.5,3.5,2.8
			s1.4,3.1,1.4,5.4l0,0c0,2.1-0.5,3.9-1.5,5.5s-2.4,2.7-4.3,3.5s-4.2,1.2-6.9,1.2C159,452.4,158.2,452.4,158.2,452.4z"/>
		<path class="st5" d="M184.1,450.8c-1.8-1-3.3-2.5-4.3-4.3c-1-1.9-1.5-4-1.5-6.5v-9.5c0-2.4,0.5-4.6,1.5-6.5s2.4-3.3,4.3-4.3
			c1.8-1,4-1.5,6.4-1.5s4.5,0.5,6.4,1.5c1.8,1,3.3,2.5,4.3,4.3s1.5,4,1.5,6.5v9.5c0,2.4-0.5,4.6-1.5,6.5s-2.4,3.3-4.3,4.3
			c-1.8,1-4,1.5-6.4,1.5C188.1,452.4,185.9,451.9,184.1,450.8z M193.5,445.4c0.9-0.5,1.5-1.2,2-2.1s0.7-1.9,0.7-3.1v-9.8
			c0-1.2-0.2-2.2-0.7-3.1s-1.1-1.6-2-2.1s-1.9-0.7-3-0.7s-2.1,0.2-3,0.7s-1.5,1.2-2,2.1s-0.7,1.9-0.7,3.1v9.8c0,1.2,0.2,2.2,0.7,3.1
			s1.1,1.6,2,2.1s1.9,0.7,3,0.7S192.6,445.8,193.5,445.4z M189.5,442.8l3.3-4.2l12.9,9.8l-3.3,4.3L189.5,442.8z"/>
		<path class="st5" d="M209.9,418.7h6.3v33.4h-6.3V418.7z M212.7,446h19.5v6.1h-19.5V446z"/>
	</g>
</g>
<g class="st3">
	<g class="st4">
		<path class="st5" d="M120.1,574.5c0,0-0.9-0.5-2.7-1.5s-3.2-2.4-4.1-4.2c-0.9-1.9-1.4-4.1-1.4-6.7v-9.2c0-2.6,0.5-4.9,1.4-6.7
			c0.9-1.9,2.3-3.3,4.1-4.3s4-1.5,6.5-1.5c2.1,0,4,0.5,5.6,1.4c1.7,0.9,3,2.2,4.1,3.9s1.8,3.8,2.2,6.2h-6.5c-0.2-1.1-0.6-2-1.1-2.8
			s-1.1-1.4-1.9-1.8c-0.7-0.4-1.5-0.6-2.4-0.6c-1.2,0-2.2,0.2-3,0.7s-1.5,1.2-1.9,2.1c-0.4,0.9-0.7,2-0.7,3.3v9.2
			c0,1.3,0.2,2.4,0.7,3.3c0.4,0.9,1.1,1.6,1.9,2.1s1.8,0.7,3,0.7c0.9,0,1.7-0.2,2.5-0.6c0.7-0.4,1.4-1,1.9-1.8
			c0.5-0.8,0.9-1.7,1.1-2.8h6.5c-0.4,2.4-1.2,4.5-2.3,6.2s-2.4,3-4.1,3.9c-1.6,0.9-3.5,1.4-5.6,1.4
			C121.4,574.5,120.1,574.5,120.1,574.5z"/>
		<path class="st5" d="M160.2,555.9v5.8h-19.5v-5.8H160.2z M153.5,568.1h-6.1v-18.6h6.1V568.1z"/>
		<path class="st5" d="M185.1,555.9v5.8h-19.5v-5.8H185.1z M178.3,568.1h-6.1v-18.6h6.1V568.1z"/>
	</g>
</g>
<g class="st3">
	<g class="st4">
		<path class="st5" d="M839.6,408.3c-0.1,0-0.3,0-0.4-0.1c-0.3-0.1-1-0.5-1.9-1c-1.4-0.8-2.5-1.8-3.2-3.4c-0.8-1.5-1.1-3.2-1.1-5.2
			v-7.2c0-2,0.3-3.8,1.1-5.2c0.8-1.4,1.8-2.6,3.2-3.4s3.1-1.2,5.1-1.2c1.7,0,3.1,0.3,4.5,1.1c1.4,0.8,2.3,1.7,3.2,3.1
			c0.7,1,1.1,2.1,1.4,3.5c0.2,0.7-0.4,1.4-1.2,1.4h-2.7c-0.5,0-1-0.3-1.1-0.8c-0.2-0.5-0.4-0.9-0.7-1.3c-0.5-0.6-0.9-1.1-1.4-1.4
			s-1.2-0.5-1.8-0.5c-0.9,0-1.7,0.2-2.3,0.6c-0.6,0.5-1.1,0.9-1.5,1.7c-0.5,0.8-0.5,1.5-0.5,2.6v7.2c0,1.1,0.2,1.8,0.5,2.6
			s0.8,1.2,1.5,1.7s1.4,0.6,2.3,0.6l0,0c1.6,0,3-1.1,3.7-2.5c0.1-0.3,0.2-0.5,0.3-0.8c0.2-0.5,0.6-0.8,1.1-0.8h2.8
			c0.8,0,1.3,0.7,1.1,1.5c-0.3,1.3-0.8,2.4-1.5,3.4c-0.9,1.4-1.8,2.3-3.2,3.1c-1.4,0.8-2.8,1.1-4.5,1.1
			C840.8,408.3,840,408.3,839.6,408.3z"/>
		<path class="st5" d="M862.6,408.2c0,0-0.6-0.2-1.8-0.3c-1.2-0.2-2.3-0.6-3.4-1.1c-0.7-0.3-1.3-0.7-1.9-1c-0.5-0.3-0.7-1-0.4-1.6
			l1.1-2c0.3-0.6,1.1-0.8,1.7-0.4c0.8,0.5,1.6,0.9,2.5,1.1c1.4,0.3,2.6,0.6,4,0.6c1.5,0,2.9-0.3,3.7-0.8s1.4-1.4,1.4-2.3l0,0
			c0-0.8-0.2-1.2-0.6-1.7c-0.5-0.5-0.9-0.8-1.5-0.9s-1.4-0.3-2.5-0.5c0,0,0,0-0.2,0s0,0-0.2,0H864c-1.7-0.3-3.2-0.6-4.3-1.1
			s-2.1-1.1-2.9-2.1c-0.8-1.1-1.2-2.5-1.2-4.5l0,0c0-1.7,0.3-3.1,1.1-4.3c0.8-1.2,1.8-2.1,3.2-2.8c1.4-0.6,3.2-0.9,5.2-0.9
			c0.9,0,1.8,0.2,2.9,0.3c1.1,0.2,2,0.5,2.9,0.9c0.6,0.3,1.2,0.6,1.7,0.9s0.7,1,0.4,1.6l-1.1,2.1c-0.3,0.6-1.1,0.8-1.6,0.5
			c-0.7-0.4-1.4-0.7-2.2-1c-1.2-0.5-2.1-0.6-3.2-0.6c-1.5,0-2.6,0.3-3.5,0.8s-1.2,1.2-1.2,2.1l0,0c0,0.8,0.2,1.4,0.6,1.8
			s0.9,0.8,1.5,0.9s1.5,0.5,2.6,0.6h0.2h0.2h0.2h0.2c1.7,0.3,3.1,0.8,4.1,1.2s2,1.2,2.8,2.3c0.8,1.1,1.1,2.5,1.1,4.1l0,0
			c0,1.7-0.5,3.1-1.2,4.3c-0.8,1.2-1.8,2.1-3.4,2.8c-1.5,0.6-3.2,0.9-5.4,0.9C863.2,408.2,862.6,408.2,862.6,408.2z"/>
		<path class="st5" d="M885.1,408.2c0,0-0.6-0.2-1.8-0.3c-1.2-0.2-2.3-0.6-3.4-1.1c-0.7-0.3-1.3-0.7-1.9-1c-0.5-0.3-0.7-1-0.4-1.6
			l1.1-2c0.3-0.6,1.1-0.8,1.7-0.4c0.8,0.5,1.6,0.9,2.5,1.1c1.4,0.3,2.6,0.6,4,0.6c1.5,0,2.9-0.3,3.7-0.8s1.4-1.4,1.4-2.3l0,0
			c0-0.8-0.2-1.2-0.6-1.7c-0.5-0.5-0.9-0.8-1.5-0.9s-1.4-0.3-2.5-0.5c0,0,0,0-0.2,0s0,0-0.2,0h-0.5c-1.7-0.3-3.2-0.6-4.3-1.1
			s-2.1-1.1-2.9-2.1c-0.8-1.1-1.2-2.5-1.2-4.5l0,0c0-1.7,0.3-3.1,1.1-4.3c0.8-1.2,1.8-2.1,3.2-2.8c1.4-0.6,3.2-0.9,5.2-0.9
			c0.9,0,1.8,0.2,2.9,0.3c1.1,0.2,2,0.5,2.9,0.9c0.6,0.3,1.2,0.6,1.7,0.9s0.7,1,0.4,1.6l-1.1,2.1c-0.3,0.6-1.1,0.8-1.6,0.5
			c-0.7-0.4-1.4-0.7-2.2-1c-1.2-0.5-2.1-0.6-3.2-0.6c-1.5,0-2.6,0.3-3.5,0.8s-1.2,1.2-1.2,2.1l0,0c0,0.8,0.2,1.4,0.6,1.8
			s0.9,0.8,1.5,0.9s1.5,0.5,2.6,0.6h0.2h0.2h0.2h0.2c1.7,0.3,3.1,0.8,4.1,1.2s2,1.2,2.8,2.3c0.8,1.1,1.1,2.5,1.1,4.1l0,0
			c0,1.7-0.5,3.1-1.2,4.3c-0.8,1.2-1.8,2.1-3.4,2.8c-1.5,0.6-3.1,0.9-5.2,0.9c-0.1,0-0.2,0-0.3-0.1
			C885.7,408.2,885.1,408.2,885.1,408.2z"/>
	</g>
</g>
<g class="st3">
	<g class="st4">
		<path class="st5" d="M899.6,442h5.2v27.4h-5.2V442z M902,453.5h16v5h-16V453.5z M914.6,442h5.2v27.4h-5.2V442z"/>
		<path class="st5" d="M922,442h20.1v5H922V442z M929.6,444.3h5.2v25.1h-5.2V444.3z"/>
		<path class="st5" d="M961.6,442h6.8v27.4h-4.7v-21.3l0.2,1.3l-5.3,17.1h-4.5l-5.3-16.6l0.2-1.6v21.3h-4.7v-27.4h6.8l5.2,18.5
			L961.6,442z"/>
		<path class="st5" d="M974.5,442h5.2v27.4h-5.2V442z M976.9,464.6H993v5h-16.1V464.6z"/>
	</g>
</g>
<g class="st3">
	<g class="st4">
		<path class="st6" d="M42.3,271.8h4.2v17h-2.9v-13.2l0.1,0.8L40.4,287h-2.8l-3.3-10.3l0.1-1v13.2h-2.9v-17h4.2l3.2,11.5L42.3,271.8
			z"/>
		<path class="st6" d="M50.5,288c-0.6-0.6-1-1.6-1-2.8c0-1.2,0.4-2.1,1.1-2.7s1.8-0.9,3.3-0.9h3l0.2,2.4h-3.2
			c-0.5,0-0.8,0.1-1.1,0.3s-0.4,0.5-0.4,0.9s0.2,0.7,0.5,0.9s0.8,0.3,1.4,0.3c0.9,0,1.5-0.1,1.9-0.3s0.6-0.5,0.6-0.9L57,287
			c0,0.4-0.2,0.8-0.6,1.1s-0.8,0.5-1.3,0.7S54,289,53.4,289C52.1,289,51.1,288.7,50.5,288z M56.8,281.1c0-0.6-0.2-1-0.6-1.3
			s-0.9-0.5-1.6-0.5c-0.5,0-0.9,0.1-1.3,0.2s-0.8,0.4-1.2,0.6l-2-2c0.5-0.6,1.1-1,1.9-1.3s1.7-0.5,2.6-0.5c1.1,0,2,0.2,2.7,0.5
			s1.3,0.9,1.7,1.5s0.6,1.5,0.6,2.4v7.8h-2.9L56.8,281.1L56.8,281.1L56.8,281.1z"/>
		<path class="st6" d="M69.8,276.6H73l-4.6,12.2h-2.3l-4.6-12.2h3.2l2.5,7.6L69.8,276.6z"/>
		<path class="st6" d="M78.3,289c0,0-0.4-0.2-1.2-0.6s-1.5-1-1.9-1.9s-0.7-1.8-0.7-2.9v-1.4c0-1.2,0.2-2.2,0.6-3.1s1-1.5,1.8-1.9
			s1.8-0.7,2.9-0.7s2,0.3,2.7,0.8s1.3,1.3,1.7,2.3s0.6,2.2,0.6,3.7v0.8h-8.3v-2.2h5.4v-0.3c-0.1-0.7-0.3-1.2-0.7-1.6
			s-0.8-0.6-1.4-0.6c-0.8,0-1.4,0.2-1.8,0.7s-0.6,1.1-0.6,2v1.5c0,0.8,0.2,1.5,0.7,1.9s1.1,0.7,2,0.7c0.4,0,0.9-0.1,1.3-0.2
			s0.8-0.4,1.1-0.7l2.1,1.9c-0.6,0.6-1.3,1-2.1,1.3s-1.6,0.5-2.4,0.5C78.9,289,78.3,289,78.3,289z"/>
		<path class="st6" d="M87.7,276.6h3.2v12.2h-3.2V276.6z M94.8,281.4c0-0.6-0.2-1.1-0.5-1.4s-0.8-0.5-1.4-0.5s-1.1,0.2-1.4,0.5
			s-0.5,0.8-0.5,1.4l-0.2-2.7c0.4-0.8,0.8-1.3,1.3-1.7s1.2-0.6,1.9-0.6c1.3,0,2.3,0.4,3,1.3s1.1,2.1,1.1,3.7v7.4h-3.2v-7.4
			L94.8,281.4L94.8,281.4z"/>
	</g>
</g>
<g class="st3">
	<g class="st4">
		<path class="st6" d="M199.5,74.4c0,0-0.4-0.1-1.2-0.2s-1.5-0.4-2.2-0.7s-1.3-0.7-1.8-1.1l1.5-2.6c0.7,0.5,1.4,1,2.3,1.2
			s1.7,0.4,2.6,0.4c1,0,1.9-0.2,2.4-0.5s0.9-0.9,0.9-1.5l0,0c0-0.5-0.1-0.8-0.4-1.1s-0.6-0.5-1-0.6s-0.9-0.2-1.6-0.3c0,0,0,0-0.1,0
			s0,0-0.1,0h-0.3c-1.1-0.2-2.1-0.4-2.8-0.7s-1.4-0.7-1.9-1.4s-0.8-1.6-0.8-2.9l0,0c0-1.1,0.2-2,0.7-2.8s1.2-1.4,2.1-1.8
			s2.1-0.6,3.4-0.6c0.6,0,1.2,0.1,1.9,0.2s1.3,0.3,1.9,0.6s1.2,0.6,1.7,1l-1.4,2.7c-0.7-0.5-1.3-0.8-2.1-1.1s-1.4-0.4-2.1-0.4
			c-1,0-1.7,0.2-2.3,0.5s-0.8,0.8-0.8,1.4l0,0c0,0.5,0.1,0.9,0.4,1.2s0.6,0.5,1,0.6c0.4,0.1,1,0.3,1.7,0.4h0.1h0.1h0.1h0.1
			c1.1,0.2,2,0.5,2.7,0.8s1.3,0.8,1.8,1.5s0.7,1.6,0.7,2.7l0,0c0,1.1-0.3,2-0.8,2.8s-1.2,1.4-2.2,1.8s-2.1,0.6-3.5,0.6
			C199.9,74.4,199.5,74.4,199.5,74.4z"/>
		<path class="st6" d="M209.9,62.1h3.2v17.1h-3.2V62.1z M214.1,73.9c-0.5-0.4-0.9-0.9-1.1-1.5l0.2-2.8c0,0.4,0.1,0.7,0.2,1
			s0.3,0.5,0.6,0.6s0.6,0.2,1,0.2c0.6,0,1.1-0.2,1.4-0.6s0.5-1,0.5-1.7v-1.9c0-0.7-0.2-1.3-0.5-1.7s-0.8-0.6-1.4-0.6
			c-0.4,0-0.7,0.1-1,0.2s-0.5,0.4-0.6,0.7s-0.2,0.6-0.2,1.1l-0.2-2.7c0.3-0.7,0.8-1.3,1.3-1.6s1.1-0.6,1.8-0.6
			c0.9,0,1.6,0.2,2.2,0.6s1.1,1,1.4,1.8c0.3,0.8,0.5,1.8,0.5,2.9v1.9c0,1.1-0.2,2.1-0.5,2.8s-0.8,1.4-1.4,1.8s-1.3,0.6-2.2,0.6
			C215.3,74.4,214.6,74.2,214.1,73.9z"/>
		<path class="st6" d="M223,62.1h3.4v12.2H223V62.1z M229.3,65.1c-0.2-0.1-0.5-0.1-0.8-0.1c-0.6,0-1.2,0.2-1.5,0.6s-0.5,1-0.5,1.7
			l-0.2-3.2c0.3-0.7,0.8-1.3,1.3-1.7s1.1-0.6,1.8-0.6c0.5,0,1,0.1,1.4,0.2s0.8,0.4,1.1,0.7l-1.9,2.6
			C229.7,65.3,229.5,65.2,229.3,65.1z"/>
		<path class="st6" d="M233,57.2h3.2v3.2H233V57.2z M233,62.1h3.2v12.2H233V62.1z"/>
		<path class="st6" d="M239.2,62.1h3.2v12.2h-3.2V62.1z M246.3,66.9c0-0.6-0.2-1.1-0.5-1.4S245,65,244.4,65s-1.1,0.2-1.4,0.5
			s-0.5,0.8-0.5,1.4l-0.2-2.7c0.4-0.8,0.8-1.3,1.3-1.7s1.2-0.6,1.9-0.6c1.3,0,2.3,0.4,3,1.3c0.7,0.9,1.1,2.1,1.1,3.7v7.4h-3.2v-7.4
			H246.3z"/>
		<path class="st6" d="M254.2,73.8c-0.6-0.4-1.1-1-1.4-1.8s-0.5-1.7-0.5-2.8v-1.9c0-1.1,0.2-2.1,0.5-2.9c0.3-0.8,0.8-1.4,1.4-1.8
			s1.3-0.6,2.2-0.6c0.6,0,1.2,0.2,1.8,0.6s1,0.9,1.3,1.6l-0.2,2.7c0-0.4-0.1-0.8-0.2-1.1c-0.1-0.3-0.3-0.5-0.6-0.7
			c-0.3-0.2-0.6-0.2-1-0.2c-0.6,0-1.1,0.2-1.4,0.6c-0.3,0.4-0.5,1-0.5,1.7v1.9c0,0.7,0.2,1.3,0.5,1.7c0.3,0.4,0.8,0.6,1.4,0.6
			c0.4,0,0.7-0.1,1-0.2s0.5-0.4,0.6-0.6s0.2-0.6,0.2-1l0.2,2.8c-0.3,0.7-0.6,1.2-1.1,1.5s-1.1,0.5-1.8,0.5
			C255.5,74.4,254.8,74.2,254.2,73.8z M255.5,79.2c0,0-0.4-0.2-1.1-0.5s-1.4-0.8-1.8-1.4l2.2-2c0.3,0.3,0.6,0.5,1,0.7
			s0.8,0.2,1.2,0.2c0.7,0,1.2-0.2,1.6-0.6s0.6-0.9,0.6-1.5v-12h3.2v11.8c0,1.1-0.2,2.1-0.6,2.9s-1,1.4-1.9,1.8s-1.8,0.6-3,0.6
			C256,79.2,255.5,79.2,255.5,79.2z"/>
	</g>
</g>
<g class="st3">
	<g class="st4">
		<path class="st6" d="M74.7,152.5h3.2v17h-3.2V152.5z M76.2,159.5h9.9v3.1h-9.9V159.5z M84,152.5h3.2v17H84V152.5z"/>
		<path class="st6" d="M90.6,152.5h3.2v3.2h-3.2V152.5z M90.6,157.3h3.2v12.2h-3.2V157.3z"/>
		<path class="st6" d="M96.8,152.5h3.2v17h-3.2V152.5z M101,169.1c-0.5-0.4-0.9-0.9-1.1-1.5l0.2-2.8c0,0.4,0.1,0.7,0.2,1
			s0.3,0.5,0.6,0.6s0.6,0.2,1,0.2c0.6,0,1.1-0.2,1.4-0.6c0.3-0.4,0.5-1,0.5-1.7v-1.9c0-0.7-0.2-1.3-0.5-1.7s-0.8-0.6-1.4-0.6
			c-0.4,0-0.7,0.1-1,0.2c-0.3,0.1-0.5,0.4-0.6,0.7s-0.2,0.6-0.2,1.1l-0.2-2.7c0.3-0.7,0.8-1.3,1.3-1.6s1.1-0.6,1.8-0.6
			c0.9,0,1.6,0.2,2.2,0.6c0.6,0.4,1.1,1,1.4,1.8s0.5,1.8,0.5,2.9v1.9c0,1.1-0.2,2.1-0.5,2.8s-0.8,1.4-1.4,1.8
			c-0.6,0.4-1.3,0.6-2.2,0.6C102.1,169.7,101.5,169.5,101,169.1z"/>
		<path class="st6" d="M113.3,169.7c0,0-0.4-0.2-1.2-0.6c-0.8-0.4-1.5-1-1.9-1.9s-0.7-1.8-0.7-2.9v-1.4c0-1.2,0.2-2.2,0.6-3.1
			c0.4-0.9,1-1.5,1.8-1.9s1.8-0.7,2.9-0.7s2,0.3,2.7,0.8s1.3,1.3,1.7,2.3s0.6,2.2,0.6,3.7v0.8h-8.3v-2.2h5.4v-0.3
			c-0.1-0.7-0.3-1.2-0.7-1.6c-0.4-0.4-0.8-0.6-1.4-0.6c-0.8,0-1.4,0.2-1.8,0.7s-0.6,1.1-0.6,2v1.5c0,0.8,0.2,1.5,0.7,1.9
			s1.1,0.7,2,0.7c0.4,0,0.9-0.1,1.3-0.2c0.4-0.1,0.8-0.4,1.1-0.7l2.1,1.9c-0.6,0.6-1.3,1-2.1,1.3c-0.8,0.3-1.6,0.5-2.4,0.5
			C113.9,169.7,113.3,169.7,113.3,169.7z"/>
		<path class="st6" d="M122.7,157.3h3.4v12.2h-3.4V157.3z M129,160.4c-0.2-0.1-0.5-0.1-0.8-0.1c-0.6,0-1.2,0.2-1.5,0.6
			c-0.3,0.4-0.5,1-0.5,1.7l-0.2-3.2c0.3-0.7,0.8-1.3,1.3-1.7s1.1-0.6,1.8-0.6c0.5,0,1,0.1,1.4,0.2c0.4,0.1,0.8,0.4,1.1,0.7l-1.9,2.6
			C129.4,160.6,129.2,160.4,129,160.4z"/>
		<path class="st6" d="M132.9,157.3h3.2v12.2h-3.2V157.3z M140,162.1c0-0.6-0.2-1.1-0.5-1.4s-0.8-0.5-1.4-0.5s-1.1,0.2-1.4,0.5
			c-0.3,0.3-0.5,0.8-0.5,1.4l-0.2-2.7c0.4-0.8,0.8-1.3,1.3-1.7s1.2-0.6,1.9-0.6c1.3,0,2.3,0.4,3,1.3c0.7,0.9,1.1,2.1,1.1,3.7v7.4
			h-3.2L140,162.1L140,162.1z"/>
		<path class="st6" d="M146.7,168.7c-0.6-0.6-1-1.6-1-2.8s0.4-2.1,1.1-2.7c0.7-0.6,1.8-0.9,3.3-0.9h3l0.2,2.4h-3.2
			c-0.5,0-0.8,0.1-1.1,0.3s-0.4,0.5-0.4,0.9s0.2,0.7,0.5,0.9s0.8,0.3,1.4,0.3c0.9,0,1.5-0.1,1.9-0.3s0.6-0.5,0.6-0.9l0.2,1.8
			c0,0.4-0.2,0.8-0.6,1.1c-0.4,0.3-0.8,0.5-1.3,0.7s-1.1,0.2-1.7,0.2C148.3,169.7,147.4,169.4,146.7,168.7z M153,161.8
			c0-0.6-0.2-1-0.6-1.3c-0.4-0.3-0.9-0.5-1.6-0.5c-0.5,0-0.9,0.1-1.3,0.2c-0.4,0.1-0.8,0.4-1.2,0.6l-2-2c0.5-0.6,1.1-1,1.9-1.3
			c0.8-0.3,1.7-0.5,2.6-0.5c1.1,0,2,0.2,2.7,0.5s1.3,0.9,1.7,1.5s0.6,1.5,0.6,2.4v7.8h-2.9L153,161.8L153,161.8z"/>
		<path class="st6" d="M158.2,157.3h6v2.7h-6V157.3z M160.2,168.7c-0.5-0.5-0.7-1.3-0.7-2.4v-12.5h3.2v11.7c0,0.3,0.1,0.5,0.2,0.7
			c0.1,0.2,0.3,0.2,0.5,0.2h0.8v3.1h-1.6C161.5,169.5,160.7,169.3,160.2,168.7z"/>
		<path class="st6" d="M170.4,169.7c0,0-0.4-0.2-1.2-0.6c-0.8-0.4-1.5-1-1.9-1.9s-0.7-1.8-0.7-2.9v-1.4c0-1.2,0.2-2.2,0.6-3.1
			c0.4-0.9,1-1.5,1.8-1.9s1.8-0.7,2.9-0.7s2,0.3,2.7,0.8s1.3,1.3,1.7,2.3s0.6,2.2,0.6,3.7v0.8h-8.3v-2.2h5.4v-0.3
			c-0.1-0.7-0.3-1.2-0.7-1.6c-0.4-0.4-0.8-0.6-1.4-0.6c-0.8,0-1.4,0.2-1.8,0.7s-0.6,1.1-0.6,2v1.5c0,0.8,0.2,1.5,0.7,1.9
			s1.1,0.7,2,0.7c0.4,0,0.9-0.1,1.3-0.2c0.4-0.1,0.8-0.4,1.1-0.7l2.1,1.9c-0.6,0.6-1.3,1-2.1,1.3s-1.6,0.5-2.4,0.5
			C171,169.7,170.4,169.7,170.4,169.7z"/>
	</g>
</g>
<g class="st3">
	<g class="st4">
		<path class="st6" d="M267.2,25.5h3.2v17h-3.2V25.5z M268.8,39.4h4.1c1.1,0,1.9-0.3,2.4-0.8s0.9-1.2,0.9-2.2v-5
			c0-0.9-0.3-1.6-0.9-2.2s-1.4-0.8-2.4-0.8h-4.1v-3.1h4c1.4,0,2.6,0.2,3.6,0.7s1.8,1.2,2.3,2.1s0.8,2,0.8,3.3v4.8
			c0,1.2-0.3,2.3-0.8,3.2s-1.3,1.6-2.3,2.1s-2.2,0.8-3.7,0.8h-4v-2.9C268.7,39.4,268.8,39.4,268.8,39.4z"/>
		<path class="st6" d="M281.1,44.4h0.8c0.3,0,0.5-0.1,0.7-0.2s0.2-0.4,0.2-0.7V30.4h3.2v13.9c0,1-0.3,1.8-0.8,2.4s-1.3,0.8-2.3,0.8
			h-1.8L281.1,44.4L281.1,44.4z M282.7,25.5h3.3v3.2h-3.3V25.5z"/>
		<path class="st6" d="M289.5,41.8c-0.6-0.6-1-1.6-1-2.8s0.4-2.1,1.1-2.7s1.8-0.9,3.3-0.9h3l0.2,2.4h-3.2c-0.5,0-0.8,0.1-1.1,0.3
			s-0.4,0.5-0.4,0.9s0.2,0.7,0.5,0.9s0.8,0.3,1.4,0.3c0.9,0,1.5-0.1,1.9-0.3s0.6-0.5,0.6-0.9l0.2,1.8c0,0.4-0.2,0.8-0.6,1.1
			s-0.8,0.5-1.3,0.7s-1.1,0.2-1.7,0.2C291.1,42.7,290.2,42.4,289.5,41.8z M295.8,34.8c0-0.6-0.2-1-0.6-1.3s-0.9-0.5-1.6-0.5
			c-0.5,0-0.9,0.1-1.3,0.2s-0.8,0.4-1.2,0.6l-2-2c0.5-0.6,1.1-1,1.9-1.3s1.7-0.5,2.6-0.5c1.1,0,2,0.2,2.7,0.5s1.3,0.9,1.7,1.5
			c0.4,0.6,0.6,1.5,0.6,2.4v7.8h-2.9L295.8,34.8L295.8,34.8z"/>
		<path class="st6" d="M301.9,30.4h3.2v12.2h-3.2V30.4z M308.9,35.2c0-0.6-0.2-1.1-0.5-1.4s-0.8-0.5-1.4-0.5s-1.1,0.2-1.4,0.5
			s-0.5,0.8-0.5,1.4l-0.2-2.7c0.4-0.8,0.8-1.3,1.3-1.7s1.2-0.6,1.9-0.6c1.3,0,2.3,0.4,3,1.3s1.1,2.1,1.1,3.7v7.4H309L308.9,35.2
			L308.9,35.2z"/>
		<path class="st6" d="M316.8,42.1c-0.6-0.4-1.1-1-1.4-1.8s-0.5-1.7-0.5-2.8v-1.9c0-1.1,0.2-2.1,0.5-2.9s0.8-1.4,1.4-1.8
			s1.3-0.6,2.2-0.6c0.6,0,1.2,0.2,1.8,0.6s1,0.9,1.3,1.6l-0.2,2.7c0-0.4-0.1-0.8-0.2-1.1s-0.3-0.5-0.6-0.7s-0.6-0.2-1-0.2
			c-0.6,0-1.1,0.2-1.4,0.6s-0.5,1-0.5,1.7v1.9c0,0.7,0.2,1.3,0.5,1.7s0.8,0.6,1.4,0.6c0.4,0,0.7-0.1,1-0.2s0.5-0.4,0.6-0.6
			s0.2-0.6,0.2-1l0.2,2.8c-0.3,0.7-0.6,1.2-1.1,1.5s-1.1,0.5-1.8,0.5C318.2,42.7,317.5,42.5,316.8,42.1z M318.2,47.5
			c0,0-0.4-0.2-1.1-0.5s-1.4-0.8-1.8-1.4l2.2-2c0.3,0.3,0.6,0.5,1,0.7s0.8,0.2,1.2,0.2c0.7,0,1.2-0.2,1.6-0.6s0.6-0.9,0.6-1.5v-12
			h3.2v11.8c0,1.1-0.2,2.1-0.6,2.9s-1,1.4-1.9,1.8s-1.8,0.6-3,0.6C318.7,47.5,318.2,47.5,318.2,47.5z"/>
		<path class="st6" d="M330.3,42.1c-0.8-0.4-1.4-1-1.8-1.8s-0.6-1.7-0.6-2.9v-2c0-1.1,0.2-2,0.6-2.8s1-1.4,1.8-1.8s1.7-0.6,2.8-0.6
			s2.1,0.2,2.8,0.6s1.4,1,1.8,1.8s0.6,1.7,0.6,2.8v2c0,1.1-0.2,2.1-0.6,2.8s-1,1.4-1.8,1.8s-1.7,0.6-2.8,0.6S331.1,42.5,330.3,42.1z
			 M334.6,39c0.4-0.4,0.5-0.9,0.5-1.6v-2c0-0.7-0.2-1.2-0.5-1.6s-0.9-0.6-1.5-0.6s-1.1,0.2-1.5,0.6s-0.5,0.9-0.5,1.6v2
			c0,0.7,0.2,1.2,0.5,1.6s0.9,0.6,1.5,0.6S334.3,39.4,334.6,39z"/>
	</g>
</g>
<g class="st3">
	<g class="st4">
		<g>
			<path class="st6" d="M427,4.5h3.2v17H427V4.5z M428.6,18.5h4.1c1.1,0,1.9-0.3,2.4-0.8s0.9-1.2,0.9-2.2v-5c0-0.9-0.3-1.6-0.9-2.2
				s-1.4-0.8-2.4-0.8h-4.1V4.4h4c1.4,0,2.6,0.2,3.6,0.7s1.8,1.2,2.3,2.1s0.8,2,0.8,3.3v4.8c0,1.2-0.3,2.3-0.8,3.2s-1.3,1.6-2.3,2.1
				s-2.2,0.8-3.7,0.8h-4v-2.9H428.6L428.6,18.5z"/>
			<path class="st6" d="M442.7,4.5h3.2v17.1h-3.2V4.5z M444,11.6h5.9c0.3,0,0.6-0.1,0.9-0.2s0.4-0.4,0.6-0.7s0.2-0.7,0.2-1.1
				s-0.1-0.8-0.2-1.1s-0.3-0.5-0.6-0.7s-0.5-0.2-0.9-0.2H444V4.5h6.2c0.9,0,1.8,0.2,2.5,0.6s1.3,1,1.7,1.8s0.6,1.7,0.6,2.7
				s-0.2,1.9-0.6,2.7s-0.9,1.4-1.7,1.8s-1.5,0.6-2.5,0.6H444V11.6z M447.6,14.2l3.4-0.5l4.6,7.9h-3.9L447.6,14.2z"/>
			<path class="st6" d="M458.4,4.5h3.2v17h-3.2V4.5z M459.5,4.5h10v3.1h-10V4.5z M459.5,11.7h8.7v3.1h-8.7V11.7z"/>
		</g>
	</g>
</g>
<g class="st3">
	<g class="st4">
		<g>
			<path class="st6" d="M543.5,65.6h3.9l6.3,13.2l-0.3,0.3V65.6h3.1v17.2h-3.9l-6.3-13l0.3-0.3v13.3h-3.1V65.6z"/>
			<path class="st6" d="M560.3,65.6h3.2v17.2h-3.2V65.6z M561.7,79.8h10v3.1h-10V79.8z"/>
			<path class="st6" d="M571.7,65.6h12.5v3.1h-12.5V65.6z M576.3,67h3.2v15.8h-3.2V67z"/>
			<path class="st6" d="M585.6,65.6h3.2v17.2h-3.2V65.6z M587.5,76.1l6.8-10.5h4l-10.5,14.8L587.5,76.1z M590.3,74.1l2.8-1.7l6,10.5
				h-3.8L590.3,74.1z"/>
		</g>
	</g>
</g>
<g class="st3">
	<g class="st4">
		<g>
			<path class="st6" d="M518.9,37.6c0,0-0.4-0.1-1.2-0.2s-1.5-0.4-2.2-0.7s-1.3-0.7-1.8-1.1l1.5-2.6c0.7,0.5,1.4,1,2.3,1.2
				s1.7,0.4,2.6,0.4c1,0,1.9-0.2,2.4-0.5s0.9-0.9,0.9-1.5l0,0c0-0.5-0.1-0.8-0.4-1.1s-0.6-0.5-1-0.6s-0.9-0.2-1.6-0.3c0,0,0,0-0.1,0
				s0,0-0.1,0h-0.3c-1.1-0.2-2.1-0.4-2.8-0.7s-1.4-0.7-1.9-1.4s-0.8-1.6-0.8-2.9l0,0c0-1.1,0.2-2,0.7-2.8s1.2-1.4,2.1-1.8
				s2.1-0.6,3.4-0.6c0.6,0,1.2,0.1,1.9,0.2s1.3,0.3,1.9,0.6s1.2,0.6,1.7,1l-1.4,2.7c-0.7-0.5-1.3-0.8-2.1-1.1s-1.4-0.4-2.1-0.4
				c-1,0-1.7,0.2-2.3,0.5s-0.8,0.8-0.8,1.4l0,0c0,0.5,0.1,0.9,0.4,1.2s0.6,0.5,1,0.6s1,0.3,1.7,0.4h0.1h0.1h0.1h0.1
				c1.1,0.2,2,0.5,2.7,0.8s1.3,0.8,1.8,1.5s0.7,1.6,0.7,2.7l0,0c0,1.1-0.3,2-0.8,2.8s-1.2,1.4-2.2,1.8s-2.1,0.6-3.5,0.6
				C519.3,37.6,518.9,37.6,518.9,37.6z"/>
			<path class="st6" d="M529.3,20.4h3.2v17h-3.2V20.4z M530.8,33.1l5.7-7.8h3.4l-8.6,11.3L530.8,33.1z M533.6,31.2l2.6-1.6l4.1,7.9
				h-3.7L533.6,31.2z"/>
			<path class="st6" d="M545.2,33.4c0,0.3,0.1,0.5,0.3,0.7s0.4,0.2,0.7,0.2h0.5v3.1h-1.6c-1,0-1.7-0.3-2.3-0.8s-0.8-1.4-0.8-2.4
				V20.4h3.2L545.2,33.4L545.2,33.4z"/>
			<path class="st6" d="M552.4,37.6c0,0-0.4-0.2-1.2-0.6s-1.5-1-1.9-1.9s-0.7-1.8-0.7-2.9v-1.4c0-1.2,0.2-2.2,0.6-3.1s1-1.5,1.8-1.9
				s1.8-0.7,2.9-0.7c1.1,0,2,0.3,2.7,0.8s1.3,1.3,1.7,2.3s0.6,2.2,0.6,3.7v0.8h-8.3v-2.2h5.4v-0.3c-0.1-0.7-0.3-1.2-0.7-1.6
				s-0.8-0.6-1.4-0.6c-0.8,0-1.4,0.2-1.8,0.7s-0.6,1.1-0.6,2v1.5c0,0.8,0.2,1.5,0.7,1.9s1.1,0.7,2,0.7c0.4,0,0.9-0.1,1.3-0.2
				s0.8-0.4,1.1-0.7l2.1,1.9c-0.6,0.6-1.3,1-2.1,1.3s-1.6,0.5-2.4,0.5C552.9,37.6,552.4,37.6,552.4,37.6z"/>
			<path class="st6" d="M562.1,36.7c-0.6-0.6-1-1.6-1-2.8s0.4-2.1,1.1-2.7s1.8-0.9,3.3-0.9h3l0.2,2.4h-3.2c-0.5,0-0.8,0.1-1.1,0.3
				s-0.4,0.5-0.4,0.9s0.2,0.7,0.5,0.9s0.8,0.3,1.4,0.3c0.9,0,1.5-0.1,1.9-0.3s0.6-0.5,0.6-0.9l0.2,1.8c0,0.4-0.2,0.8-0.6,1.1
				s-0.8,0.5-1.3,0.7s-1.1,0.2-1.7,0.2C563.8,37.6,562.8,37.3,562.1,36.7z M568.5,29.7c0-0.6-0.2-1-0.6-1.3s-0.9-0.5-1.6-0.5
				c-0.5,0-0.9,0.1-1.3,0.2s-0.8,0.4-1.2,0.6l-2-2c0.5-0.6,1.1-1,1.9-1.3s1.7-0.5,2.6-0.5c1.1,0,2,0.2,2.7,0.5s1.3,0.9,1.7,1.5
				s0.6,1.5,0.6,2.4v7.8h-2.9L568.5,29.7L568.5,29.7z"/>
			<path class="st6" d="M574.5,25.3h3.4v12.2h-3.4V25.3z M580.8,28.3c-0.2-0.1-0.5-0.1-0.8-0.1c-0.6,0-1.2,0.2-1.5,0.6
				s-0.5,1-0.5,1.7l-0.2-3.2c0.3-0.7,0.8-1.3,1.3-1.7s1.1-0.6,1.8-0.6c0.5,0,1,0.1,1.4,0.2s0.8,0.4,1.1,0.7l-1.9,2.6
				C581.2,28.5,581,28.4,580.8,28.3z"/>
			<path class="st6" d="M584.8,25.3h3.2v12.2h-3.2V25.3z M591.8,30.1c0-0.6-0.2-1.1-0.5-1.4s-0.8-0.5-1.4-0.5
				c-0.6,0-1.1,0.2-1.4,0.5s-0.5,0.8-0.5,1.4l-0.2-2.7c0.4-0.8,0.8-1.3,1.3-1.7s1.2-0.6,1.9-0.6c1.3,0,2.3,0.4,3,1.3
				s1.1,2.1,1.1,3.7v7.4h-3.2L591.8,30.1L591.8,30.1z"/>
		</g>
	</g>
</g>
<g class="st3">
	<g class="st4">
		<g>
			<path class="st6" d="M839.8,166.9h12.5v3.1h-12.5V166.9z M844.5,168.3h3.2v15.6h-3.2V168.3z"/>
			<path class="st6" d="M852.2,171.8h3l4.1,10.6l-2,2.6L852.2,171.8z M863.4,171.8l-5.4,15c-0.2,0.6-0.5,1-0.8,1.3s-0.7,0.6-1.1,0.7
				s-1,0.2-1.6,0.2h-0.7v-3.1h0.7c0.3,0,0.6-0.1,0.9-0.2s0.4-0.4,0.5-0.7l4.5-13.1L863.4,171.8L863.4,171.8z"/>
			<path class="st6" d="M865.1,171.8h3.2v17.1h-3.2V171.8z M869.3,183.6c-0.5-0.4-0.9-0.9-1.1-1.5l0.2-2.8c0,0.4,0.1,0.7,0.2,1
				s0.3,0.5,0.6,0.6s0.6,0.2,1,0.2c0.6,0,1.1-0.2,1.4-0.6s0.5-1,0.5-1.7v-1.9c0-0.7-0.2-1.3-0.5-1.7s-0.8-0.6-1.4-0.6
				c-0.4,0-0.7,0.1-1,0.2s-0.5,0.4-0.6,0.7s-0.2,0.6-0.2,1.1l-0.2-2.7c0.3-0.7,0.8-1.3,1.3-1.6s1.1-0.6,1.8-0.6
				c0.9,0,1.6,0.2,2.2,0.6s1.1,1,1.4,1.8s0.5,1.8,0.5,2.9v1.9c0,1.1-0.2,2.1-0.5,2.8s-0.8,1.4-1.4,1.8s-1.3,0.6-2.2,0.6
				C870.4,184.2,869.8,184,869.3,183.6z"/>
			<path class="st6" d="M881.6,184.2c0,0-0.4-0.2-1.2-0.6s-1.5-1-1.9-1.9s-0.7-1.8-0.7-2.9v-1.4c0-1.2,0.2-2.2,0.6-3.1
				s1-1.5,1.8-1.9s1.8-0.7,2.9-0.7c1.1,0,2,0.3,2.7,0.8s1.3,1.3,1.7,2.3s0.6,2.2,0.6,3.7v0.8h-8.3v-2.2h5.4v-0.3
				c-0.1-0.7-0.3-1.2-0.7-1.6s-0.8-0.6-1.4-0.6c-0.8,0-1.4,0.2-1.8,0.7s-0.6,1.1-0.6,2v1.5c0,0.8,0.2,1.5,0.7,1.9s1.1,0.7,2,0.7
				c0.4,0,0.9-0.1,1.3-0.2s0.8-0.4,1.1-0.7l2.1,1.9c-0.6,0.6-1.3,1-2.1,1.3s-1.6,0.5-2.4,0.5C882.2,184.2,881.6,184.2,881.6,184.2z"
				/>
			<path class="st6" d="M895.4,184.2c0,0-0.4-0.1-1.2-0.2s-1.5-0.4-2.2-0.7s-1.3-0.7-1.8-1.1l1.5-2.6c0.7,0.5,1.4,1,2.3,1.2
				s1.7,0.4,2.6,0.4c1,0,1.9-0.2,2.4-0.5s0.9-0.9,0.9-1.5l0,0c0-0.5-0.1-0.8-0.4-1.1s-0.6-0.5-1-0.6s-0.9-0.2-1.6-0.3c0,0,0,0-0.1,0
				s0,0-0.1,0h-0.3c-1.1-0.2-2.1-0.4-2.8-0.7s-1.4-0.7-1.9-1.4s-0.8-1.6-0.8-2.9l0,0c0-1.1,0.2-2,0.7-2.8s1.2-1.4,2.1-1.8
				s2.1-0.6,3.4-0.6c0.6,0,1.2,0.1,1.9,0.2s1.3,0.3,1.9,0.6s1.2,0.6,1.7,1l-1.4,2.7c-0.7-0.5-1.3-0.8-2.1-1.1s-1.4-0.4-2.1-0.4
				c-1,0-1.7,0.2-2.3,0.5s-0.8,0.8-0.8,1.4l0,0c0,0.5,0.1,0.9,0.4,1.2s0.6,0.5,1,0.6s1,0.3,1.7,0.4h0.1h0.1h0.1h0.1
				c1.1,0.2,2,0.5,2.7,0.8s1.3,0.8,1.8,1.5s0.7,1.6,0.7,2.7l0,0c0,1.1-0.3,2-0.8,2.8s-1.2,1.4-2.2,1.8s-2.1,0.6-3.5,0.6
				C895.8,184.2,895.4,184.2,895.4,184.2z"/>
			<path class="st6" d="M909.2,184.2c0,0-0.4-0.2-1.2-0.7s-1.5-1.1-1.9-1.9s-0.6-1.9-0.6-3v-1.4c0-1.2,0.2-2.2,0.6-3
				s1.1-1.5,1.9-1.9s1.8-0.7,3-0.7c0.7,0,1.3,0.1,1.9,0.2s1.1,0.4,1.6,0.7s0.9,0.6,1.2,1.1l-2.1,2c-0.3-0.3-0.6-0.5-1-0.6
				s-0.8-0.2-1.3-0.2c-0.8,0-1.4,0.2-1.9,0.7s-0.7,1-0.7,1.8v1.3c0,0.8,0.2,1.4,0.7,1.9s1.1,0.7,1.9,0.7c0.4,0,0.9-0.1,1.3-0.2
				s0.7-0.4,1-0.7l2.1,2.1c-0.3,0.4-0.7,0.8-1.2,1s-1,0.5-1.6,0.7s-1.2,0.2-1.9,0.2C909.8,184.2,909.2,184.2,909.2,184.2z"/>
			<path class="st6" d="M917.7,171.8h3.4V184h-3.4V171.8z M924,174.9c-0.2-0.1-0.5-0.1-0.8-0.1c-0.6,0-1.2,0.2-1.5,0.6
				s-0.5,1-0.5,1.7l-0.2-3.2c0.3-0.7,0.8-1.3,1.3-1.7s1.1-0.6,1.8-0.6c0.5,0,1,0.1,1.4,0.2s0.8,0.4,1.1,0.7l-2,2.7
				C924.4,175.1,924.2,174.9,924,174.9z"/>
			<path class="st6" d="M927.8,166.9h3.2v3.2h-3.2V166.9z M927.8,171.8h3.2V184h-3.2V171.8z"/>
			<path class="st6" d="M934,171.8h3.2v17.1H934V171.8z M938.2,183.6c-0.5-0.4-0.9-0.9-1.1-1.5l0.2-2.8c0,0.4,0.1,0.7,0.2,1
				s0.3,0.5,0.6,0.6s0.6,0.2,1,0.2c0.6,0,1.1-0.2,1.4-0.6s0.5-1,0.5-1.7v-1.9c0-0.7-0.2-1.3-0.5-1.7s-0.8-0.6-1.4-0.6
				c-0.4,0-0.7,0.1-1,0.2s-0.5,0.4-0.6,0.7s-0.2,0.6-0.2,1.1l-0.2-2.7c0.3-0.7,0.8-1.3,1.3-1.6s1.1-0.6,1.8-0.6
				c0.9,0,1.6,0.2,2.2,0.6s1.1,1,1.4,1.8s0.5,1.8,0.5,2.9v1.9c0,1.1-0.2,2.1-0.5,2.8s-0.8,1.4-1.4,1.8s-1.3,0.6-2.2,0.6
				C939.3,184.2,938.7,184,938.2,183.6z"/>
			<path class="st6" d="M946.1,171.8h6v2.7h-6V171.8z M948.1,183.2c-0.5-0.5-0.7-1.3-0.7-2.4v-12.5h3.2V180c0,0.3,0.1,0.5,0.2,0.7
				s0.3,0.2,0.5,0.2h0.8v3.1h-1.6C949.4,184,948.6,183.8,948.1,183.2z"/>
		</g>
	</g>
</g>
<g class="st3">
	<g class="st4">
		<g>
			<path class="st6" d="M892.4,213.2h3.2v17.1h-3.2V213.2z M893.6,220.3h5.9c0.3,0,0.6-0.1,0.9-0.2s0.4-0.4,0.6-0.7s0.2-0.7,0.2-1.1
				c0-0.4-0.1-0.8-0.2-1.1s-0.3-0.5-0.6-0.7s-0.5-0.2-0.9-0.2h-5.9v-3.1h6.2c0.9,0,1.8,0.2,2.5,0.6s1.3,1,1.7,1.8s0.6,1.7,0.6,2.7
				s-0.2,1.9-0.6,2.7s-0.9,1.4-1.7,1.8s-1.5,0.6-2.5,0.6h-6.2V220.3z M897.2,222.8l3.4-0.5l4.6,7.9h-3.9L897.2,222.8z"/>
			<path class="st6" d="M911.2,230.4c0,0-0.4-0.2-1.2-0.6s-1.5-1-1.9-1.9s-0.7-1.8-0.7-2.9v-1.4c0-1.2,0.2-2.2,0.6-3.1
				s1-1.5,1.8-1.9s1.8-0.7,2.9-0.7c1.1,0,2,0.3,2.7,0.8s1.3,1.3,1.7,2.3s0.6,2.2,0.6,3.7v0.8h-8.3v-2.2h5.4V223
				c-0.1-0.7-0.3-1.2-0.7-1.6s-0.8-0.6-1.4-0.6c-0.8,0-1.4,0.2-1.8,0.7s-0.6,1.1-0.6,2v1.5c0,0.8,0.2,1.5,0.7,1.9s1.1,0.7,2,0.7
				c0.4,0,0.9-0.1,1.3-0.2s0.8-0.4,1.1-0.7l2.1,1.9c-0.6,0.6-1.3,1-2.1,1.3s-1.6,0.5-2.4,0.5C911.8,230.4,911.2,230.4,911.2,230.4z"
				/>
			<path class="st6" d="M921,229.5c-0.6-0.6-1-1.6-1-2.8s0.4-2.1,1.1-2.7s1.8-0.9,3.3-0.9h3l0.2,2.4h-3.2c-0.5,0-0.8,0.1-1.1,0.3
				s-0.4,0.5-0.4,0.9s0.2,0.7,0.5,0.9s0.8,0.3,1.4,0.3c0.9,0,1.5-0.1,1.9-0.3s0.6-0.5,0.6-0.9l0.2,1.8c0,0.4-0.2,0.8-0.6,1.1
				s-0.8,0.5-1.3,0.7s-1.1,0.2-1.7,0.2C922.6,230.4,921.7,230.1,921,229.5z M927.3,222.5c0-0.6-0.2-1-0.6-1.3s-0.9-0.5-1.6-0.5
				c-0.5,0-0.9,0.1-1.3,0.2s-0.8,0.4-1.2,0.6l-2-2c0.5-0.6,1.1-1,1.9-1.3s1.7-0.5,2.6-0.5c1.1,0,2,0.2,2.7,0.5s1.3,0.9,1.7,1.5
				s0.6,1.5,0.6,2.4v7.8h-2.9L927.3,222.5L927.3,222.5z"/>
			<path class="st6" d="M936.8,230.4c0,0-0.4-0.2-1.2-0.7s-1.5-1.1-1.9-1.9s-0.6-1.9-0.6-3v-1.3c0-1.2,0.2-2.2,0.6-3
				s1.1-1.5,1.9-1.9s1.8-0.7,3-0.7c0.7,0,1.3,0.1,1.9,0.2s1.1,0.4,1.6,0.7s0.9,0.6,1.2,1.1l-2.1,2c-0.3-0.3-0.6-0.5-1-0.6
				s-0.8-0.2-1.3-0.2c-0.8,0-1.4,0.2-1.9,0.7s-0.7,1-0.7,1.8v1.3c0,0.8,0.2,1.4,0.7,1.9s1.1,0.7,1.9,0.7c0.4,0,0.9-0.1,1.3-0.2
				s0.7-0.4,1-0.7l2.1,2.1c-0.3,0.4-0.7,0.8-1.2,1s-1,0.5-1.6,0.7s-1.2,0.2-1.9,0.2C937.4,230.4,936.8,230.4,936.8,230.4z"/>
			<path class="st6" d="M944.4,218.1h6v2.7h-6V218.1z M946.4,229.5c-0.5-0.5-0.7-1.3-0.7-2.4v-12.5h3.2v11.7c0,0.3,0.1,0.5,0.2,0.7
				s0.3,0.2,0.5,0.2h0.8v3.1h-1.6C947.7,230.3,946.9,230,946.4,229.5z"/>
		</g>
	</g>
</g>
<g class="st3">
	<g class="st4">
		<g>
			<path class="st6" d="M881.7,302.3c-0.8-0.4-1.5-1-1.9-1.7l2.6-1.9c0.3,0.4,0.6,0.6,1,0.8c0.4,0.2,0.8,0.3,1.2,0.3
				c0.6,0,1.1-0.2,1.4-0.7s0.5-1,0.5-1.8v-11.6h3.3v11.6c0,1.2-0.2,2.2-0.6,3c-0.4,0.8-1,1.5-1.9,1.9s-1.8,0.7-2.9,0.7
				C883.5,302.9,882.6,302.7,881.7,302.3z"/>
			<path class="st6" d="M896.3,302.1c-0.9-0.5-1.7-1.3-2.2-2.2s-0.8-2-0.8-3.3v-4.8c0-1.3,0.3-2.3,0.8-3.3s1.2-1.7,2.2-2.2
				s2-0.8,3.3-0.8s2.3,0.3,3.3,0.8s1.7,1.3,2.2,2.2s0.8,2,0.8,3.3v4.8c0,1.3-0.3,2.3-0.8,3.3s-1.2,1.7-2.2,2.2s-2,0.8-3.3,0.8
				S897.3,302.6,896.3,302.1z M901.1,299.3c0.4-0.2,0.8-0.6,1-1s0.4-1,0.4-1.6v-5c0-0.6-0.1-1.1-0.4-1.6s-0.6-0.8-1-1
				s-0.9-0.4-1.5-0.4s-1.1,0.1-1.5,0.4s-0.8,0.6-1,1s-0.4,1-0.4,1.6v5c0,0.6,0.1,1.1,0.4,1.6s0.6,0.8,1,1s0.9,0.4,1.5,0.4
				S900.7,299.6,901.1,299.3z M899.1,298l1.7-2.2l6.6,5l-1.7,2.2L899.1,298z"/>
			<path class="st6" d="M912.5,298c0,0.6,0.2,1,0.5,1.4s0.8,0.5,1.4,0.5s1.1-0.2,1.4-0.5c0.3-0.3,0.5-0.8,0.5-1.4l0.2,2.7
				c-0.2,0.7-0.6,1.2-1.1,1.7s-1.2,0.7-1.9,0.7c-1.3,0-2.3-0.4-3-1.3s-1.1-2-1.1-3.6v-7.5h3.2v7.3L912.5,298L912.5,298z
				 M916.3,290.6h3.2v12.2h-3.2V290.6z"/>
			<path class="st6" d="M926.1,302.9c0,0-0.4-0.2-1.2-0.6s-1.5-1-1.9-1.9s-0.7-1.8-0.7-2.9v-1.4c0-1.2,0.2-2.2,0.6-3.1
				c0.4-0.9,1-1.5,1.8-1.9s1.8-0.7,2.9-0.7c1.1,0,2,0.3,2.7,0.8s1.3,1.3,1.7,2.3s0.6,2.2,0.6,3.7v0.8h-8.3v-2.2h5.4v-0.3
				c-0.1-0.7-0.3-1.2-0.7-1.6s-0.8-0.6-1.4-0.6c-0.8,0-1.4,0.2-1.8,0.7s-0.6,1.1-0.6,2v1.5c0,0.8,0.2,1.5,0.7,1.9s1.1,0.7,2,0.7
				c0.4,0,0.9-0.1,1.3-0.2c0.4-0.1,0.8-0.4,1.1-0.7l2.1,1.9c-0.6,0.6-1.3,1-2.1,1.3s-1.6,0.5-2.4,0.5
				C926.7,302.9,926.1,302.9,926.1,302.9z"/>
			<path class="st6" d="M935.5,290.6h3.4v12.2h-3.4V290.6z M941.8,293.6c-0.2-0.1-0.5-0.1-0.8-0.1c-0.6,0-1.2,0.2-1.5,0.6
				s-0.5,1-0.5,1.7l-0.2-3.2c0.3-0.7,0.8-1.3,1.3-1.7s1.1-0.6,1.8-0.6c0.5,0,1,0.1,1.4,0.2s0.8,0.4,1.1,0.7l-1.9,2.6
				C942.2,293.8,942,293.7,941.8,293.6z"/>
			<path class="st6" d="M944.4,290.6h3l4.1,10.6l-2,2.6L944.4,290.6z M955.7,290.6l-5.4,15c-0.2,0.6-0.5,1-0.8,1.3s-0.7,0.6-1.1,0.7
				c-0.4,0.1-1,0.2-1.6,0.2h-0.7v-3.1h0.7c0.3,0,0.6-0.1,0.9-0.2c0.3-0.1,0.4-0.4,0.5-0.7l4.5-13.1L955.7,290.6L955.7,290.6z"/>
		</g>
	</g>
</g>
<g class="st3">
	<g class="st4">
		<g>
			<path class="st6" d="M744.6,78.6h3.2v17h-3.2V78.6z M745.8,78.6h10.3v3.1h-10.3V78.6z M745.8,85.6h9v3.1h-9V85.6z M745.8,92.5
				h10.3v3.1h-10.3V92.5z"/>
			<path class="st6" d="M761.8,88.9l1.9,2.2l-2.8,4.5h-3.4L761.8,88.9z M762.4,90.6l-4.7-7.1h3.5l2.9,4.9l4.8,7.3h-3.5L762.4,90.6z
				 M763,87.8l2.3-4.3h3.5l-3.9,6.6L763,87.8z"/>
			<path class="st6" d="M771.1,83.5h3.2v17.1h-3.2V83.5z M775.3,95.3c-0.5-0.4-0.9-0.9-1.1-1.5l0.2-2.8c0,0.4,0.1,0.7,0.2,1
				s0.3,0.5,0.6,0.6s0.6,0.2,1,0.2c0.6,0,1.1-0.2,1.4-0.6s0.5-1,0.5-1.7v-1.9c0-0.7-0.2-1.3-0.5-1.7s-0.8-0.6-1.4-0.6
				c-0.4,0-0.7,0.1-1,0.2s-0.5,0.4-0.6,0.7s-0.2,0.6-0.2,1.1l-0.2-2.7c0.3-0.7,0.8-1.3,1.3-1.6s1.1-0.6,1.8-0.6
				c0.9,0,1.6,0.2,2.2,0.6s1.1,1,1.4,1.8s0.5,1.8,0.5,2.9v1.9c0,1.1-0.2,2.1-0.5,2.8s-0.8,1.4-1.4,1.8s-1.3,0.6-2.2,0.6
				S775.8,95.6,775.3,95.3z"/>
			<path class="st6" d="M784.2,83.5h3.4v12.2h-3.4V83.5z M790.4,86.5c-0.2-0.1-0.5-0.1-0.8-0.1c-0.6,0-1.2,0.2-1.5,0.6
				s-0.5,1-0.5,1.7l-0.2-3.2c0.3-0.7,0.8-1.3,1.3-1.7s1.1-0.6,1.8-0.6c0.5,0,1,0.1,1.4,0.2s0.8,0.4,1.1,0.7l-1.9,2.6
				C790.9,86.7,790.7,86.6,790.4,86.5z"/>
			<path class="st6" d="M797.9,95.8c0,0-0.4-0.2-1.2-0.6s-1.5-1-1.9-1.9s-0.7-1.8-0.7-2.9V89c0-1.2,0.2-2.2,0.6-3.1s1-1.5,1.8-1.9
				s1.8-0.7,2.9-0.7c1.1,0,2,0.3,2.7,0.8s1.3,1.3,1.7,2.3s0.6,2.2,0.6,3.7v0.8h-8.3v-2.2h5.4v-0.3c-0.1-0.7-0.3-1.2-0.7-1.6
				s-0.8-0.6-1.4-0.6c-0.8,0-1.4,0.2-1.8,0.7s-0.6,1.1-0.6,2v1.5c0,0.8,0.2,1.5,0.7,1.9s1.1,0.7,2,0.7c0.4,0,0.9-0.1,1.3-0.2
				s0.8-0.4,1.1-0.7l2.1,1.9c-0.6,0.6-1.3,1-2.1,1.3s-1.6,0.5-2.4,0.5C798.5,95.8,797.9,95.8,797.9,95.8z"/>
			<path class="st6" d="M810.8,95.8c0,0-0.3-0.1-1-0.2s-1.3-0.3-1.9-0.6s-1.1-0.6-1.6-0.9l2-2.5c0.6,0.4,1.2,0.7,1.8,0.9
				s1.3,0.3,1.8,0.3c0.8,0,1.3-0.1,1.7-0.3s0.6-0.4,0.6-0.7s-0.1-0.5-0.3-0.6s-0.4-0.2-0.7-0.3s-0.7-0.1-1.2-0.2c-0.1,0-0.3,0-0.4,0
				s-0.3,0-0.4,0h-0.1H811c-0.9-0.1-1.6-0.3-2.2-0.4s-1-0.5-1.4-1s-0.6-1.2-0.6-2.1c0-0.8,0.2-1.5,0.6-2.1s1-1,1.7-1.3
				s1.6-0.5,2.7-0.5c0.6,0,1.2,0.1,1.8,0.2s1.2,0.3,1.8,0.5s1.1,0.5,1.6,0.8l-1.9,2.3c-0.5-0.3-1.1-0.5-1.7-0.7s-1.1-0.2-1.7-0.2
				c-0.6,0-1.2,0.1-1.5,0.2s-0.5,0.4-0.5,0.6s0.1,0.4,0.3,0.5s0.4,0.2,0.7,0.2s0.7,0.1,1.2,0.2c0.1,0,0.1,0,0.2,0s0.1,0,0.2,0h0.1
				h0.1c0.9,0.1,1.7,0.3,2.3,0.4s1.1,0.5,1.5,1s0.6,1.3,0.6,2.3c0,0.8-0.2,1.6-0.6,2.2s-1,1.1-1.8,1.4s-1.7,0.5-2.8,0.5
				C811.2,95.8,810.8,95.8,810.8,95.8z"/>
			<path class="st6" d="M823.3,95.8c0,0-0.3-0.1-1-0.2s-1.3-0.3-1.9-0.6s-1.1-0.6-1.6-0.9l2-2.5c0.6,0.4,1.2,0.7,1.8,0.9
				s1.3,0.3,1.8,0.3c0.8,0,1.3-0.1,1.7-0.3s0.6-0.4,0.6-0.7s-0.1-0.5-0.3-0.6s-0.4-0.2-0.7-0.3s-0.7-0.1-1.2-0.2c-0.1,0-0.3,0-0.4,0
				s-0.3,0-0.4,0h-0.1h-0.1c-0.9-0.1-1.6-0.3-2.2-0.4s-1-0.5-1.4-1s-0.6-1.2-0.6-2.1c0-0.8,0.2-1.5,0.6-2.1s1-1,1.7-1.3
				s1.6-0.5,2.7-0.5c0.6,0,1.2,0.1,1.8,0.2s1.2,0.3,1.8,0.5s1.1,0.5,1.6,0.8l-1.9,2.3c-0.5-0.3-1.1-0.5-1.7-0.7s-1.1-0.2-1.7-0.2
				c-0.6,0-1.2,0.1-1.5,0.2s-0.5,0.4-0.5,0.6s0.1,0.4,0.3,0.5s0.4,0.2,0.7,0.2s0.7,0.1,1.2,0.2c0.1,0,0.1,0,0.2,0s0.1,0,0.2,0h0.1
				h0.1c0.9,0.1,1.7,0.3,2.3,0.4s1.1,0.5,1.5,1s0.6,1.3,0.6,2.3c0,0.8-0.2,1.6-0.6,2.2s-1,1.1-1.8,1.4s-1.7,0.5-2.8,0.5
				C823.7,95.8,823.3,95.8,823.3,95.8z"/>
		</g>
	</g>
</g>
<g class="st3">
	<g class="st4">
		<g>
			<path class="st6" d="M662.6,70.6h3.9l6.3,13.1l-0.3,0.3V70.6h3.1v17h-3.9l-6.3-12.9l0.3-0.3v13.2h-3.1V70.6z"/>
			<path class="st6" d="M681.2,87.1c-0.8-0.4-1.4-1-1.8-1.8s-0.6-1.7-0.6-2.9v-2c0-1.1,0.2-2,0.6-2.8s1-1.4,1.8-1.8s1.7-0.6,2.8-0.6
				s2.1,0.2,2.8,0.6s1.4,1,1.8,1.8s0.6,1.7,0.6,2.8v2c0,1.1-0.2,2.1-0.6,2.8s-1,1.4-1.8,1.8s-1.7,0.6-2.8,0.6S682,87.6,681.2,87.1z
				 M685.6,84.1c0.4-0.4,0.5-0.9,0.5-1.6v-2c0-0.7-0.2-1.2-0.5-1.6s-0.9-0.6-1.5-0.6s-1.1,0.2-1.5,0.6s-0.5,0.9-0.5,1.6v2
				c0,0.7,0.2,1.2,0.5,1.6s0.9,0.6,1.5,0.6S685.2,84.5,685.6,84.1z"/>
			<path class="st6" d="M693.8,87.1c-0.6-0.4-1.1-1-1.4-1.8s-0.5-1.7-0.5-2.8v-1.9c0-1.1,0.2-2.1,0.5-2.9s0.8-1.4,1.4-1.8
				s1.3-0.6,2.2-0.6c0.6,0,1.2,0.2,1.8,0.6s1,0.9,1.3,1.6l-0.2,2.7c0-0.4-0.1-0.8-0.2-1.1s-0.3-0.5-0.6-0.7s-0.6-0.2-1-0.2
				c-0.6,0-1.1,0.2-1.4,0.6s-0.5,1-0.5,1.7v1.9c0,0.7,0.2,1.3,0.5,1.7s0.8,0.6,1.4,0.6c0.4,0,0.7-0.1,1-0.2s0.5-0.4,0.6-0.6
				s0.2-0.6,0.2-1l0.2,2.8c-0.3,0.7-0.6,1.2-1.1,1.5s-1.1,0.5-1.8,0.5C695.1,87.8,694.4,87.6,693.8,87.1z M698.8,70.6h3.2v17h-3.2
				V70.6z"/>
			<path class="st6" d="M708.7,87.8c0,0-0.4-0.2-1.2-0.6s-1.5-1-1.9-1.9s-0.7-1.8-0.7-2.9V81c0-1.2,0.2-2.2,0.6-3.1s1-1.5,1.8-1.9
				s1.8-0.7,2.9-0.7c1.1,0,2,0.3,2.7,0.8s1.3,1.3,1.7,2.3s0.6,2.2,0.6,3.7v0.8h-8.3v-2.2h5.4v-0.3c-0.1-0.7-0.3-1.2-0.7-1.6
				s-0.8-0.6-1.4-0.6c-0.8,0-1.4,0.2-1.8,0.7s-0.6,1.1-0.6,2v1.5c0,0.8,0.2,1.5,0.7,1.9s1.1,0.7,2,0.7c0.4,0,0.9-0.1,1.3-0.2
				s0.8-0.4,1.1-0.7L715,86c-0.6,0.6-1.3,1-2.1,1.3s-1.6,0.5-2.4,0.5C709.2,87.8,708.7,87.8,708.7,87.8z"/>
		</g>
	</g>
</g>
<g class="st3">
	<g class="st4">
		<path class="st6" d="M67.8,308.2H71v17.1h-3.2V308.2z M72,320c-0.5-0.4-0.9-0.9-1.1-1.5l0.2-2.8c0,0.4,0.1,0.7,0.2,1
			s0.3,0.5,0.6,0.6s0.6,0.2,1,0.2c0.6,0,1.1-0.2,1.4-0.6s0.5-1,0.5-1.7v-1.9c0-0.7-0.2-1.3-0.5-1.7s-0.8-0.6-1.4-0.6
			c-0.4,0-0.7,0.1-1,0.2s-0.5,0.4-0.6,0.7s-0.2,0.6-0.2,1.1l-0.2-2.7c0.3-0.7,0.8-1.3,1.3-1.6s1.1-0.6,1.8-0.6
			c0.9,0,1.6,0.2,2.2,0.6s1.1,1,1.4,1.8s0.5,1.8,0.5,2.9v1.9c0,1.1-0.2,2.1-0.5,2.8s-0.8,1.4-1.4,1.8s-1.3,0.6-2.2,0.6
			C73.2,320.6,72.5,320.4,72,320z"/>
		<path class="st6" d="M82.9,320c-0.8-0.4-1.4-1-1.8-1.8s-0.6-1.7-0.6-2.9v-2c0-1.1,0.2-2,0.6-2.8s1-1.4,1.8-1.8s1.7-0.6,2.8-0.6
			s2.1,0.2,2.8,0.6c0.7,0.4,1.4,1,1.8,1.8s0.6,1.7,0.6,2.8v2c0,1.1-0.2,2.1-0.6,2.8s-1,1.4-1.8,1.8s-1.7,0.6-2.8,0.6
			S83.7,320.4,82.9,320z M87.3,316.9c0.4-0.4,0.5-0.9,0.5-1.6v-2c0-0.7-0.2-1.2-0.5-1.6s-0.9-0.6-1.5-0.6s-1.1,0.2-1.5,0.6
			s-0.5,0.9-0.5,1.6v2c0,0.7,0.2,1.2,0.5,1.6s0.9,0.6,1.5,0.6S86.9,317.3,87.3,316.9z"/>
		<path class="st6" d="M97.5,320.6c0,0-0.3-0.1-1-0.2s-1.3-0.3-1.9-0.6s-1.1-0.6-1.6-0.9l2-2.5c0.6,0.4,1.2,0.7,1.8,0.9
			s1.3,0.3,1.8,0.3c0.8,0,1.3-0.1,1.7-0.3s0.6-0.4,0.6-0.7c0-0.3-0.1-0.5-0.3-0.6s-0.4-0.2-0.7-0.3s-0.7-0.1-1.2-0.2
			c-0.1,0-0.3,0-0.4,0s-0.3,0-0.4,0h-0.1h-0.1c-0.9-0.1-1.6-0.3-2.2-0.4s-1-0.5-1.4-1s-0.6-1.2-0.6-2.1c0-0.8,0.2-1.5,0.6-2.1
			s1-1,1.7-1.3s1.6-0.5,2.7-0.5c0.6,0,1.2,0.1,1.8,0.2s1.2,0.3,1.8,0.5s1.1,0.5,1.6,0.8l-1.9,2.3c-0.5-0.3-1.1-0.5-1.7-0.7
			S99,311,98.4,311s-1.2,0.1-1.5,0.2s-0.5,0.4-0.5,0.6s0.1,0.4,0.3,0.5s0.4,0.2,0.7,0.2s0.7,0.1,1.2,0.2c0.1,0,0.1,0,0.2,0
			s0.1,0,0.2,0h0.1h0.1c0.9,0.1,1.7,0.3,2.3,0.4s1.1,0.5,1.5,1s0.6,1.3,0.6,2.3c0,0.8-0.2,1.6-0.6,2.2s-1,1.1-1.8,1.4
			s-1.7,0.5-2.8,0.5C97.9,320.6,97.5,320.6,97.5,320.6z"/>
		<path class="st6" d="M105.5,308.2h6v2.7h-6V308.2z M107.5,319.7c-0.5-0.5-0.7-1.3-0.7-2.4v-12.5h3.2v11.7c0,0.3,0.1,0.5,0.2,0.7
			s0.3,0.2,0.5,0.2h0.8v3.1h-1.6C108.7,320.5,108,320.2,107.5,319.7z"/>
		<path class="st6" d="M115.8,320c-0.6-0.4-1.1-1-1.4-1.8s-0.5-1.7-0.5-2.8v-1.9c0-1.1,0.2-2.1,0.5-2.9s0.8-1.4,1.4-1.8
			s1.3-0.6,2.2-0.6c0.6,0,1.2,0.2,1.8,0.6s1,0.9,1.3,1.6l-0.2,2.7c0-0.4-0.1-0.8-0.2-1.1s-0.3-0.5-0.6-0.7s-0.6-0.2-1-0.2
			c-0.6,0-1.1,0.2-1.4,0.6s-0.5,1-0.5,1.7v1.9c0,0.7,0.2,1.3,0.5,1.7s0.8,0.6,1.4,0.6c0.4,0,0.7-0.1,1-0.2s0.5-0.4,0.6-0.6
			s0.2-0.6,0.2-1l0.2,2.8c-0.3,0.7-0.6,1.2-1.1,1.5s-1.1,0.5-1.8,0.5C117.1,320.6,116.4,320.4,115.8,320z M117.1,325.4
			c0,0-0.4-0.2-1.1-0.5s-1.4-0.8-1.8-1.4l2.2-2c0.3,0.3,0.6,0.5,1,0.7s0.8,0.2,1.2,0.2c0.7,0,1.2-0.2,1.6-0.6s0.6-0.9,0.6-1.5v-12
			h3.2v11.8c0,1.1-0.2,2.1-0.6,2.9s-1,1.4-1.9,1.8s-1.8,0.6-3,0.6C117.6,325.4,117.1,325.4,117.1,325.4z"/>
		<path class="st6" d="M127.2,308.2h3.4v12.2h-3.4C127.2,320.4,127.2,308.2,127.2,308.2z M133.4,311.3c-0.2-0.1-0.5-0.1-0.8-0.1
			c-0.6,0-1.2,0.2-1.5,0.6s-0.5,1-0.5,1.7l-0.2-3.2c0.3-0.7,0.8-1.3,1.3-1.7s1.1-0.6,1.8-0.6c0.5,0,1,0.1,1.4,0.2s0.8,0.4,1.1,0.7
			l-1.9,2.6C133.9,311.5,133.7,311.4,133.4,311.3z"/>
		<path class="st6" d="M140.9,320.6c0,0-0.4-0.2-1.2-0.6s-1.5-1-1.9-1.9s-0.7-1.8-0.7-2.9v-1.4c0-1.2,0.2-2.2,0.6-3.1s1-1.5,1.8-1.9
			s1.8-0.7,2.9-0.7c1.1,0,2,0.3,2.7,0.8s1.3,1.3,1.7,2.3s0.6,2.2,0.6,3.7v0.8h-8.3v-2.2h5.4v-0.3c-0.1-0.7-0.3-1.2-0.7-1.6
			s-0.8-0.6-1.4-0.6c-0.8,0-1.4,0.2-1.8,0.7s-0.6,1.1-0.6,2v1.5c0,0.8,0.2,1.5,0.7,1.9s1.1,0.7,2,0.7c0.4,0,0.9-0.1,1.3-0.2
			s0.8-0.4,1.1-0.7l2.1,1.9c-0.6,0.6-1.3,1-2.1,1.3s-1.6,0.5-2.4,0.5C141.5,320.6,140.9,320.6,140.9,320.6z"/>
		<path class="st6" d="M154.7,320.6c0,0-0.4-0.1-1.2-0.2s-1.5-0.4-2.2-0.7s-1.3-0.7-1.8-1.1l1.5-2.6c0.7,0.5,1.4,1,2.3,1.2
			s1.7,0.4,2.6,0.4c1,0,1.9-0.2,2.4-0.5s0.9-0.9,0.9-1.5l0,0c0-0.5-0.1-0.8-0.4-1.1s-0.6-0.5-1-0.6s-0.9-0.2-1.6-0.3c0,0,0,0-0.1,0
			s0,0-0.1,0h-0.3c-1.1-0.2-2.1-0.4-2.8-0.7s-1.4-0.7-1.9-1.4s-0.8-1.6-0.8-2.9l0,0c0-1.1,0.2-2,0.7-2.8s1.2-1.4,2.1-1.8
			s2.1-0.6,3.4-0.6c0.6,0,1.2,0.1,1.9,0.2s1.3,0.3,1.9,0.6s1.2,0.6,1.7,1l-1.4,2.7c-0.7-0.5-1.3-0.8-2.1-1.1s-1.4-0.4-2.1-0.4
			c-1,0-1.7,0.2-2.3,0.5s-0.8,0.8-0.8,1.4l0,0c0,0.5,0.1,0.9,0.4,1.2s0.6,0.5,1,0.6s1,0.3,1.7,0.4h0.1h0.1h0.1h0.1
			c1.1,0.2,2,0.5,2.7,0.8s1.3,0.8,1.8,1.5s0.7,1.6,0.7,2.7l0,0c0,1.1-0.3,2-0.8,2.8s-1.2,1.4-2.2,1.8s-2.1,0.6-3.5,0.6
			C155.1,320.6,154.7,320.6,154.7,320.6z"/>
		<path class="st6" d="M167.9,319.8c-0.9-0.5-1.7-1.3-2.2-2.2s-0.8-2-0.8-3.3v-4.8c0-1.3,0.3-2.3,0.8-3.3s1.2-1.7,2.2-2.2
			s2-0.8,3.3-0.8s2.3,0.3,3.3,0.8s1.7,1.3,2.2,2.2s0.8,2,0.8,3.3v4.8c0,1.3-0.3,2.3-0.8,3.3s-1.2,1.7-2.2,2.2s-2,0.8-3.3,0.8
			S168.8,320.3,167.9,319.8z M172.7,317c0.4-0.2,0.8-0.6,1-1s0.4-1,0.4-1.6v-5c0-0.6-0.1-1.1-0.4-1.6s-0.6-0.8-1-1s-0.9-0.4-1.5-0.4
			s-1.1,0.1-1.5,0.4s-0.8,0.6-1,1s-0.4,1-0.4,1.6v5c0,0.6,0.1,1.1,0.4,1.6s0.6,0.8,1,1s0.9,0.4,1.5,0.4S172.3,317.2,172.7,317z
			 M170.7,315.7l1.7-2.2l6.6,5l-1.7,2.2L170.7,315.7z"/>
		<path class="st6" d="M181.1,303.4h3.2v17h-3.2V303.4z M182.5,317.3h10v3.1h-10V317.3z"/>
	</g>
</g>
<g class="st3">
	<g class="st4">
		<path class="st6" d="M20.9,478h4.2v17h-2.9v-13.2l0.1,0.8L19,493.2h-2.8L13,482.8l0.1-1V495h-2.9v-17h4.2l3.2,11.5L20.9,478z"/>
		<path class="st6" d="M27.4,482.9h3l4.1,10.6l-2,2.6L27.4,482.9z M38.6,482.9l-5.4,15c-0.2,0.6-0.5,1-0.8,1.3s-0.7,0.6-1.1,0.7
			s-1,0.2-1.6,0.2H29V497h0.7c0.3,0,0.6-0.1,0.9-0.2s0.4-0.4,0.5-0.7l4.5-13.1L38.6,482.9L38.6,482.9z"/>
		<path class="st6" d="M44.6,495.2c0,0-0.4-0.1-1.2-0.2s-1.5-0.4-2.2-0.7s-1.3-0.7-1.8-1.1l1.5-2.6c0.7,0.5,1.4,1,2.3,1.2
			s1.7,0.4,2.6,0.4c1,0,1.9-0.2,2.4-0.5s0.9-0.9,0.9-1.5l0,0c0-0.5-0.1-0.8-0.4-1.1s-0.6-0.5-1-0.6s-0.9-0.2-1.6-0.3c0,0,0,0-0.1,0
			s0,0-0.1,0h-0.3c-1.1-0.2-2.1-0.4-2.8-0.7s-1.4-0.7-1.9-1.4s-0.8-1.6-0.8-2.9l0,0c0-1.1,0.2-2,0.7-2.8s1.2-1.4,2.1-1.8
			s2.1-0.6,3.4-0.6c0.6,0,1.2,0.1,1.9,0.2s1.3,0.3,1.9,0.6s1.2,0.6,1.7,1l-1.4,2.7c-0.7-0.5-1.3-0.8-2.1-1.1s-1.4-0.4-2.1-0.4
			c-1,0-1.7,0.2-2.3,0.5s-0.8,0.8-0.8,1.4l0,0c0,0.5,0.1,0.9,0.4,1.2s0.6,0.5,1,0.6s1,0.3,1.7,0.4h0.1h0.1h0.1h0.1
			c1.1,0.2,2,0.5,2.7,0.8s1.3,0.8,1.8,1.5s0.7,1.6,0.7,2.7l0,0c0,1.1-0.3,2-0.8,2.8s-1.2,1.4-2.2,1.8s-2.1,0.6-3.5,0.6
			C45,495.2,44.6,495.2,44.6,495.2z"/>
		<path class="st6" d="M57.9,494.4c-0.9-0.5-1.7-1.3-2.2-2.2s-0.8-2-0.8-3.3v-4.8c0-1.3,0.3-2.3,0.8-3.3s1.2-1.7,2.2-2.2
			s2-0.8,3.3-0.8s2.3,0.3,3.3,0.8s1.7,1.3,2.2,2.2s0.8,2,0.8,3.3v4.8c0,1.3-0.3,2.3-0.8,3.3s-1.2,1.7-2.2,2.2s-2,0.8-3.3,0.8
			S58.8,494.9,57.9,494.4z M62.7,491.6c0.4-0.2,0.8-0.6,1-1s0.4-1,0.4-1.6v-5c0-0.6-0.1-1.1-0.4-1.6s-0.6-0.8-1-1s-0.9-0.4-1.5-0.4
			s-1.1,0.1-1.5,0.4s-0.8,0.6-1,1s-0.4,1-0.4,1.6v5c0,0.6,0.1,1.1,0.4,1.6s0.6,0.8,1,1s0.9,0.4,1.5,0.4S62.2,491.9,62.7,491.6z
			 M60.7,490.3l1.7-2.2l6.6,5l-1.7,2.2L60.7,490.3z"/>
		<path class="st6" d="M71.1,478h3.2v17h-3.2V478z M72.5,491.9h10v3.1h-10V491.9z"/>
	</g>
</g>
<g class="st3">
	<path class="st7" d="M311.2,201.4"/>
</g>
</svg>
