<?xml version="1.0" encoding="utf-8"?>
<!-- Generator: Adobe Illustrator 23.0.1, SVG Export Plug-In . SVG Version: 6.00 Build 0)  -->
<svg version="1.1" id="Layer_1" xmlns="http://www.w3.org/2000/svg" xmlns:xlink="http://www.w3.org/1999/xlink" x="0px" y="0px"
	 viewBox="0 0 999.9 965.4" style="enable-background:new 0 0 999.9 965.4;" xml:space="preserve">
<style type="text/css">
	.st0{fill-rule:evenodd;clip-rule:evenodd;fill:#9BC53D;stroke:#9BC53D;stroke-width:4;stroke-miterlimit:10;}
	.st1{fill-rule:evenodd;clip-rule:evenodd;fill:#E3E3E3;}
	.st2{fill-rule:evenodd;clip-rule:evenodd;fill:#478FB3;stroke:#478FB3;stroke-width:4;stroke-miterlimit:10;}
	.st3{fill-rule:evenodd;clip-rule:evenodd;fill:#0076B2;stroke:#0076B2;stroke-width:4;stroke-miterlimit:10;}
	.st4{fill:#0076B2;}
	.st5{fill:#478FB3;}
</style>
<g>
	<path class="st0" d="M334.2,238.6"/>
</g>
<path class="st1" d="M535.5,928.8c-58.4-1.1-39.8,13-39.9-26.5c0-10.7,0-21.3,0.2-31.8c1.6-89.2,0.8-170.7,0.7-197.7
	c0-0.1-5.4-34.1-43.5-43.7c-69.6-17.8-128.9,30-193,25c-55.3-4.5-99.4-22.7-125.7-36.5c2.9,1.5-5.8-6.2,1.7-3.2
	c26.1,10.5,67,23.6,110.7,24c43.6,0.4,89.5-24.5,128.7-29.9c71.7-10,124.7-4.8,125.2-4.8c-0.5-0.1-19.5-29.1-78.1-47.9
	c-75-24.2-194.8-39.8-210.3-44.8c-18.5-6-21.3-12.6-43.5-14.9c-24-2.6-62.4-2.6-79-2.9c-13.4-0.3,9.8-8.8,1.1-7.2
	c39.8-7.3,74.1-4.6,74-4.6c0.2,0-10.3-4.5-16.3-27.2c-1.9-7.3-3.3-16.4-3.8-27.8c0-3.3-0.1-6.4-0.1-9.3c0,1.3,2.3-10.7,5.8,0.7
	c6.1,20.1,10.6,43.7,40.4,67c20.5,14.9,70.6,23.6,109,29.5c38.8,6,74.7,9.7,95.7,16.2c82.3,26,108.2,42.1,109.1,42.2
	c-1.4-0.1-35.8-68.9-94.3-132.9c-36.9-38.3-54.4-47.5-77.8-69c-1.8-1.7-7.6-6.5-14.7-12.4c-4-3.3-17.2-12.6-34.6-20
	c-17.6-7.6-39.3-13.3-53.5-18.2c-9.9-3.4-16.6-9-25.1-13.1c-16.3-8-8.4-6-8.4-6s-8-5.2,8.4,0c10.3,3.3,20,8.3,31,10.7
	c20.4,4.5,38.8,3.3,37.9,2.1c-0.9-1.3-1.7-2.5-2.5-3.6c-9.7-14.1-16.3-22.9-32.6-46.8c-14.7-23-29.6-39.6-42-51.1
	c-9.5-8.9,9.3-5.6,5.9-7.8c13.5,8.6,29.1,22,44,43c42.7,58.9,48.5,71.1,49.3,71c0,0,0.2-0.8,0.7-2.4c0.8-2.6-7.1-19-5-43.7
	c1.6-18.9,26.4-38.3,29-40.1c7.7-5.4-13.4,21-14.8,27.5c-4.8,22.9-0.8,53.9,9.9,68.8c23.1,31.4,72.1,56.2,97.8,85.7
	c55.4,63.6,101.6,129.3,103.1,129.3c0,0,3.3-70.1,2.3-137.4c-0.7-38-13.2-88.3-23.4-119.4c-13.9-41.8-22.2-43.7-50.1-76.4
	c-5-6.1-27.7-29.9-44.5-51.4c-2.2-2.8-1-11.7,5.2-5.6c5,5,9.9,10,13.5,14.1c27.8,30.5,58,66.2,64.3,66.3c0.1,0-10.7-39.7-10.9-71.7
	c-0.2-27.6,10-48.3,11.5-48.3c0.3,0-1.1,23.4-0.7,39.2s2.4,24.2,2.5,24.7c5,30.2,12.6,61.2,19.8,87.4c10.2,37.2,19.7,64.3,19.7,64.3
	s1.6-30.1,6.3-57.5c3.6-21.5,14.7-39.8,15.7-42.5c4.4-11.4,16.7-24.1,23.9-39.3c13.6-28.7,18.4-60.2,17.7-52.8
	c-0.2,1.9-0.5,25.2-9,48.9c-11.1,30.9-31.2,64.4-32.6,72c-7.6,41.7-9.5,73.2-9.5,73.2s13.5-31.8,32.3-56.8
	c9.9-13.1,28-30.6,42.5-43.3c6.8-6,13.7-13,20-19.8c4-4.3,14.3-8.2,6.6,3c-0.9,1.3-1.8,2.5-2.7,3.8c-2.5,3.5-5.3,7-8.3,10.5
	c-14.3,16.6-32,30.8-48.7,51.1c-14.4,17.6-24.6,44.6-31.1,66.2c-23.5,74.3-6.7,203.6-5.5,203.8c0.1,0,1.9-3.3,5.3-8.9
	c11.3-18.6,39.5-63.2,74.5-100.6c24.4-26.4,78-51.9,107.4-79.1c22.2-20.5,24-43.7,26.3-59.3c1.2-9.4,2.3-35,7.7-53.4
	c3.5-11.9,9.7-20.7,10.9-24.9c0.6-2.2,5.2-8.7,3.6,0.5c-1.2,7.1-5.9,16.3-8.6,29c-2.3,10.9-1.9,39.7-2.3,48.5
	c-1.8,38.5-2.1,31.5-2.1,31.5c0.1,0,12.4-5.2,27.5-46.5c7.6-21.4,10.3-41.1,20.1-63.2c3.6-8.1,20.3-32.5,23.6-38.7
	c2.3-4.3,0,0-7.2,16.9c-4.5,10.4-11.5,29.9-15.2,42.9c-6.1,21.7-3.9,26-8.7,45.4c-7.7,30.7-11.3,37.2-11.3,37.2
	c-0.2,0,19.3-45.2,47.2-58.7c7.3-3.6,31.7-13.2,46.2-25.8c12.4-10.8,8-9.9,10-11.9c1-0.9,5.7-0.3-6.9,13.3
	c-14.9,16-48.2,33.7-56.6,41.2c-20.8,18.7-23.6,34.4-23.6,34.3c0.1,0,5.2-0.6,35,4.2c26.6,4.3,32,15,46.8,13
	c-26.2,3.4-43.8-4.5-63.1-4.5c-11.4,0-20.4,9.2-22.4,9.8c0,0,14.6,7.7,24.7,19.6c12,14.2,19.6,33.2,18.1,37.1
	c-1.2,3.3-17.1-26.9-36.1-33.1c-15.9-5.2-36.6-0.6-49,4.6c-9.6,4-20.5,12.2-33.1,19c-39.1,21.1-87.7,52.3-104.2,73.3
	c-34.7,44.2-63.2,100.6-63.4,100.7c0.6,0,48-28.1,102.5-31.7c37.5-2.5,96.5,34.4,149.4,37.1c40.6,2.1,78.2-4.1,105.2-10.7
	c6.4-1.6,16.1,2.3,1.2,9.3c-9.1,4.3-19.1,8.5-29.2,11.9c-29.5,9.9-62.7,10-62.7,10c-0.1,0,43.5,27,100.6,32.3
	c8.9,0.8,17.1,1.3,24.5,1.6c-12.6-0.5,16.1,6.3-0.6,7.7c-7.4,0.6-15.7,1.2-24.8,1.8c-84.2,5.4-191.2-64.5-248.3-67.4
	c-47.8-2.3-86.3,22.4-107.4,40.6c-0.7,0.6-1.3,1.2-2,1.7c-2,1.8-3.8,3.5-5.4,5.1c1.5-1.5-2.8,3.4-5.1,8.3c-1.1,2.3-2.1,4.9-3,7.8
	c-12.5,40-9,135.3-2.3,235.1c0.8,11.8,1.6,23.6,2.5,35.4C562.6,939,570.5,929.5,535.5,928.8z"/>
<circle class="st2" cx="147.5" cy="416.4" r="12.5"/>
<circle class="st2" cx="86.1" cy="489.8" r="12.5"/>
<circle class="st3" cx="135" cy="616.7" r="12.5"/>
<circle class="st2" cx="195.4" cy="299.2" r="12.5"/>
<circle class="st2" cx="199.5" cy="206.8" r="12.5"/>
<circle class="st2" cx="316.3" cy="236.9" r="12.5"/>
<circle class="st2" cx="401.5" cy="153.2" r="12.5"/>
<circle class="st2" cx="484.1" cy="117.7" r="12.5"/>
<circle class="st2" cx="586.6" cy="144.7" r="12.5"/>
<circle class="st2" cx="640.6" cy="206.8" r="12.5"/>
<circle class="st2" cx="772.6" cy="226.7" r="12.5"/>
<circle class="st2" cx="830" cy="198.5" r="12.5"/>
<circle class="st2" cx="890.9" cy="243.6" r="12.5"/>
<circle class="st2" cx="885.6" cy="337.7" r="12.5"/>
<circle class="st2" cx="848.6" cy="393.4" r="12.5"/>
<circle class="st3" cx="925.8" cy="560.5" r="12.5"/>
<circle class="st3" cx="955" cy="627.1" r="12.5"/>
<circle class="st3" cx="775.9" cy="339.7" r="27.5"/>
<circle class="st3" cx="527.9" cy="343.8" r="22.2"/>
<circle class="st3" cx="290.7" cy="323.9" r="22.2"/>
<circle class="st3" cx="173.2" cy="485.9" r="22.2"/>
<g>
	<g>
		<path class="st4" d="M744,423.6c-2.2-1.1-3.9-2.6-5.1-4.6l7-5.1c0.7,1,1.6,1.7,2.7,2.2c1,0.5,2.1,0.8,3.3,0.8
			c1.6,0,2.9-0.6,3.8-1.7c0.9-1.2,1.3-2.8,1.3-4.9v-30.8h8.8v30.9c0,3.1-0.6,5.8-1.7,8c-1.1,2.2-2.8,3.9-4.9,5.1
			c-2.2,1.2-4.8,1.7-7.8,1.7C748.7,425.2,746.2,424.7,744,423.6z"/>
		<path class="st4" d="M786.8,425.2c0,0-1-0.2-3.1-0.7c-2.1-0.4-4-1.1-5.8-1.9s-3.4-1.9-4.9-3l4-7c1.7,1.4,3.8,2.5,6,3.3
			c2.3,0.8,4.6,1.2,7,1.2c2.8,0,4.9-0.5,6.5-1.4c1.5-0.9,2.3-2.3,2.3-4l0,0c0-1.2-0.3-2.2-1-2.9c-0.7-0.7-1.6-1.2-2.7-1.6
			c-1.1-0.3-2.5-0.6-4.2-0.9c-0.1,0-0.1,0-0.2,0s-0.1,0-0.2,0l-0.7-0.1c-3-0.5-5.5-1.1-7.5-1.8c-2-0.7-3.7-2-5.1-3.8
			c-1.4-1.8-2.1-4.3-2.1-7.6l0,0c0-2.9,0.7-5.4,2-7.5s3.2-3.7,5.7-4.7c2.5-1.1,5.5-1.6,9-1.6c1.6,0,3.3,0.2,5,0.6s3.3,0.9,5,1.6
			c1.6,0.7,3.2,1.6,4.6,2.6l-3.6,7.2c-1.7-1.2-3.6-2.1-5.5-2.8c-1.9-0.7-3.7-1-5.5-1c-2.6,0-4.6,0.4-6.1,1.3
			c-1.4,0.9-2.1,2.1-2.1,3.6l0,0c0,1.3,0.4,2.3,1.1,3.1s1.7,1.3,2.8,1.7c1.1,0.4,2.6,0.7,4.6,1.1c0.1,0,0.2,0,0.2,0
			c0.1,0,0.2,0,0.2,0c0.1,0,0.2,0,0.4,0.1s0.2,0.1,0.4,0.1c2.9,0.6,5.3,1.2,7.2,2s3.5,2.1,4.8,3.9s1.9,4.2,1.9,7.3v0.1
			c0,2.9-0.7,5.4-2,7.4s-3.3,3.6-5.9,4.7c-2.6,1.1-5.7,1.6-9.3,1.6C787.9,425.2,786.8,425.2,786.8,425.2z"/>
	</g>
</g>
<g>
	<g>
		<path class="st4" d="M559,325.4h6.7v35.4H559V325.4z M562,340.6h11.3c0.8,0,1.5-0.2,2.1-0.5c0.6-0.4,1.1-0.9,1.4-1.5
			c0.3-0.7,0.5-1.4,0.5-2.3s-0.2-1.6-0.5-2.3c-0.3-0.7-0.8-1.2-1.4-1.6c-0.6-0.4-1.3-0.5-2.1-0.5H562v-6.4h11.1
			c2.2,0,4.1,0.4,5.8,1.4c1.7,0.9,3,2.2,3.9,3.8c0.9,1.6,1.4,3.5,1.4,5.7s-0.5,4-1.4,5.7c-0.9,1.6-2.2,2.9-3.9,3.8s-3.6,1.3-5.8,1.3
			H562V340.6z"/>
		<path class="st4" d="M586.9,335.5h6.3l8.5,21.9l-4.2,5.4L586.9,335.5z M610.2,335.5L599,366.7c-0.4,1.2-0.9,2.1-1.6,2.7
			s-1.4,1.2-2.3,1.4c-0.9,0.3-2,0.4-3.4,0.4h-1.5v-6.5h1.5c0.7,0,1.3-0.2,1.8-0.5s0.8-0.8,1.1-1.5l9.4-27.3L610.2,335.5L610.2,335.5
			z"/>
		<path class="st4" d="M611.6,335.5H624v5.7h-12.4V335.5z M615.8,359.2c-1-1.1-1.5-2.8-1.5-5v-26h6.7v24.4c0,0.6,0.1,1.1,0.4,1.4
			c0.2,0.3,0.6,0.5,1.1,0.5h1.7v6.4h-3.4C618.4,360.9,616.8,360.3,615.8,359.2z"/>
		<path class="st4" d="M629.8,325.4h6.7v35.4h-6.7V325.4z M644.4,345.5c0-1.2-0.4-2.2-1.1-2.9s-1.7-1-3-1c-1.2,0-2.2,0.3-2.9,1
			s-1,1.7-1,2.9l-0.5-5.6c0.8-1.6,1.7-2.8,2.7-3.6c1.1-0.8,2.4-1.2,4-1.2c2.7,0,4.7,0.9,6.2,2.7c1.5,1.8,2.2,4.3,2.2,7.6v15.3h-6.7
			L644.4,345.5L644.4,345.5z"/>
		<path class="st4" d="M661.9,359.9c-1.6-0.9-2.9-2.1-3.7-3.8c-0.9-1.6-1.3-3.6-1.3-5.9V346c0-2.3,0.4-4.2,1.3-5.9
			c0.9-1.6,2.1-2.9,3.7-3.7c1.6-0.9,3.6-1.3,5.9-1.3s4.3,0.4,5.9,1.3c1.6,0.9,2.9,2.1,3.7,3.7c0.9,1.6,1.3,3.6,1.3,5.9v4.2
			c0,2.3-0.4,4.3-1.3,5.9c-0.9,1.6-2.1,2.9-3.7,3.7c-1.6,0.9-3.6,1.3-5.9,1.3S663.6,360.7,661.9,359.9z M671,353.5
			c0.7-0.8,1.1-1.9,1.1-3.3V346c0-1.4-0.4-2.5-1.1-3.3c-0.7-0.8-1.8-1.2-3.1-1.2s-2.4,0.4-3.1,1.2c-0.7,0.8-1.1,1.9-1.1,3.3v4.2
			c0,1.4,0.4,2.5,1.1,3.3c0.7,0.8,1.8,1.2,3.1,1.2S670.2,354.3,671,353.5z"/>
		<path class="st4" d="M684.8,335.5h6.7v25.2h-6.7V335.5z M699.4,345.5c0-1.2-0.4-2.2-1.1-2.9s-1.7-1-3-1c-1.2,0-2.2,0.3-2.9,1
			s-1,1.7-1,2.9l-0.5-5.6c0.8-1.6,1.7-2.8,2.7-3.6c1.1-0.8,2.4-1.2,4-1.2c2.7,0,4.7,0.9,6.2,2.7c1.5,1.8,2.2,4.3,2.2,7.6v15.3h-6.7
			L699.4,345.5L699.4,345.5z"/>
	</g>
</g>
<g>
	<g>
		<g>
			<path class="st4" d="M330.8,331.7c-2.2-1.1-3.9-2.6-5.1-4.6l7-5.1c0.7,1,1.6,1.7,2.7,2.2c1,0.5,2.1,0.8,3.3,0.8
				c1.6,0,2.9-0.6,3.8-1.7c0.9-1.2,1.3-2.8,1.3-4.9v-30.8h8.8v30.9c0,3.1-0.6,5.8-1.7,8s-2.8,3.9-4.9,5.1c-2.2,1.2-4.8,1.7-7.8,1.7
				C335.4,333.3,333,332.8,330.8,331.7z"/>
			<path class="st4" d="M363,330.9c-1.7-1.6-2.6-4.2-2.6-7.5c0-3.2,1-5.6,2.9-7.2s4.8-2.4,8.6-2.4h8.1l0.4,6.5H372
				c-1.3,0-2.3,0.3-2.9,0.8s-1,1.3-1,2.3c0,1.1,0.4,1.8,1.2,2.3c0.8,0.5,2,0.8,3.7,0.8c2.3,0,4-0.3,5.1-0.8s1.7-1.3,1.7-2.4l0.7,4.7
				c-0.1,1.2-0.7,2.1-1.6,3s-2.1,1.4-3.5,1.8s-2.9,0.6-4.5,0.6C367.3,333.3,364.7,332.5,363,330.9z M379.8,312.4
				c0-1.5-0.5-2.6-1.5-3.5c-1-0.8-2.4-1.2-4.2-1.2c-1.2,0-2.4,0.2-3.6,0.6s-2.2,0.9-3.1,1.6l-5.3-5.2c1.3-1.5,3-2.6,5.1-3.4
				s4.5-1.2,7-1.2c2.8,0,5.2,0.5,7.2,1.4s3.5,2.3,4.6,4.1c1,1.8,1.6,4,1.6,6.5v20.8h-7.7v-20.5L379.8,312.4L379.8,312.4z"/>
			<path class="st4" d="M414.3,300.6h8.5l-12.1,32.3h-6l-12.1-32.3h8.5l6.7,20.3L414.3,300.6z"/>
			<path class="st4" d="M428.8,330.9c-1.7-1.6-2.6-4.2-2.6-7.5c0-3.2,1-5.6,2.9-7.2s4.8-2.4,8.6-2.4h8.1l0.4,6.5h-8.5
				c-1.3,0-2.3,0.3-2.9,0.8s-1,1.3-1,2.3c0,1.1,0.4,1.8,1.2,2.3c0.8,0.5,2,0.8,3.7,0.8c2.3,0,4-0.3,5.1-0.8s1.7-1.3,1.7-2.4l0.7,4.7
				c-0.1,1.2-0.7,2.1-1.6,3s-2.1,1.4-3.5,1.8s-2.9,0.6-4.5,0.6C433.1,333.3,430.5,332.5,428.8,330.9z M445.5,312.4
				c0-1.5-0.5-2.6-1.5-3.5c-1-0.8-2.4-1.2-4.2-1.2c-1.2,0-2.4,0.2-3.6,0.6s-2.2,0.9-3.1,1.6l-5.3-5.2c1.3-1.5,3-2.6,5.1-3.4
				s4.5-1.2,7-1.2c2.8,0,5.2,0.5,7.2,1.4s3.5,2.3,4.6,4.1c1,1.8,1.6,4,1.6,6.5v20.8h-7.7v-20.5L445.5,312.4L445.5,312.4z"/>
		</g>
	</g>
</g>
<g>
	<g>
		<path class="st4" d="M217.4,485.3c0,0-0.8-0.2-2.3-0.5s-3-0.8-4.3-1.4s-2.5-1.4-3.6-2.2l2.9-5.2c1.3,1.1,2.8,1.9,4.5,2.4
			c1.7,0.6,3.4,0.9,5.2,0.9c2,0,3.6-0.3,4.8-1c1.1-0.7,1.7-1.7,1.7-2.9l0,0c0-0.9-0.3-1.6-0.8-2.1s-1.2-0.9-2-1.1s-1.9-0.5-3.1-0.7
			h-0.1h-0.1l-0.5-0.1c-2.2-0.4-4.1-0.8-5.6-1.3s-2.7-1.5-3.7-2.8s-1.5-3.2-1.5-5.6l0,0c0-2.2,0.5-4,1.4-5.5c1-1.5,2.4-2.7,4.2-3.5
			s4.1-1.2,6.7-1.2c1.2,0,2.4,0.1,3.7,0.4c1.2,0.3,2.5,0.7,3.7,1.2s2.3,1.1,3.4,1.9l-2.7,5.3c-1.3-0.9-2.6-1.6-4-2.1s-2.7-0.7-4-0.7
			c-1.9,0-3.4,0.3-4.5,1c-1.1,0.6-1.6,1.5-1.6,2.7l0,0c0,1,0.3,1.7,0.8,2.3c0.6,0.6,1.2,1,2,1.2c0.8,0.3,1.9,0.5,3.4,0.8
			c0.1,0,0.1,0,0.2,0c0.1,0,0.1,0,0.2,0c0.1,0,0.2,0,0.3,0.1s0.2,0,0.3,0.1c2.1,0.4,3.9,0.9,5.3,1.5c1.4,0.6,2.6,1.5,3.5,2.8
			s1.4,3.1,1.4,5.4l0,0c0,2.1-0.5,3.9-1.5,5.5s-2.4,2.7-4.3,3.5s-4.2,1.2-6.9,1.2C218.2,485.3,217.4,485.3,217.4,485.3z"/>
		<path class="st4" d="M243.3,483.7c-1.8-1-3.3-2.5-4.3-4.3c-1-1.9-1.5-4-1.5-6.5v-9.5c0-2.4,0.5-4.6,1.5-6.5s2.4-3.3,4.3-4.3
			c1.8-1,4-1.5,6.4-1.5s4.5,0.5,6.4,1.5c1.8,1,3.3,2.5,4.3,4.3s1.5,4,1.5,6.5v9.5c0,2.4-0.5,4.6-1.5,6.5s-2.4,3.3-4.3,4.3
			c-1.8,1-4,1.5-6.4,1.5C247.3,485.3,245.1,484.8,243.3,483.7z M252.7,478.3c0.9-0.5,1.5-1.2,2-2.1s0.7-1.9,0.7-3.1v-9.8
			c0-1.2-0.2-2.2-0.7-3.1s-1.1-1.6-2-2.1s-1.9-0.7-3-0.7s-2.1,0.2-3,0.7s-1.5,1.2-2,2.1s-0.7,1.9-0.7,3.1v9.8c0,1.2,0.2,2.2,0.7,3.1
			s1.1,1.6,2,2.1s1.9,0.7,3,0.7S251.8,478.7,252.7,478.3z M248.7,475.7l3.3-4.2l12.9,9.8l-3.3,4.3L248.7,475.7z"/>
		<path class="st4" d="M269.1,451.6h6.3V485h-6.3V451.6z M271.9,478.9h19.5v6.1h-19.5V478.9z"/>
	</g>
</g>
<g>
	<g>
		<path class="st4" d="M144.2,601.1c0,0-0.9-0.5-2.7-1.5s-3.2-2.4-4.1-4.2c-0.9-1.9-1.4-4.1-1.4-6.7v-9.2c0-2.6,0.5-4.9,1.4-6.7
			c0.9-1.9,2.3-3.3,4.1-4.3s4-1.5,6.5-1.5c2.1,0,4,0.5,5.6,1.4c1.7,0.9,3,2.2,4.1,3.9s1.8,3.8,2.2,6.2h-6.5c-0.2-1.1-0.6-2-1.1-2.8
			s-1.1-1.4-1.9-1.8c-0.7-0.4-1.5-0.6-2.4-0.6c-1.2,0-2.2,0.2-3,0.7s-1.5,1.2-1.9,2.1c-0.4,0.9-0.7,2-0.7,3.3v9.2
			c0,1.3,0.2,2.4,0.7,3.3c0.4,0.9,1.1,1.6,1.9,2.1c0.8,0.5,1.8,0.7,3,0.7c0.9,0,1.7-0.2,2.5-0.6c0.7-0.4,1.4-1,1.9-1.8
			s0.9-1.7,1.1-2.8h6.5c-0.4,2.4-1.2,4.5-2.3,6.2s-2.4,3-4.1,3.9c-1.6,0.9-3.5,1.4-5.6,1.4C145.5,601.1,144.2,601.1,144.2,601.1z"/>
		<path class="st4" d="M184.3,582.5v5.8h-19.5v-5.8H184.3z M177.6,594.7h-6.1v-18.6h6.1V594.7z"/>
		<path class="st4" d="M209.2,582.5v5.8h-19.5v-5.8H209.2z M202.4,594.7h-6.1v-18.6h6.1V594.7z"/>
	</g>
</g>
<g>
	<g>
		<path class="st4" d="M907.4,540.2c0,0-0.5-0.2-1.4-0.7s-1.6-1.2-2.1-2.2s-0.7-2.1-0.7-3.4v-4.7c0-1.3,0.2-2.5,0.7-3.4
			s1.2-1.7,2.1-2.2s2-0.8,3.3-0.8c1.1,0,2,0.2,2.9,0.7s1.5,1.1,2.1,2s0.9,1.9,1.1,3.2h-3.3c-0.1-0.6-0.3-1-0.6-1.4s-0.6-0.7-0.9-0.9
			s-0.8-0.3-1.2-0.3c-0.6,0-1.1,0.1-1.5,0.4s-0.7,0.6-1,1.1s-0.3,1-0.3,1.7v4.7c0,0.7,0.1,1.2,0.3,1.7s0.5,0.8,1,1.1
			s0.9,0.4,1.5,0.4c0.5,0,0.9-0.1,1.3-0.3s0.7-0.5,0.9-0.9s0.4-0.9,0.6-1.5h3.3c-0.2,1.2-0.6,2.3-1.2,3.2s-1.2,1.5-2.1,2
			s-1.8,0.7-2.9,0.7C908,540.2,907.4,540.2,907.4,540.2z"/>
		<path class="st4" d="M922.5,540.2c0,0-0.4-0.1-1.2-0.2s-1.5-0.4-2.2-0.7s-1.3-0.7-1.8-1.1l1.5-2.6c0.7,0.5,1.4,1,2.3,1.2
			s1.7,0.4,2.6,0.4c1,0,1.9-0.2,2.4-0.5s0.9-0.9,0.9-1.5l0,0c0-0.5-0.1-0.8-0.4-1.1s-0.6-0.5-1-0.6s-0.9-0.2-1.6-0.3c0,0,0,0-0.1,0
			s0,0-0.1,0h-0.3c-1.1-0.2-2.1-0.4-2.8-0.7s-1.4-0.7-1.9-1.4s-0.8-1.6-0.8-2.9l0,0c0-1.1,0.2-2,0.7-2.8s1.2-1.4,2.1-1.8
			s2.1-0.6,3.4-0.6c0.6,0,1.2,0.1,1.9,0.2s1.3,0.3,1.9,0.6s1.2,0.6,1.7,1l-1.4,2.7c-0.7-0.5-1.3-0.8-2.1-1.1s-1.4-0.4-2.1-0.4
			c-1,0-1.7,0.2-2.3,0.5s-0.8,0.8-0.8,1.4l0,0c0,0.5,0.1,0.9,0.4,1.2s0.6,0.5,1,0.6s1,0.3,1.7,0.4h0.1h0.1h0.1h0.1
			c1.1,0.2,2,0.5,2.7,0.8s1.3,0.8,1.8,1.5s0.7,1.6,0.7,2.7l0,0c0,1.1-0.3,2-0.8,2.8s-1.2,1.4-2.2,1.8s-2.1,0.6-3.5,0.6
			C922.9,540.2,922.5,540.2,922.5,540.2z"/>
		<path class="st4" d="M937.2,540.2c0,0-0.4-0.1-1.2-0.2s-1.5-0.4-2.2-0.7s-1.3-0.7-1.8-1.1l1.5-2.6c0.7,0.5,1.4,1,2.3,1.2
			s1.7,0.4,2.6,0.4c1,0,1.9-0.2,2.4-0.5s0.9-0.9,0.9-1.5l0,0c0-0.5-0.1-0.8-0.4-1.1s-0.6-0.5-1-0.6s-0.9-0.2-1.6-0.3c0,0,0,0-0.1,0
			s0,0-0.1,0h-0.3c-1.1-0.2-2.1-0.4-2.8-0.7s-1.4-0.7-1.9-1.4s-0.8-1.6-0.8-2.9l0,0c0-1.1,0.2-2,0.7-2.8s1.2-1.4,2.1-1.8
			s2.1-0.6,3.4-0.6c0.6,0,1.2,0.1,1.9,0.2s1.3,0.3,1.9,0.6s1.2,0.6,1.7,1l-1.4,2.7c-0.7-0.5-1.3-0.8-2.1-1.1s-1.4-0.4-2.1-0.4
			c-1,0-1.7,0.2-2.3,0.5s-0.8,0.8-0.8,1.4l0,0c0,0.5,0.1,0.9,0.4,1.2s0.6,0.5,1,0.6s1,0.3,1.7,0.4h0.1h0.1h0.1h0.1
			c1.1,0.2,2,0.5,2.7,0.8s1.3,0.8,1.8,1.5s0.7,1.6,0.7,2.7l0,0c0,1.1-0.3,2-0.8,2.8s-1.2,1.4-2.2,1.8s-2.1,0.6-3.5,0.6
			C937.7,540.2,937.2,540.2,937.2,540.2z"/>
	</g>
</g>
<g>
	<g>
		<path class="st4" d="M923.6,590.2h3.2v17h-3.2V590.2z M925.1,597.3h9.9v3.1h-9.9V597.3z M932.9,590.2h3.2v17h-3.2V590.2z"/>
		<path class="st4" d="M937.5,590.2H950v3.1h-12.5V590.2z M942.2,591.6h3.2v15.6h-3.2V591.6z"/>
		<path class="st4" d="M962.1,590.2h4.2v17h-2.9V594l0.1,0.8l-3.3,10.6h-2.8l-3.3-10.3l0.1-1v13.2h-2.9v-17h4.2l3.2,11.5
			L962.1,590.2z"/>
		<path class="st4" d="M970.1,590.2h3.2v17h-3.2V590.2z M971.6,604.2h10v3.1h-10V604.2z"/>
	</g>
</g>
<g>
	<g>
		<path class="st5" d="M158.4,263.8h4.2v17h-2.9v-13.2l0.1,0.8l-3.3,10.6h-2.8l-3.3-10.3l0.1-1v13.2h-2.9v-17h4.2l3.2,11.5
			L158.4,263.8z"/>
		<path class="st5" d="M166.6,280c-0.6-0.6-1-1.6-1-2.8c0-1.2,0.4-2.1,1.1-2.7s1.8-0.9,3.3-0.9h3l0.2,2.4H170
			c-0.5,0-0.8,0.1-1.1,0.3s-0.4,0.5-0.4,0.9s0.2,0.7,0.5,0.9s0.8,0.3,1.4,0.3c0.9,0,1.5-0.1,1.9-0.3s0.6-0.5,0.6-0.9l0.2,1.8
			c0,0.4-0.2,0.8-0.6,1.1s-0.8,0.5-1.3,0.7s-1.1,0.2-1.7,0.2C168.2,281,167.2,280.7,166.6,280z M172.9,273.1c0-0.6-0.2-1-0.6-1.3
			s-0.9-0.5-1.6-0.5c-0.5,0-0.9,0.1-1.3,0.2s-0.8,0.4-1.2,0.6l-2-2c0.5-0.6,1.1-1,1.9-1.3s1.7-0.5,2.6-0.5c1.1,0,2,0.2,2.7,0.5
			s1.3,0.9,1.7,1.5s0.6,1.5,0.6,2.4v7.8h-2.9v-7.4L172.9,273.1L172.9,273.1z"/>
		<path class="st5" d="M185.9,268.6h3.2l-4.6,12.2h-2.3l-4.6-12.2h3.2l2.5,7.6L185.9,268.6z"/>
		<path class="st5" d="M194.4,281c0,0-0.4-0.2-1.2-0.6s-1.5-1-1.9-1.9s-0.7-1.8-0.7-2.9v-1.4c0-1.2,0.2-2.2,0.6-3.1s1-1.5,1.8-1.9
			s1.8-0.7,2.9-0.7c1.1,0,2,0.3,2.7,0.8s1.3,1.3,1.7,2.3s0.6,2.2,0.6,3.7v0.8h-8.3v-2.2h5.4v-0.3c-0.1-0.7-0.3-1.2-0.7-1.6
			s-0.8-0.6-1.4-0.6c-0.8,0-1.4,0.2-1.8,0.7s-0.6,1.1-0.6,2v1.5c0,0.8,0.2,1.5,0.7,1.9s1.1,0.7,2,0.7c0.4,0,0.9-0.1,1.3-0.2
			s0.8-0.4,1.1-0.7l2.1,1.9c-0.6,0.6-1.3,1-2.1,1.3s-1.6,0.5-2.4,0.5C195,281,194.4,281,194.4,281z"/>
		<path class="st5" d="M203.8,268.6h3.2v12.2h-3.2V268.6z M210.9,273.4c0-0.6-0.2-1.1-0.5-1.4s-0.8-0.5-1.4-0.5
			c-0.6,0-1.1,0.2-1.4,0.5s-0.5,0.8-0.5,1.4l-0.2-2.7c0.4-0.8,0.8-1.3,1.3-1.7s1.2-0.6,1.9-0.6c1.3,0,2.3,0.4,3,1.3s1.1,2.1,1.1,3.7
			v7.4H211v-7.4L210.9,273.4L210.9,273.4z"/>
	</g>
</g>
<g>
	<g>
		<path class="st5" d="M169.7,184.5c0,0-0.4-0.1-1.2-0.2s-1.5-0.4-2.2-0.7s-1.3-0.7-1.8-1.1l1.5-2.6c0.7,0.5,1.4,1,2.3,1.2
			s1.7,0.4,2.6,0.4c1,0,1.9-0.2,2.4-0.5s0.9-0.9,0.9-1.5l0,0c0-0.5-0.1-0.8-0.4-1.1s-0.6-0.5-1-0.6s-0.9-0.2-1.6-0.3c0,0,0,0-0.1,0
			s0,0-0.1,0h-0.3c-1.1-0.2-2.1-0.4-2.8-0.7s-1.4-0.7-1.9-1.4s-0.8-1.6-0.8-2.9l0,0c0-1.1,0.2-2,0.7-2.8s1.2-1.4,2.1-1.8
			s2.1-0.6,3.4-0.6c0.6,0,1.2,0.1,1.9,0.2s1.3,0.3,1.9,0.6s1.2,0.6,1.7,1l-1.4,2.7c-0.7-0.5-1.3-0.8-2.1-1.1s-1.4-0.4-2.1-0.4
			c-1,0-1.7,0.2-2.3,0.5s-0.8,0.8-0.8,1.4l0,0c0,0.5,0.1,0.9,0.4,1.2s0.6,0.5,1,0.6s1,0.3,1.7,0.4h0.1h0.1h0.1h0.1
			c1.1,0.2,2,0.5,2.7,0.8s1.3,0.8,1.8,1.5s0.7,1.6,0.7,2.7l0,0c0,1.1-0.3,2-0.8,2.8s-1.2,1.4-2.2,1.8s-2.1,0.6-3.5,0.6
			C170.1,184.5,169.7,184.5,169.7,184.5z"/>
		<path class="st5" d="M180.1,172.2h3.2v17.1h-3.2V172.2z M184.3,184c-0.5-0.4-0.9-0.9-1.1-1.5l0.2-2.8c0,0.4,0.1,0.7,0.2,1
			s0.3,0.5,0.6,0.6s0.6,0.2,1,0.2c0.6,0,1.1-0.2,1.4-0.6s0.5-1,0.5-1.7v-1.9c0-0.7-0.2-1.3-0.5-1.7s-0.8-0.6-1.4-0.6
			c-0.4,0-0.7,0.1-1,0.2s-0.5,0.4-0.6,0.7s-0.2,0.6-0.2,1.1l-0.2-2.7c0.3-0.7,0.8-1.3,1.3-1.6s1.1-0.6,1.8-0.6
			c0.9,0,1.6,0.2,2.2,0.6s1.1,1,1.4,1.8s0.5,1.8,0.5,2.9v1.9c0,1.1-0.2,2.1-0.5,2.8s-0.8,1.4-1.4,1.8s-1.3,0.6-2.2,0.6
			C185.5,184.5,184.8,184.3,184.3,184z"/>
		<path class="st5" d="M193.2,172.2h3.4v12.2h-3.4V172.2z M199.5,175.2c-0.2-0.1-0.5-0.1-0.8-0.1c-0.6,0-1.2,0.2-1.5,0.6
			s-0.5,1-0.5,1.7l-0.2-3.2c0.3-0.7,0.8-1.3,1.3-1.7s1.1-0.6,1.8-0.6c0.5,0,1,0.1,1.4,0.2s0.8,0.4,1.1,0.7l-1.9,2.6
			C199.9,175.4,199.7,175.3,199.5,175.2z"/>
		<path class="st5" d="M203.2,167.3h3.2v3.2h-3.2V167.3z M203.2,172.2h3.2v12.2h-3.2V172.2z"/>
		<path class="st5" d="M209.4,172.2h3.2v12.2h-3.2V172.2z M216.5,177c0-0.6-0.2-1.1-0.5-1.4s-0.8-0.5-1.4-0.5
			c-0.6,0-1.1,0.2-1.4,0.5s-0.5,0.8-0.5,1.4l-0.2-2.7c0.4-0.8,0.8-1.3,1.3-1.7s1.2-0.6,1.9-0.6c1.3,0,2.3,0.4,3,1.3s1.1,2.1,1.1,3.7
			v7.4h-3.2V177H216.5z"/>
		<path class="st5" d="M224.4,183.9c-0.6-0.4-1.1-1-1.4-1.8s-0.5-1.7-0.5-2.8v-1.9c0-1.1,0.2-2.1,0.5-2.9s0.8-1.4,1.4-1.8
			s1.3-0.6,2.2-0.6c0.6,0,1.2,0.2,1.8,0.6s1,0.9,1.3,1.6l-0.2,2.7c0-0.4-0.1-0.8-0.2-1.1s-0.3-0.5-0.6-0.7s-0.6-0.2-1-0.2
			c-0.6,0-1.1,0.2-1.4,0.6s-0.5,1-0.5,1.7v1.9c0,0.7,0.2,1.3,0.5,1.7s0.8,0.6,1.4,0.6c0.4,0,0.7-0.1,1-0.2s0.5-0.4,0.6-0.6
			s0.2-0.6,0.2-1l0.2,2.8c-0.3,0.7-0.6,1.2-1.1,1.5s-1.1,0.5-1.8,0.5C225.7,184.5,225,184.3,224.4,183.9z M225.7,189.3
			c0,0-0.4-0.2-1.1-0.5s-1.4-0.8-1.8-1.4l2.2-2c0.3,0.3,0.6,0.5,1,0.7s0.8,0.2,1.2,0.2c0.7,0,1.2-0.2,1.6-0.6s0.6-0.9,0.6-1.5v-12
			h3.2V184c0,1.1-0.2,2.1-0.6,2.9s-1,1.4-1.9,1.8s-1.8,0.6-3,0.6C226.2,189.3,225.7,189.3,225.7,189.3z"/>
	</g>
</g>
<g>
	<g>
		<path class="st5" d="M275.4,197.2h3.2v17h-3.2V197.2z M276.9,204.2h9.9v3.1h-9.9V204.2z M284.7,197.2h3.2v17h-3.2V197.2z"/>
		<path class="st5" d="M291.3,197.2h3.2v3.2h-3.2V197.2z M291.3,202h3.2v12.2h-3.2V202z"/>
		<path class="st5" d="M297.5,197.2h3.2v17h-3.2V197.2z M301.7,213.8c-0.5-0.4-0.9-0.9-1.1-1.5l0.2-2.8c0,0.4,0.1,0.7,0.2,1
			s0.3,0.5,0.6,0.6s0.6,0.2,1,0.2c0.6,0,1.1-0.2,1.4-0.6s0.5-1,0.5-1.7v-1.9c0-0.7-0.2-1.3-0.5-1.7s-0.8-0.6-1.4-0.6
			c-0.4,0-0.7,0.1-1,0.2s-0.5,0.4-0.6,0.7s-0.2,0.6-0.2,1.1l-0.2-2.7c0.3-0.7,0.8-1.3,1.3-1.6s1.1-0.6,1.8-0.6
			c0.9,0,1.6,0.2,2.2,0.6s1.1,1,1.4,1.8s0.5,1.8,0.5,2.9v1.9c0,1.1-0.2,2.1-0.5,2.8s-0.8,1.4-1.4,1.8s-1.3,0.6-2.2,0.6
			C302.8,214.4,302.2,214.2,301.7,213.8z"/>
		<path class="st5" d="M314,214.4c0,0-0.4-0.2-1.2-0.6s-1.5-1-1.9-1.9s-0.7-1.8-0.7-2.9v-1.4c0-1.2,0.2-2.2,0.6-3.1s1-1.5,1.8-1.9
			s1.8-0.7,2.9-0.7s2,0.3,2.7,0.8s1.3,1.3,1.7,2.3s0.6,2.2,0.6,3.7v0.8h-8.3v-2.2h5.4V207c-0.1-0.7-0.3-1.2-0.7-1.6
			s-0.8-0.6-1.4-0.6c-0.8,0-1.4,0.2-1.8,0.7s-0.6,1.1-0.6,2v1.5c0,0.8,0.2,1.5,0.7,1.9s1.1,0.7,2,0.7c0.4,0,0.9-0.1,1.3-0.2
			s0.8-0.4,1.1-0.7l2.1,1.9c-0.6,0.6-1.3,1-2.1,1.3s-1.6,0.5-2.4,0.5C314.6,214.4,314,214.4,314,214.4z"/>
		<path class="st5" d="M323.4,202h3.4v12.2h-3.4V202z M329.7,205.1c-0.2-0.1-0.5-0.1-0.8-0.1c-0.6,0-1.2,0.2-1.5,0.6s-0.5,1-0.5,1.7
			l-0.2-3.2c0.3-0.7,0.8-1.3,1.3-1.7s1.1-0.6,1.8-0.6c0.5,0,1,0.1,1.4,0.2s0.8,0.4,1.1,0.7l-1.9,2.6
			C330.1,205.3,329.9,205.1,329.7,205.1z"/>
		<path class="st5" d="M333.6,202h3.2v12.2h-3.2V202z M340.7,206.8c0-0.6-0.2-1.1-0.5-1.4s-0.8-0.5-1.4-0.5s-1.1,0.2-1.4,0.5
			s-0.5,0.8-0.5,1.4l-0.2-2.7c0.4-0.8,0.8-1.3,1.3-1.7s1.2-0.6,1.9-0.6c1.3,0,2.3,0.4,3,1.3s1.1,2.1,1.1,3.7v7.4h-3.2L340.7,206.8
			L340.7,206.8z"/>
		<path class="st5" d="M347.4,213.4c-0.6-0.6-1-1.6-1-2.8s0.4-2.1,1.1-2.7s1.8-0.9,3.3-0.9h3l0.2,2.4h-3.2c-0.5,0-0.8,0.1-1.1,0.3
			s-0.4,0.5-0.4,0.9s0.2,0.7,0.5,0.9s0.8,0.3,1.4,0.3c0.9,0,1.5-0.1,1.9-0.3s0.6-0.5,0.6-0.9l0.2,1.8c0,0.4-0.2,0.8-0.6,1.1
			s-0.8,0.5-1.3,0.7s-1.1,0.2-1.7,0.2C349,214.4,348.1,214.1,347.4,213.4z M353.7,206.5c0-0.6-0.2-1-0.6-1.3s-0.9-0.5-1.6-0.5
			c-0.5,0-0.9,0.1-1.3,0.2s-0.8,0.4-1.2,0.6l-2-2c0.5-0.6,1.1-1,1.9-1.3s1.7-0.5,2.6-0.5c1.1,0,2,0.2,2.7,0.5s1.3,0.9,1.7,1.5
			s0.6,1.5,0.6,2.4v7.8h-2.9L353.7,206.5L353.7,206.5z"/>
		<path class="st5" d="M358.9,202h6v2.7h-6V202z M360.9,213.4c-0.5-0.5-0.7-1.3-0.7-2.4v-12.5h3.2v11.7c0,0.3,0.1,0.5,0.2,0.7
			s0.3,0.2,0.5,0.2h0.8v3.1h-1.6C362.2,214.2,361.4,214,360.9,213.4z"/>
		<path class="st5" d="M371.1,214.4c0,0-0.4-0.2-1.2-0.6s-1.5-1-1.9-1.9s-0.7-1.8-0.7-2.9v-1.4c0-1.2,0.2-2.2,0.6-3.1s1-1.5,1.8-1.9
			s1.8-0.7,2.9-0.7s2,0.3,2.7,0.8s1.3,1.3,1.7,2.3s0.6,2.2,0.6,3.7v0.8h-8.3v-2.2h5.4V207c-0.1-0.7-0.3-1.2-0.7-1.6
			s-0.8-0.6-1.4-0.6c-0.8,0-1.4,0.2-1.8,0.7s-0.6,1.1-0.6,2v1.5c0,0.8,0.2,1.5,0.7,1.9s1.1,0.7,2,0.7c0.4,0,0.9-0.1,1.3-0.2
			s0.8-0.4,1.1-0.7l2.1,1.9c-0.6,0.6-1.3,1-2.1,1.3s-1.6,0.5-2.4,0.5C371.7,214.4,371.1,214.4,371.1,214.4z"/>
	</g>
</g>
<g>
	<g>
		<path class="st5" d="M442.6,78.8h3.2v17h-3.2V78.8z M444.2,92.7h4.1c1.1,0,1.9-0.3,2.4-0.8s0.9-1.2,0.9-2.2v-5
			c0-0.9-0.3-1.6-0.9-2.2s-1.4-0.8-2.4-0.8h-4.1v-3.1h4c1.4,0,2.6,0.2,3.6,0.7s1.8,1.2,2.3,2.1s0.8,2,0.8,3.3v4.8
			c0,1.2-0.3,2.3-0.8,3.2s-1.3,1.6-2.3,2.1s-2.2,0.8-3.7,0.8h-4v-2.9H444.2z"/>
		<path class="st5" d="M456.5,97.7h0.8c0.3,0,0.5-0.1,0.7-0.2s0.2-0.4,0.2-0.7V83.7h3.2v13.9c0,1-0.3,1.8-0.8,2.4s-1.3,0.8-2.3,0.8
			h-1.8L456.5,97.7L456.5,97.7z M458.1,78.8h3.3V82h-3.3V78.8z"/>
		<path class="st5" d="M464.9,95.1c-0.6-0.6-1-1.6-1-2.8c0-1.2,0.4-2.1,1.1-2.7s1.8-0.9,3.3-0.9h3l0.2,2.4h-3.2
			c-0.5,0-0.8,0.1-1.1,0.3s-0.4,0.5-0.4,0.9s0.2,0.7,0.5,0.9s0.8,0.3,1.4,0.3c0.9,0,1.5-0.1,1.9-0.3s0.6-0.5,0.6-0.9l0.2,1.8
			c0,0.4-0.2,0.8-0.6,1.1s-0.8,0.5-1.3,0.7s-1.1,0.2-1.7,0.2C466.5,96,465.6,95.7,464.9,95.1z M471.2,88.1c0-0.6-0.2-1-0.6-1.3
			s-0.9-0.5-1.6-0.5c-0.5,0-0.9,0.1-1.3,0.2s-0.8,0.4-1.2,0.6l-2-2c0.5-0.6,1.1-1,1.9-1.3s1.7-0.5,2.6-0.5c1.1,0,2,0.2,2.7,0.5
			s1.3,0.9,1.7,1.5s0.6,1.5,0.6,2.4v7.8h-2.9L471.2,88.1L471.2,88.1z"/>
		<path class="st5" d="M477.3,83.7h3.2v12.2h-3.2V83.7z M484.3,88.5c0-0.6-0.2-1.1-0.5-1.4s-0.8-0.5-1.4-0.5s-1.1,0.2-1.4,0.5
			s-0.5,0.8-0.5,1.4l-0.2-2.7c0.4-0.8,0.8-1.3,1.3-1.7s1.2-0.6,1.9-0.6c1.3,0,2.3,0.4,3,1.3s1.1,2.1,1.1,3.7v7.4h-3.2L484.3,88.5
			L484.3,88.5z"/>
		<path class="st5" d="M492.2,95.4c-0.6-0.4-1.1-1-1.4-1.8s-0.5-1.7-0.5-2.8v-1.9c0-1.1,0.2-2.1,0.5-2.9s0.8-1.4,1.4-1.8
			s1.3-0.6,2.2-0.6c0.6,0,1.2,0.2,1.8,0.6s1,0.9,1.3,1.6l-0.2,2.7c0-0.4-0.1-0.8-0.2-1.1s-0.3-0.5-0.6-0.7s-0.6-0.2-1-0.2
			c-0.6,0-1.1,0.2-1.4,0.6s-0.5,1-0.5,1.7v1.9c0,0.7,0.2,1.3,0.5,1.7s0.8,0.6,1.4,0.6c0.4,0,0.7-0.1,1-0.2s0.5-0.4,0.6-0.6
			s0.2-0.6,0.2-1l0.2,2.8c-0.3,0.7-0.6,1.2-1.1,1.5s-1.1,0.5-1.8,0.5C493.6,96,492.9,95.8,492.2,95.4z M493.6,100.8
			c0,0-0.4-0.2-1.1-0.5s-1.4-0.8-1.8-1.4l2.2-2c0.3,0.3,0.6,0.5,1,0.7s0.8,0.2,1.2,0.2c0.7,0,1.2-0.2,1.6-0.6s0.6-0.9,0.6-1.5v-12
			h3.2v11.8c0,1.1-0.2,2.1-0.6,2.9s-1,1.4-1.9,1.8s-1.8,0.6-3,0.6C494.1,100.8,493.6,100.8,493.6,100.8z"/>
		<path class="st5" d="M505.7,95.4c-0.8-0.4-1.4-1-1.8-1.8s-0.6-1.7-0.6-2.9v-2c0-1.1,0.2-2,0.6-2.8s1-1.4,1.8-1.8s1.7-0.6,2.8-0.6
			s2.1,0.2,2.8,0.6s1.4,1,1.8,1.8s0.6,1.7,0.6,2.8v2c0,1.1-0.2,2.1-0.6,2.8s-1,1.4-1.8,1.8s-1.7,0.6-2.8,0.6S506.5,95.8,505.7,95.4z
			 M510,92.3c0.4-0.4,0.5-0.9,0.5-1.6v-2c0-0.7-0.2-1.2-0.5-1.6s-0.9-0.6-1.5-0.6s-1.1,0.2-1.5,0.6s-0.5,0.9-0.5,1.6v2
			c0,0.7,0.2,1.2,0.5,1.6s0.9,0.6,1.5,0.6S509.7,92.7,510,92.3z"/>
	</g>
</g>
<g>
	<g>
		<g>
			<path class="st5" d="M378.6,117.6h3.2v17h-3.2V117.6z M380.2,131.6h4.1c1.1,0,1.9-0.3,2.4-0.8s0.9-1.2,0.9-2.2v-5
				c0-0.9-0.3-1.6-0.9-2.2s-1.4-0.8-2.4-0.8h-4.1v-3.1h4c1.4,0,2.6,0.2,3.6,0.7s1.8,1.2,2.3,2.1s0.8,2,0.8,3.3v4.8
				c0,1.2-0.3,2.3-0.8,3.2s-1.3,1.6-2.3,2.1s-2.2,0.8-3.7,0.8h-4v-2.9L380.2,131.6L380.2,131.6z"/>
			<path class="st5" d="M394.3,117.6h3.2v17.1h-3.2V117.6z M395.6,124.7h5.9c0.3,0,0.6-0.1,0.9-0.2s0.4-0.4,0.6-0.7s0.2-0.7,0.2-1.1
				s-0.1-0.8-0.2-1.1s-0.3-0.5-0.6-0.7s-0.5-0.2-0.9-0.2h-5.9v-3.1h6.2c0.9,0,1.8,0.2,2.5,0.6s1.3,1,1.7,1.8s0.6,1.7,0.6,2.7
				s-0.2,1.9-0.6,2.7s-0.9,1.4-1.7,1.8s-1.5,0.6-2.5,0.6h-6.2V124.7z M399.2,127.3l3.4-0.5l4.6,7.9h-3.9L399.2,127.3z"/>
			<path class="st5" d="M410,117.6h3.2v17H410V117.6z M411.1,117.6h10v3.1h-10V117.6z M411.1,124.8h8.7v3.1h-8.7V124.8z"/>
		</g>
	</g>
</g>
<g>
	<g>
		<g>
			<path class="st5" d="M620.8,171.5h3.9l6.3,13.1l-0.3,0.3v-13.4h3.1v17h-3.9l-6.3-12.9l0.3-0.3v13.2h-3.1V171.5z"/>
			<path class="st5" d="M637.6,171.5h3.2v17h-3.2V171.5z M639,185.5h10v3.1h-10V185.5z"/>
			<path class="st5" d="M649,171.5h12.5v3.1H649V171.5z M653.6,172.9h3.2v15.6h-3.2V172.9z"/>
			<path class="st5" d="M662.9,171.5h3.2v17h-3.2V171.5z M664.8,181.9l6.8-10.4h4l-10.5,14.6L664.8,181.9z M667.6,179.9l2.8-1.7
				l6,10.4h-3.8L667.6,179.9z"/>
		</g>
	</g>
</g>
<g>
	<g>
		<g>
			<path class="st5" d="M554,125.1c0,0-0.4-0.1-1.2-0.2s-1.5-0.4-2.2-0.7s-1.3-0.7-1.8-1.1l1.5-2.6c0.7,0.5,1.4,1,2.3,1.2
				s1.7,0.4,2.6,0.4c1,0,1.9-0.2,2.4-0.5s0.9-0.9,0.9-1.5l0,0c0-0.5-0.1-0.8-0.4-1.1s-0.6-0.5-1-0.6s-0.9-0.2-1.6-0.3c0,0,0,0-0.1,0
				s0,0-0.1,0H555c-1.1-0.2-2.1-0.4-2.8-0.7s-1.4-0.7-1.9-1.4s-0.8-1.6-0.8-2.9l0,0c0-1.1,0.2-2,0.7-2.8s1.2-1.4,2.1-1.8
				s2.1-0.6,3.4-0.6c0.6,0,1.2,0.1,1.9,0.2s1.3,0.3,1.9,0.6s1.2,0.6,1.7,1l-1.4,2.7c-0.7-0.5-1.3-0.8-2.1-1.1s-1.4-0.4-2.1-0.4
				c-1,0-1.7,0.2-2.3,0.5s-0.8,0.8-0.8,1.4l0,0c0,0.5,0.1,0.9,0.4,1.2s0.6,0.5,1,0.6s1,0.3,1.7,0.4h0.1h0.1h0.1h0.1
				c1.1,0.2,2,0.5,2.7,0.8s1.3,0.8,1.8,1.5s0.7,1.6,0.7,2.7l0,0c0,1.1-0.3,2-0.8,2.8s-1.2,1.4-2.2,1.8s-2.1,0.6-3.5,0.6
				C554.4,125.1,554,125.1,554,125.1z"/>
			<path class="st5" d="M564.4,107.9h3.2v17h-3.2V107.9z M565.9,120.6l5.7-7.8h3.4l-8.6,11.3L565.9,120.6z M568.7,118.7l2.6-1.6
				l4.1,7.9h-3.7L568.7,118.7z"/>
			<path class="st5" d="M580.3,120.9c0,0.3,0.1,0.5,0.3,0.7s0.4,0.2,0.7,0.2h0.5v3.1h-1.6c-1,0-1.7-0.3-2.3-0.8s-0.8-1.4-0.8-2.4
				v-13.8h3.2L580.3,120.9L580.3,120.9z"/>
			<path class="st5" d="M587.5,125.1c0,0-0.4-0.2-1.2-0.6s-1.5-1-1.9-1.9s-0.7-1.8-0.7-2.9v-1.4c0-1.2,0.2-2.2,0.6-3.1
				s1-1.5,1.8-1.9s1.8-0.7,2.9-0.7c1.1,0,2,0.3,2.7,0.8s1.3,1.3,1.7,2.3s0.6,2.2,0.6,3.7v0.8h-8.3V118h5.4v-0.3
				c-0.1-0.7-0.3-1.2-0.7-1.6s-0.8-0.6-1.4-0.6c-0.8,0-1.4,0.2-1.8,0.7s-0.6,1.1-0.6,2v1.5c0,0.8,0.2,1.5,0.7,1.9s1.1,0.7,2,0.7
				c0.4,0,0.9-0.1,1.3-0.2s0.8-0.4,1.1-0.7l2.1,1.9c-0.6,0.6-1.3,1-2.1,1.3s-1.6,0.5-2.4,0.5C588,125.1,587.5,125.1,587.5,125.1z"/>
			<path class="st5" d="M597.2,124.2c-0.6-0.6-1-1.6-1-2.8c0-1.2,0.4-2.1,1.1-2.7s1.8-0.9,3.3-0.9h3l0.2,2.4h-3.2
				c-0.5,0-0.8,0.1-1.1,0.3s-0.4,0.5-0.4,0.9s0.2,0.7,0.5,0.9s0.8,0.3,1.4,0.3c0.9,0,1.5-0.1,1.9-0.3s0.6-0.5,0.6-0.9l0.2,1.8
				c0,0.4-0.2,0.8-0.6,1.1s-0.8,0.5-1.3,0.7s-1.1,0.2-1.7,0.2C598.9,125.1,597.9,124.8,597.2,124.2z M603.6,117.2
				c0-0.6-0.2-1-0.6-1.3s-0.9-0.5-1.6-0.5c-0.5,0-0.9,0.1-1.3,0.2s-0.8,0.4-1.2,0.6l-2-2c0.5-0.6,1.1-1,1.9-1.3s1.7-0.5,2.6-0.5
				c1.1,0,2,0.2,2.7,0.5s1.3,0.9,1.7,1.5s0.6,1.5,0.6,2.4v7.8h-2.9L603.6,117.2L603.6,117.2z"/>
			<path class="st5" d="M609.6,112.8h3.4V125h-3.4V112.8z M615.9,115.8c-0.2-0.1-0.5-0.1-0.8-0.1c-0.6,0-1.2,0.2-1.5,0.6
				s-0.5,1-0.5,1.7l-0.2-3.2c0.3-0.7,0.8-1.3,1.3-1.7s1.1-0.6,1.8-0.6c0.5,0,1,0.1,1.4,0.2s0.8,0.4,1.1,0.7l-1.9,2.6
				C616.3,116,616.1,115.9,615.9,115.8z"/>
			<path class="st5" d="M619.9,112.8h3.2V125h-3.2V112.8z M626.9,117.6c0-0.6-0.2-1.1-0.5-1.4s-0.8-0.5-1.4-0.5
				c-0.6,0-1.1,0.2-1.4,0.5s-0.5,0.8-0.5,1.4l-0.2-2.7c0.4-0.8,0.8-1.3,1.3-1.7s1.2-0.6,1.9-0.6c1.3,0,2.3,0.4,3,1.3
				s1.1,2.1,1.1,3.7v7.4H627L626.9,117.6L626.9,117.6z"/>
		</g>
	</g>
</g>
<g>
	<g>
		<g>
			<path class="st5" d="M824.2,410.7h12.5v3.1h-12.5V410.7z M828.9,412.1h3.2v15.6h-3.2V412.1z"/>
			<path class="st5" d="M836.6,415.6h3l4.1,10.6l-2,2.6L836.6,415.6z M847.8,415.6l-5.4,15c-0.2,0.6-0.5,1-0.8,1.3s-0.7,0.6-1.1,0.7
				s-1,0.2-1.6,0.2h-0.7v-3.1h0.7c0.3,0,0.6-0.1,0.9-0.2s0.4-0.4,0.5-0.7l4.5-13.1L847.8,415.6L847.8,415.6z"/>
			<path class="st5" d="M849.5,415.6h3.2v17.1h-3.2V415.6z M853.7,427.4c-0.5-0.4-0.9-0.9-1.1-1.5l0.2-2.8c0,0.4,0.1,0.7,0.2,1
				s0.3,0.5,0.6,0.6s0.6,0.2,1,0.2c0.6,0,1.1-0.2,1.4-0.6s0.5-1,0.5-1.7v-1.9c0-0.7-0.2-1.3-0.5-1.7s-0.8-0.6-1.4-0.6
				c-0.4,0-0.7,0.1-1,0.2s-0.5,0.4-0.6,0.7s-0.2,0.6-0.2,1.1l-0.2-2.7c0.3-0.7,0.8-1.3,1.3-1.6s1.1-0.6,1.8-0.6
				c0.9,0,1.6,0.2,2.2,0.6s1.1,1,1.4,1.8s0.5,1.8,0.5,2.9v1.9c0,1.1-0.2,2.1-0.5,2.8s-0.8,1.4-1.4,1.8s-1.3,0.6-2.2,0.6
				C854.8,428,854.2,427.8,853.7,427.4z"/>
			<path class="st5" d="M866,428c0,0-0.4-0.2-1.2-0.6s-1.5-1-1.9-1.9s-0.7-1.8-0.7-2.9v-1.4c0-1.2,0.2-2.2,0.6-3.1s1-1.5,1.8-1.9
				s1.8-0.7,2.9-0.7c1.1,0,2,0.3,2.7,0.8s1.3,1.3,1.7,2.3s0.6,2.2,0.6,3.7v0.8h-8.3v-2.2h5.4v-0.3c-0.1-0.7-0.3-1.2-0.7-1.6
				s-0.8-0.6-1.4-0.6c-0.8,0-1.4,0.2-1.8,0.7s-0.6,1.1-0.6,2v1.5c0,0.8,0.2,1.5,0.7,1.9s1.1,0.7,2,0.7c0.4,0,0.9-0.1,1.3-0.2
				s0.8-0.4,1.1-0.7l2.1,1.9c-0.6,0.6-1.3,1-2.1,1.3s-1.6,0.5-2.4,0.5C866.6,428,866,428,866,428z"/>
			<path class="st5" d="M879.8,428c0,0-0.4-0.1-1.2-0.2s-1.5-0.4-2.2-0.7s-1.3-0.7-1.8-1.1l1.5-2.6c0.7,0.5,1.4,1,2.3,1.2
				s1.7,0.4,2.6,0.4c1,0,1.9-0.2,2.4-0.5s0.9-0.9,0.9-1.5l0,0c0-0.5-0.1-0.8-0.4-1.1s-0.6-0.5-1-0.6s-0.9-0.2-1.6-0.3c0,0,0,0-0.1,0
				s0,0-0.1,0h-0.3c-1.1-0.2-2.1-0.4-2.8-0.7s-1.4-0.7-1.9-1.4s-0.8-1.6-0.8-2.9l0,0c0-1.1,0.2-2,0.7-2.8s1.2-1.4,2.1-1.8
				s2.1-0.6,3.4-0.6c0.6,0,1.2,0.1,1.9,0.2s1.3,0.3,1.9,0.6s1.2,0.6,1.7,1l-1.4,2.7c-0.7-0.5-1.3-0.8-2.1-1.1s-1.4-0.4-2.1-0.4
				c-1,0-1.7,0.2-2.3,0.5s-0.8,0.8-0.8,1.4l0,0c0,0.5,0.1,0.9,0.4,1.2s0.6,0.5,1,0.6s1,0.3,1.7,0.4h0.1h0.1h0.1h0.1
				c1.1,0.2,2,0.5,2.7,0.8s1.3,0.8,1.8,1.5s0.7,1.6,0.7,2.7l0,0c0,1.1-0.3,2-0.8,2.8s-1.2,1.4-2.2,1.8s-2.1,0.6-3.5,0.6
				C880.2,428,879.8,428,879.8,428z"/>
			<path class="st5" d="M893.6,428c0,0-0.4-0.2-1.2-0.7s-1.5-1.1-1.9-1.9s-0.6-1.9-0.6-3V421c0-1.2,0.2-2.2,0.6-3s1.1-1.5,1.9-1.9
				s1.8-0.7,3-0.7c0.7,0,1.3,0.1,1.9,0.2s1.1,0.4,1.6,0.7s0.9,0.6,1.2,1.1l-2.1,2c-0.3-0.3-0.6-0.5-1-0.6s-0.8-0.2-1.3-0.2
				c-0.8,0-1.4,0.2-1.9,0.7s-0.7,1-0.7,1.8v1.3c0,0.8,0.2,1.4,0.7,1.9s1.1,0.7,1.9,0.7c0.4,0,0.9-0.1,1.3-0.2s0.7-0.4,1-0.7l2.1,2.1
				c-0.3,0.4-0.7,0.8-1.2,1s-1,0.5-1.6,0.7s-1.2,0.2-1.9,0.2C894.2,428,893.6,428,893.6,428z"/>
			<path class="st5" d="M902.1,415.6h3.4v12.2h-3.4V415.6z M908.4,418.7c-0.2-0.1-0.5-0.1-0.8-0.1c-0.6,0-1.2,0.2-1.5,0.6
				s-0.5,1-0.5,1.7l-0.2-3.2c0.3-0.7,0.8-1.3,1.3-1.7s1.1-0.6,1.8-0.6c0.5,0,1,0.1,1.4,0.2s0.8,0.4,1.1,0.7l-2,2.7
				C908.8,418.9,908.6,418.7,908.4,418.7z"/>
			<path class="st5" d="M912.2,410.7h3.2v3.2h-3.2V410.7z M912.2,415.6h3.2v12.2h-3.2V415.6z"/>
			<path class="st5" d="M918.4,415.6h3.2v17.1h-3.2V415.6z M922.6,427.4c-0.5-0.4-0.9-0.9-1.1-1.5l0.2-2.8c0,0.4,0.1,0.7,0.2,1
				s0.3,0.5,0.6,0.6s0.6,0.2,1,0.2c0.6,0,1.1-0.2,1.4-0.6s0.5-1,0.5-1.7v-1.9c0-0.7-0.2-1.3-0.5-1.7s-0.8-0.6-1.4-0.6
				c-0.4,0-0.7,0.1-1,0.2s-0.5,0.4-0.6,0.7s-0.2,0.6-0.2,1.1l-0.2-2.7c0.3-0.7,0.8-1.3,1.3-1.6s1.1-0.6,1.8-0.6
				c0.9,0,1.6,0.2,2.2,0.6s1.1,1,1.4,1.8s0.5,1.8,0.5,2.9v1.9c0,1.1-0.2,2.1-0.5,2.8s-0.8,1.4-1.4,1.8s-1.3,0.6-2.2,0.6
				C923.7,428,923.1,427.8,922.6,427.4z"/>
			<path class="st5" d="M930.5,415.6h6v2.7h-6V415.6z M932.5,427c-0.5-0.5-0.7-1.3-0.7-2.4v-12.5h3.2v11.7c0,0.3,0.1,0.5,0.2,0.7
				s0.3,0.2,0.5,0.2h0.8v3.1h-1.6C933.8,427.8,933,427.6,932.5,427z"/>
		</g>
	</g>
</g>
<g>
	<g>
		<g>
			<path class="st5" d="M737.6,189.8h3.2v17.1h-3.2V189.8z M738.8,196.9h5.9c0.3,0,0.6-0.1,0.9-0.2s0.4-0.4,0.6-0.7s0.2-0.7,0.2-1.1
				c0-0.4-0.1-0.8-0.2-1.1s-0.3-0.5-0.6-0.7s-0.5-0.2-0.9-0.2h-5.9v-3.1h6.2c0.9,0,1.8,0.2,2.5,0.6s1.3,1,1.7,1.8s0.6,1.7,0.6,2.7
				s-0.2,1.9-0.6,2.7s-0.9,1.4-1.7,1.8S746,200,745,200h-6.2V196.9z M742.4,199.4l3.4-0.5l4.6,7.9h-3.9L742.4,199.4z"/>
			<path class="st5" d="M756.4,207c0,0-0.4-0.2-1.2-0.6s-1.5-1-1.9-1.9s-0.7-1.8-0.7-2.9v-1.4c0-1.2,0.2-2.2,0.6-3.1s1-1.5,1.8-1.9
				s1.8-0.7,2.9-0.7c1.1,0,2,0.3,2.7,0.8s1.3,1.3,1.7,2.3s0.6,2.2,0.6,3.7v0.8h-8.3v-2.2h5.4v-0.3c-0.1-0.7-0.3-1.2-0.7-1.6
				s-0.8-0.6-1.4-0.6c-0.8,0-1.4,0.2-1.8,0.7s-0.6,1.1-0.6,2v1.5c0,0.8,0.2,1.5,0.7,1.9s1.1,0.7,2,0.7c0.4,0,0.9-0.1,1.3-0.2
				s0.8-0.4,1.1-0.7l2.1,1.9c-0.6,0.6-1.3,1-2.1,1.3s-1.6,0.5-2.4,0.5C757,207,756.4,207,756.4,207z"/>
			<path class="st5" d="M766.2,206.1c-0.6-0.6-1-1.6-1-2.8s0.4-2.1,1.1-2.7s1.8-0.9,3.3-0.9h3l0.2,2.4h-3.2c-0.5,0-0.8,0.1-1.1,0.3
				s-0.4,0.5-0.4,0.9s0.2,0.7,0.5,0.9s0.8,0.3,1.4,0.3c0.9,0,1.5-0.1,1.9-0.3s0.6-0.5,0.6-0.9l0.2,1.8c0,0.4-0.2,0.8-0.6,1.1
				s-0.8,0.5-1.3,0.7s-1.1,0.2-1.7,0.2C767.8,207,766.9,206.7,766.2,206.1z M772.5,199.1c0-0.6-0.2-1-0.6-1.3s-0.9-0.5-1.6-0.5
				c-0.5,0-0.9,0.1-1.3,0.2s-0.8,0.4-1.2,0.6l-2-2c0.5-0.6,1.1-1,1.9-1.3s1.7-0.5,2.6-0.5c1.1,0,2,0.2,2.7,0.5s1.3,0.9,1.7,1.5
				s0.6,1.5,0.6,2.4v7.8h-2.9L772.5,199.1L772.5,199.1z"/>
			<path class="st5" d="M782,207c0,0-0.4-0.2-1.2-0.7s-1.5-1.1-1.9-1.9s-0.6-1.9-0.6-3v-1.3c0-1.2,0.2-2.2,0.6-3s1.1-1.5,1.9-1.9
				s1.8-0.7,3-0.7c0.7,0,1.3,0.1,1.9,0.2s1.1,0.4,1.6,0.7s0.9,0.6,1.2,1.1l-2.1,2c-0.3-0.3-0.6-0.5-1-0.6s-0.8-0.2-1.3-0.2
				c-0.8,0-1.4,0.2-1.9,0.7s-0.7,1-0.7,1.8v1.3c0,0.8,0.2,1.4,0.7,1.9s1.1,0.7,1.9,0.7c0.4,0,0.9-0.1,1.3-0.2s0.7-0.4,1-0.7l2.1,2.1
				c-0.3,0.4-0.7,0.8-1.2,1s-1,0.5-1.6,0.7s-1.2,0.2-1.9,0.2C782.6,207,782,207,782,207z"/>
			<path class="st5" d="M789.6,194.7h6v2.7h-6V194.7z M791.6,206.1c-0.5-0.5-0.7-1.3-0.7-2.4v-12.5h3.2v11.7c0,0.3,0.1,0.5,0.2,0.7
				s0.3,0.2,0.5,0.2h0.8v3.1H794C792.9,206.9,792.1,206.6,791.6,206.1z"/>
		</g>
	</g>
</g>
<g>
	<g>
		<g>
			<path class="st5" d="M801,178c-0.8-0.4-1.5-1-1.9-1.7l2.6-1.9c0.3,0.4,0.6,0.6,1,0.8s0.8,0.3,1.2,0.3c0.6,0,1.1-0.2,1.4-0.7
				s0.5-1,0.5-1.8v-11.6h3.3V173c0,1.2-0.2,2.2-0.6,3s-1,1.5-1.9,1.9s-1.8,0.7-2.9,0.7C802.8,178.6,801.9,178.4,801,178z"/>
			<path class="st5" d="M815.6,177.8c-0.9-0.5-1.7-1.3-2.2-2.2s-0.8-2-0.8-3.3v-4.8c0-1.3,0.3-2.3,0.8-3.3s1.2-1.7,2.2-2.2
				s2-0.8,3.3-0.8s2.3,0.3,3.3,0.8s1.7,1.3,2.2,2.2s0.8,2,0.8,3.3v4.8c0,1.3-0.3,2.3-0.8,3.3s-1.2,1.7-2.2,2.2s-2,0.8-3.3,0.8
				S816.6,178.3,815.6,177.8z M820.4,175c0.4-0.2,0.8-0.6,1-1s0.4-1,0.4-1.6v-5c0-0.6-0.1-1.1-0.4-1.6s-0.6-0.8-1-1
				s-0.9-0.4-1.5-0.4s-1.1,0.1-1.5,0.4s-0.8,0.6-1,1s-0.4,1-0.4,1.6v5c0,0.6,0.1,1.1,0.4,1.6s0.6,0.8,1,1s0.9,0.4,1.5,0.4
				S820,175.3,820.4,175z M818.4,173.7l1.7-2.2l6.6,5l-1.7,2.2L818.4,173.7z"/>
			<path class="st5" d="M831.8,173.7c0,0.6,0.2,1,0.5,1.4s0.8,0.5,1.4,0.5s1.1-0.2,1.4-0.5s0.5-0.8,0.5-1.4l0.2,2.7
				c-0.2,0.7-0.6,1.2-1.1,1.7s-1.2,0.7-1.9,0.7c-1.3,0-2.3-0.4-3-1.3s-1.1-2-1.1-3.6v-7.5h3.2v7.3L831.8,173.7L831.8,173.7z
				 M835.6,166.3h3.2v12.2h-3.2V166.3z"/>
			<path class="st5" d="M845.4,178.6c0,0-0.4-0.2-1.2-0.6s-1.5-1-1.9-1.9s-0.7-1.8-0.7-2.9v-1.4c0-1.2,0.2-2.2,0.6-3.1
				s1-1.5,1.8-1.9s1.8-0.7,2.9-0.7c1.1,0,2,0.3,2.7,0.8s1.3,1.3,1.7,2.3s0.6,2.2,0.6,3.7v0.8h-8.3v-2.2h5.4v-0.3
				c-0.1-0.7-0.3-1.2-0.7-1.6s-0.8-0.6-1.4-0.6c-0.8,0-1.4,0.2-1.8,0.7s-0.6,1.1-0.6,2v1.5c0,0.8,0.2,1.5,0.7,1.9s1.1,0.7,2,0.7
				c0.4,0,0.9-0.1,1.3-0.2s0.8-0.4,1.1-0.7l2.1,1.9c-0.6,0.6-1.3,1-2.1,1.3s-1.6,0.5-2.4,0.5C846,178.6,845.4,178.6,845.4,178.6z"/>
			<path class="st5" d="M854.8,166.3h3.4v12.2h-3.4V166.3z M861.1,169.3c-0.2-0.1-0.5-0.1-0.8-0.1c-0.6,0-1.2,0.2-1.5,0.6
				s-0.5,1-0.5,1.7l-0.2-3.2c0.3-0.7,0.8-1.3,1.3-1.7s1.1-0.6,1.8-0.6c0.5,0,1,0.1,1.4,0.2s0.8,0.4,1.1,0.7l-1.9,2.6
				C861.5,169.5,861.3,169.4,861.1,169.3z"/>
			<path class="st5" d="M863.7,166.3h3l4.1,10.6l-2,2.6L863.7,166.3z M875,166.3l-5.4,15c-0.2,0.6-0.5,1-0.8,1.3s-0.7,0.6-1.1,0.7
				s-1,0.2-1.6,0.2h-0.7v-3.1h0.7c0.3,0,0.6-0.1,0.9-0.2s0.4-0.4,0.5-0.7l4.5-13.1L875,166.3L875,166.3z"/>
		</g>
	</g>
</g>
<g>
	<g>
		<g>
			<path class="st5" d="M860.5,204.3h3.2v17h-3.2V204.3z M861.7,204.3H872v3.1h-10.3V204.3z M861.7,211.3h9v3.1h-9V211.3z
				 M861.7,218.2H872v3.1h-10.3V218.2z"/>
			<path class="st5" d="M877.7,214.6l1.9,2.2l-2.8,4.5h-3.4L877.7,214.6z M878.3,216.3l-4.7-7.1h3.5l2.9,4.9l4.8,7.3h-3.5
				L878.3,216.3z M878.9,213.5l2.3-4.3h3.5l-3.9,6.6L878.9,213.5z"/>
			<path class="st5" d="M887,209.2h3.2v17.1H887V209.2z M891.2,221c-0.5-0.4-0.9-0.9-1.1-1.5l0.2-2.8c0,0.4,0.1,0.7,0.2,1
				s0.3,0.5,0.6,0.6s0.6,0.2,1,0.2c0.6,0,1.1-0.2,1.4-0.6s0.5-1,0.5-1.7v-1.9c0-0.7-0.2-1.3-0.5-1.7s-0.8-0.6-1.4-0.6
				c-0.4,0-0.7,0.1-1,0.2s-0.5,0.4-0.6,0.7s-0.2,0.6-0.2,1.1l-0.2-2.7c0.3-0.7,0.8-1.3,1.3-1.6s1.1-0.6,1.8-0.6
				c0.9,0,1.6,0.2,2.2,0.6s1.1,1,1.4,1.8s0.5,1.8,0.5,2.9v1.9c0,1.1-0.2,2.1-0.5,2.8s-0.8,1.4-1.4,1.8s-1.3,0.6-2.2,0.6
				S891.7,221.3,891.2,221z"/>
			<path class="st5" d="M900.1,209.2h3.4v12.2h-3.4V209.2z M906.3,212.2c-0.2-0.1-0.5-0.1-0.8-0.1c-0.6,0-1.2,0.2-1.5,0.6
				s-0.5,1-0.5,1.7l-0.2-3.2c0.3-0.7,0.8-1.3,1.3-1.7s1.1-0.6,1.8-0.6c0.5,0,1,0.1,1.4,0.2s0.8,0.4,1.1,0.7l-1.9,2.6
				C906.8,212.4,906.6,212.3,906.3,212.2z"/>
			<path class="st5" d="M913.8,221.5c0,0-0.4-0.2-1.2-0.6s-1.5-1-1.9-1.9s-0.7-1.8-0.7-2.9v-1.4c0-1.2,0.2-2.2,0.6-3.1
				s1-1.5,1.8-1.9s1.8-0.7,2.9-0.7c1.1,0,2,0.3,2.7,0.8s1.3,1.3,1.7,2.3s0.6,2.2,0.6,3.7v0.8H912v-2.2h5.4v-0.3
				c-0.1-0.7-0.3-1.2-0.7-1.6s-0.8-0.6-1.4-0.6c-0.8,0-1.4,0.2-1.8,0.7s-0.6,1.1-0.6,2v1.5c0,0.8,0.2,1.5,0.7,1.9s1.1,0.7,2,0.7
				c0.4,0,0.9-0.1,1.3-0.2s0.8-0.4,1.1-0.7l2.1,1.9c-0.6,0.6-1.3,1-2.1,1.3s-1.6,0.5-2.4,0.5C914.4,221.5,913.8,221.5,913.8,221.5z"
				/>
			<path class="st5" d="M926.7,221.5c0,0-0.3-0.1-1-0.2s-1.3-0.3-1.9-0.6s-1.1-0.6-1.6-0.9l2-2.5c0.6,0.4,1.2,0.7,1.8,0.9
				s1.3,0.3,1.8,0.3c0.8,0,1.3-0.1,1.7-0.3s0.6-0.4,0.6-0.7s-0.1-0.5-0.3-0.6s-0.4-0.2-0.7-0.3s-0.7-0.1-1.2-0.2c-0.1,0-0.3,0-0.4,0
				s-0.3,0-0.4,0H927h-0.1c-0.9-0.1-1.6-0.3-2.2-0.4s-1-0.5-1.4-1s-0.6-1.2-0.6-2.1c0-0.8,0.2-1.5,0.6-2.1s1-1,1.7-1.3
				s1.6-0.5,2.7-0.5c0.6,0,1.2,0.1,1.8,0.2s1.2,0.3,1.8,0.5s1.1,0.5,1.6,0.8l-1.9,2.3c-0.5-0.3-1.1-0.5-1.7-0.7s-1.1-0.2-1.7-0.2
				c-0.6,0-1.2,0.1-1.5,0.2s-0.5,0.4-0.5,0.6c0,0.2,0.1,0.4,0.3,0.5s0.4,0.2,0.7,0.2s0.7,0.1,1.2,0.2c0.1,0,0.1,0,0.2,0s0.1,0,0.2,0
				h0.1h0.1c0.9,0.1,1.7,0.3,2.3,0.4s1.1,0.5,1.5,1s0.6,1.3,0.6,2.3c0,0.8-0.2,1.6-0.6,2.2s-1,1.1-1.8,1.4s-1.7,0.5-2.8,0.5
				C927.1,221.5,926.7,221.5,926.7,221.5z"/>
			<path class="st5" d="M939.2,221.5c0,0-0.3-0.1-1-0.2s-1.3-0.3-1.9-0.6s-1.1-0.6-1.6-0.9l2-2.5c0.6,0.4,1.2,0.7,1.8,0.9
				s1.3,0.3,1.8,0.3c0.8,0,1.3-0.1,1.7-0.3s0.6-0.4,0.6-0.7s-0.1-0.5-0.3-0.6s-0.4-0.2-0.7-0.3s-0.7-0.1-1.2-0.2c-0.1,0-0.3,0-0.4,0
				s-0.3,0-0.4,0h-0.1h-0.1c-0.9-0.1-1.6-0.3-2.2-0.4s-1-0.5-1.4-1s-0.6-1.2-0.6-2.1c0-0.8,0.2-1.5,0.6-2.1s1-1,1.7-1.3
				s1.6-0.5,2.7-0.5c0.6,0,1.2,0.1,1.8,0.2s1.2,0.3,1.8,0.5s1.1,0.5,1.6,0.8l-1.9,2.3c-0.5-0.3-1.1-0.5-1.7-0.7s-1.1-0.2-1.7-0.2
				c-0.6,0-1.2,0.1-1.5,0.2s-0.5,0.4-0.5,0.6c0,0.2,0.1,0.4,0.3,0.5s0.4,0.2,0.7,0.2s0.7,0.1,1.2,0.2c0.1,0,0.1,0,0.2,0s0.1,0,0.2,0
				h0.1h0.1c0.9,0.1,1.7,0.3,2.3,0.4s1.1,0.5,1.5,1s0.6,1.3,0.6,2.3c0,0.8-0.2,1.6-0.6,2.2s-1,1.1-1.8,1.4s-1.7,0.5-2.8,0.5
				C939.6,221.5,939.2,221.5,939.2,221.5z"/>
		</g>
	</g>
</g>
<g>
	<g>
		<g>
			<path class="st5" d="M866.1,301.2h3.9l6.3,13.1l-0.3,0.3v-13.4h3.1v17h-3.9l-6.3-12.9l0.3-0.3v13.2h-3.1V301.2z"/>
			<path class="st5" d="M884.7,317.7c-0.8-0.4-1.4-1-1.8-1.8s-0.6-1.7-0.6-2.9v-2c0-1.1,0.2-2,0.6-2.8s1-1.4,1.8-1.8
				s1.7-0.6,2.8-0.6s2.1,0.2,2.8,0.6s1.4,1,1.8,1.8s0.6,1.7,0.6,2.8v2c0,1.1-0.2,2.1-0.6,2.8s-1,1.4-1.8,1.8s-1.7,0.6-2.8,0.6
				S885.5,318.2,884.7,317.7z M889.1,314.7c0.4-0.4,0.5-0.9,0.5-1.6v-2c0-0.7-0.2-1.2-0.5-1.6s-0.9-0.6-1.5-0.6s-1.1,0.2-1.5,0.6
				s-0.5,0.9-0.5,1.6v2c0,0.7,0.2,1.2,0.5,1.6s0.9,0.6,1.5,0.6S888.7,315.1,889.1,314.7z"/>
			<path class="st5" d="M897.3,317.7c-0.6-0.4-1.1-1-1.4-1.8s-0.5-1.7-0.5-2.8v-1.9c0-1.1,0.2-2.1,0.5-2.9s0.8-1.4,1.4-1.8
				s1.3-0.6,2.2-0.6c0.6,0,1.2,0.2,1.8,0.6s1,0.9,1.3,1.6l-0.2,2.7c0-0.4-0.1-0.8-0.2-1.1s-0.3-0.5-0.6-0.7s-0.6-0.2-1-0.2
				c-0.6,0-1.1,0.2-1.4,0.6s-0.5,1-0.5,1.7v1.9c0,0.7,0.2,1.3,0.5,1.7s0.8,0.6,1.4,0.6c0.4,0,0.7-0.1,1-0.2s0.5-0.4,0.6-0.6
				s0.2-0.6,0.2-1l0.2,2.8c-0.3,0.7-0.6,1.2-1.1,1.5s-1.1,0.5-1.8,0.5C898.6,318.4,897.9,318.2,897.3,317.7z M902.3,301.2h3.2v17
				h-3.2V301.2z"/>
			<path class="st5" d="M912.2,318.4c0,0-0.4-0.2-1.2-0.6s-1.5-1-1.9-1.9s-0.7-1.8-0.7-2.9v-1.4c0-1.2,0.2-2.2,0.6-3.1
				s1-1.5,1.8-1.9s1.8-0.7,2.9-0.7c1.1,0,2,0.3,2.7,0.8s1.3,1.3,1.7,2.3s0.6,2.2,0.6,3.7v0.8h-8.3v-2.2h5.4V311
				c-0.1-0.7-0.3-1.2-0.7-1.6s-0.8-0.6-1.4-0.6c-0.8,0-1.4,0.2-1.8,0.7s-0.6,1.1-0.6,2v1.5c0,0.8,0.2,1.5,0.7,1.9s1.1,0.7,2,0.7
				c0.4,0,0.9-0.1,1.3-0.2s0.8-0.4,1.1-0.7l2.1,1.9c-0.6,0.6-1.3,1-2.1,1.3s-1.6,0.5-2.4,0.5C912.7,318.4,912.2,318.4,912.2,318.4z"
				/>
		</g>
	</g>
</g>
<g>
	<g>
		<path class="st5" d="M107.4,383.3h3.2v17.1h-3.2V383.3z M111.6,395.1c-0.5-0.4-0.9-0.9-1.1-1.5l0.2-2.8c0,0.4,0.1,0.7,0.2,1
			s0.3,0.5,0.6,0.6s0.6,0.2,1,0.2c0.6,0,1.1-0.2,1.4-0.6s0.5-1,0.5-1.7v-1.9c0-0.7-0.2-1.3-0.5-1.7s-0.8-0.6-1.4-0.6
			c-0.4,0-0.7,0.1-1,0.2s-0.5,0.4-0.6,0.7s-0.2,0.6-0.2,1.1l-0.2-2.7c0.3-0.7,0.8-1.3,1.3-1.6s1.1-0.6,1.8-0.6
			c0.9,0,1.6,0.2,2.2,0.6s1.1,1,1.4,1.8s0.5,1.8,0.5,2.9v1.9c0,1.1-0.2,2.1-0.5,2.8s-0.8,1.4-1.4,1.8s-1.3,0.6-2.2,0.6
			C112.8,395.7,112.1,395.5,111.6,395.1z"/>
		<path class="st5" d="M122.5,395.1c-0.8-0.4-1.4-1-1.8-1.8s-0.6-1.7-0.6-2.9v-2c0-1.1,0.2-2,0.6-2.8s1-1.4,1.8-1.8s1.7-0.6,2.8-0.6
			s2.1,0.2,2.8,0.6c0.7,0.4,1.4,1,1.8,1.8s0.6,1.7,0.6,2.8v2c0,1.1-0.2,2.1-0.6,2.8s-1,1.4-1.8,1.8s-1.7,0.6-2.8,0.6
			S123.3,395.5,122.5,395.1z M126.9,392c0.4-0.4,0.5-0.9,0.5-1.6v-2c0-0.7-0.2-1.2-0.5-1.6s-0.9-0.6-1.5-0.6s-1.1,0.2-1.5,0.6
			s-0.5,0.9-0.5,1.6v2c0,0.7,0.2,1.2,0.5,1.6s0.9,0.6,1.5,0.6S126.5,392.4,126.9,392z"/>
		<path class="st5" d="M137.1,395.7c0,0-0.3-0.1-1-0.2s-1.3-0.3-1.9-0.6s-1.1-0.6-1.6-0.9l2-2.5c0.6,0.4,1.2,0.7,1.8,0.9
			s1.3,0.3,1.8,0.3c0.8,0,1.3-0.1,1.7-0.3s0.6-0.4,0.6-0.7c0-0.3-0.1-0.5-0.3-0.6s-0.4-0.2-0.7-0.3s-0.7-0.1-1.2-0.2
			c-0.1,0-0.3,0-0.4,0s-0.3,0-0.4,0h-0.1h-0.1c-0.9-0.1-1.6-0.3-2.2-0.4s-1-0.5-1.4-1s-0.6-1.2-0.6-2.1c0-0.8,0.2-1.5,0.6-2.1
			s1-1,1.7-1.3s1.6-0.5,2.7-0.5c0.6,0,1.2,0.1,1.8,0.2s1.2,0.3,1.8,0.5s1.1,0.5,1.6,0.8l-1.9,2.3c-0.5-0.3-1.1-0.5-1.7-0.7
			s-1.1-0.2-1.7-0.2c-0.6,0-1.2,0.1-1.5,0.2s-0.5,0.4-0.5,0.6s0.1,0.4,0.3,0.5s0.4,0.2,0.7,0.2s0.7,0.1,1.2,0.2c0.1,0,0.1,0,0.2,0
			s0.1,0,0.2,0h0.1h0.1c0.9,0.1,1.7,0.3,2.3,0.4s1.1,0.5,1.5,1s0.6,1.3,0.6,2.3c0,0.8-0.2,1.6-0.6,2.2s-1,1.1-1.8,1.4
			s-1.7,0.5-2.8,0.5C137.5,395.7,137.1,395.7,137.1,395.7z"/>
		<path class="st5" d="M145.1,383.3h6v2.7h-6V383.3z M147.1,394.8c-0.5-0.5-0.7-1.3-0.7-2.4v-12.5h3.2v11.7c0,0.3,0.1,0.5,0.2,0.7
			s0.3,0.2,0.5,0.2h0.8v3.1h-1.6C148.3,395.6,147.6,395.3,147.1,394.8z"/>
		<path class="st5" d="M155.4,395.1c-0.6-0.4-1.1-1-1.4-1.8s-0.5-1.7-0.5-2.8v-1.9c0-1.1,0.2-2.1,0.5-2.9s0.8-1.4,1.4-1.8
			s1.3-0.6,2.2-0.6c0.6,0,1.2,0.2,1.8,0.6s1,0.9,1.3,1.6l-0.2,2.7c0-0.4-0.1-0.8-0.2-1.1s-0.3-0.5-0.6-0.7s-0.6-0.2-1-0.2
			c-0.6,0-1.1,0.2-1.4,0.6s-0.5,1-0.5,1.7v1.9c0,0.7,0.2,1.3,0.5,1.7s0.8,0.6,1.4,0.6c0.4,0,0.7-0.1,1-0.2s0.5-0.4,0.6-0.6
			s0.2-0.6,0.2-1l0.2,2.8c-0.3,0.7-0.6,1.2-1.1,1.5s-1.1,0.5-1.8,0.5C156.7,395.7,156,395.5,155.4,395.1z M156.7,400.5
			c0,0-0.4-0.2-1.1-0.5s-1.4-0.8-1.8-1.4l2.2-2c0.3,0.3,0.6,0.5,1,0.7s0.8,0.2,1.2,0.2c0.7,0,1.2-0.2,1.6-0.6s0.6-0.9,0.6-1.5v-12
			h3.2v11.8c0,1.1-0.2,2.1-0.6,2.9s-1,1.4-1.9,1.8s-1.8,0.6-3,0.6C157.2,400.5,156.7,400.5,156.7,400.5z"/>
		<path class="st5" d="M166.8,383.3h3.4v12.2h-3.4V383.3z M173,386.4c-0.2-0.1-0.5-0.1-0.8-0.1c-0.6,0-1.2,0.2-1.5,0.6
			s-0.5,1-0.5,1.7l-0.2-3.2c0.3-0.7,0.8-1.3,1.3-1.7s1.1-0.6,1.8-0.6c0.5,0,1,0.1,1.4,0.2s0.8,0.4,1.1,0.7l-1.9,2.6
			C173.5,386.6,173.3,386.5,173,386.4z"/>
		<path class="st5" d="M180.5,395.7c0,0-0.4-0.2-1.2-0.6s-1.5-1-1.9-1.9s-0.7-1.8-0.7-2.9v-1.4c0-1.2,0.2-2.2,0.6-3.1s1-1.5,1.8-1.9
			s1.8-0.7,2.9-0.7c1.1,0,2,0.3,2.7,0.8s1.3,1.3,1.7,2.3s0.6,2.2,0.6,3.7v0.8h-8.3v-2.2h5.4v-0.3c-0.1-0.7-0.3-1.2-0.7-1.6
			s-0.8-0.6-1.4-0.6c-0.8,0-1.4,0.2-1.8,0.7s-0.6,1.1-0.6,2v1.5c0,0.8,0.2,1.5,0.7,1.9s1.1,0.7,2,0.7c0.4,0,0.9-0.1,1.3-0.2
			s0.8-0.4,1.1-0.7l2.1,1.9c-0.6,0.6-1.3,1-2.1,1.3s-1.6,0.5-2.4,0.5C181.1,395.7,180.5,395.7,180.5,395.7z"/>
		<path class="st5" d="M194.3,395.7c0,0-0.4-0.1-1.2-0.2s-1.5-0.4-2.2-0.7s-1.3-0.7-1.8-1.1l1.5-2.6c0.7,0.5,1.4,1,2.3,1.2
			s1.7,0.4,2.6,0.4c1,0,1.9-0.2,2.4-0.5s0.9-0.9,0.9-1.5l0,0c0-0.5-0.1-0.8-0.4-1.1s-0.6-0.5-1-0.6s-0.9-0.2-1.6-0.3c0,0,0,0-0.1,0
			s0,0-0.1,0h-0.3c-1.1-0.2-2.1-0.4-2.8-0.7s-1.4-0.7-1.9-1.4s-0.8-1.6-0.8-2.9l0,0c0-1.1,0.2-2,0.7-2.8s1.2-1.4,2.1-1.8
			s2.1-0.6,3.4-0.6c0.6,0,1.2,0.1,1.9,0.2s1.3,0.3,1.9,0.6s1.2,0.6,1.7,1l-1.4,2.7c-0.7-0.5-1.3-0.8-2.1-1.1s-1.4-0.4-2.1-0.4
			c-1,0-1.7,0.2-2.3,0.5s-0.8,0.8-0.8,1.4l0,0c0,0.5,0.1,0.9,0.4,1.2s0.6,0.5,1,0.6s1,0.3,1.7,0.4h0.1h0.1h0.1h0.1
			c1.1,0.2,2,0.5,2.7,0.8s1.3,0.8,1.8,1.5s0.7,1.6,0.7,2.7l0,0c0,1.1-0.3,2-0.8,2.8s-1.2,1.4-2.2,1.8s-2.1,0.6-3.5,0.6
			C194.7,395.7,194.3,395.7,194.3,395.7z"/>
		<path class="st5" d="M207.5,394.9c-0.9-0.5-1.7-1.3-2.2-2.2s-0.8-2-0.8-3.3v-4.8c0-1.3,0.3-2.3,0.8-3.3s1.2-1.7,2.2-2.2
			s2-0.8,3.3-0.8s2.3,0.3,3.3,0.8s1.7,1.3,2.2,2.2s0.8,2,0.8,3.3v4.8c0,1.3-0.3,2.3-0.8,3.3s-1.2,1.7-2.2,2.2s-2,0.8-3.3,0.8
			S208.4,395.4,207.5,394.9z M212.3,392.1c0.4-0.2,0.8-0.6,1-1s0.4-1,0.4-1.6v-5c0-0.6-0.1-1.1-0.4-1.6s-0.6-0.8-1-1
			s-0.9-0.4-1.5-0.4s-1.1,0.1-1.5,0.4s-0.8,0.6-1,1s-0.4,1-0.4,1.6v5c0,0.6,0.1,1.1,0.4,1.6s0.6,0.8,1,1s0.9,0.4,1.5,0.4
			S211.9,392.3,212.3,392.1z M210.3,390.8l1.7-2.2l6.6,5l-1.7,2.2L210.3,390.8z"/>
		<path class="st5" d="M220.7,378.5h3.2v17h-3.2V378.5z M222.1,392.4h10v3.1h-10V392.4z"/>
	</g>
</g>
<g>
	<g>
		<path class="st5" d="M59.9,452.8h4.2v17h-2.9v-13.2l0.1,0.8L58,468h-2.8L52,457.6l0.1-1v13.2h-2.9v-17h4.2l3.2,11.5L59.9,452.8z"
			/>
		<path class="st5" d="M66.4,457.7h3l4.1,10.6l-2,2.6L66.4,457.7z M77.6,457.7l-5.4,15c-0.2,0.6-0.5,1-0.8,1.3s-0.7,0.6-1.1,0.7
			s-1,0.2-1.6,0.2H68v-3.1h0.7c0.3,0,0.6-0.1,0.9-0.2s0.4-0.4,0.5-0.7l4.5-13.1L77.6,457.7L77.6,457.7z"/>
		<path class="st5" d="M83.6,470c0,0-0.4-0.1-1.2-0.2s-1.5-0.4-2.2-0.7s-1.3-0.7-1.8-1.1l1.5-2.6c0.7,0.5,1.4,1,2.3,1.2
			s1.7,0.4,2.6,0.4c1,0,1.9-0.2,2.4-0.5s0.9-0.9,0.9-1.5l0,0c0-0.5-0.1-0.8-0.4-1.1s-0.6-0.5-1-0.6s-0.9-0.2-1.6-0.3c0,0,0,0-0.1,0
			s0,0-0.1,0h-0.3c-1.1-0.2-2.1-0.4-2.8-0.7s-1.4-0.7-1.9-1.4s-0.8-1.6-0.8-2.9l0,0c0-1.1,0.2-2,0.7-2.8s1.2-1.4,2.1-1.8
			s2.1-0.6,3.4-0.6c0.6,0,1.2,0.1,1.9,0.2s1.3,0.3,1.9,0.6s1.2,0.6,1.7,1l-1.4,2.7c-0.7-0.5-1.3-0.8-2.1-1.1s-1.4-0.4-2.1-0.4
			c-1,0-1.7,0.2-2.3,0.5s-0.8,0.8-0.8,1.4l0,0c0,0.5,0.1,0.9,0.4,1.2s0.6,0.5,1,0.6s1,0.3,1.7,0.4h0.1h0.1h0.1h0.1
			c1.1,0.2,2,0.5,2.7,0.8s1.3,0.8,1.8,1.5s0.7,1.6,0.7,2.7l0,0c0,1.1-0.3,2-0.8,2.8s-1.2,1.4-2.2,1.8s-2.1,0.6-3.5,0.6
			C84,470,83.6,470,83.6,470z"/>
		<path class="st5" d="M96.9,469.2c-0.9-0.5-1.7-1.3-2.2-2.2s-0.8-2-0.8-3.3v-4.8c0-1.3,0.3-2.3,0.8-3.3s1.2-1.7,2.2-2.2
			s2-0.8,3.3-0.8s2.3,0.3,3.3,0.8s1.7,1.3,2.2,2.2s0.8,2,0.8,3.3v4.8c0,1.3-0.3,2.3-0.8,3.3s-1.2,1.7-2.2,2.2s-2,0.8-3.3,0.8
			S97.8,469.7,96.9,469.2z M101.7,466.4c0.4-0.2,0.8-0.6,1-1s0.4-1,0.4-1.6v-5c0-0.6-0.1-1.1-0.4-1.6s-0.6-0.8-1-1s-0.9-0.4-1.5-0.4
			s-1.1,0.1-1.5,0.4s-0.8,0.6-1,1s-0.4,1-0.4,1.6v5c0,0.6,0.1,1.1,0.4,1.6s0.6,0.8,1,1s0.9,0.4,1.5,0.4S101.2,466.7,101.7,466.4z
			 M99.7,465.1l1.7-2.2l6.6,5l-1.7,2.2L99.7,465.1z"/>
		<path class="st5" d="M110.1,452.8h3.2v17h-3.2V452.8z M111.5,466.7h10v3.1h-10V466.7z"/>
	</g>
</g>
</svg>
