<?xml version="1.0" encoding="UTF-8"?>
<!-- Generated by Pixelmator Pro 3.7 -->
<svg width="3965" height="4367" viewBox="0 0 3965 4367" xmlns="http://www.w3.org/2000/svg">
    <linearGradient id="linearGradient1" x1="0.525413" y1="-15.479493" x2="3964.232804" y2="-15.479493" gradientUnits="userSpaceOnUse">
        <stop offset="0" stop-color="#4dd4c4" stop-opacity="1"/>
        <stop offset="0.4" stop-color="#14b8a6" stop-opacity="1"/>
        <stop offset="1" stop-color="#0d8a7a" stop-opacity="1"/>
    </linearGradient>
    <path id="Path-copy" fill="url(#linearGradient1)" stroke="none" d="M 3018.871094 1661.896484 C 3018.392578 1758.519531 2960.248047 1896.478516 2870.621094 1956.355469 C 2833.375 1980.875 2787.957031 1996.980469 2738.664063 1996.980469 L 2484.580078 1996.980469 L 1182.175781 1996.980469 C 644.089844 1996.980469 169.722656 2433.185547 122.644531 2971.271484 L 0.525391 4367.105469 L 873.234375 4367.105469 L 983.697266 3104.521484 C 995.042969 2974.828125 1109.380859 2869.689453 1239.076172 2869.689453 L 1777.839844 2869.689453 C 1878.246094 2869.689453 1970.167969 2925.974609 2015.855469 3015.386719 C 2051.28125 3084.710938 2081.427734 3143.048828 2089.5 3156.685547 C 2197.333984 3353.310547 2266.875 3482.9375 2366.167969 3666.685547 C 2370.667969 3677.353516 2427.542969 3776.935547 2432.792969 3788.771484 C 2536.626953 3961.728516 2652.917969 4307.394531 2897.376953 4356.228516 C 2930.710938 4365.4375 2931.542969 4365.4375 3354.875 4366.685547 C 3587.792969 4367.519531 3778.626953 4367.103516 3778.626953 4365.4375 C 3778.626953 4361.6875 3701.126953 4211.6875 3673.208984 4161.6875 C 3496.710938 3828.931641 3176.943359 3209.736328 2978.404297 2828.169922 C 3108.414063 2797.625 3212.902344 2760.091797 3362.740234 2677.205078 C 4408.738281 2025.693359 3952.128906 940.617188 3046.626953 411.460938 C 2801.050781 267.953125 2494.863281 116.578125 2325.355469 70.277344 C 2198.890625 35.734375 2088.113281 26.394531 1850.308594 8.730469 C 1636.589844 -7.144531 104.205078 8.730469 104.205078 8.730469 C 104.205078 490.730469 494.955078 881.480469 976.955078 881.480469 L 1721 881 C 1929.470703 881.468262 2091.15625 910.699219 2216.21875 967.671875 C 2254.855469 985.273438 2300.322266 1006.955078 2354.082031 1033.898438 C 2445.539063 1079.730469 2725.744141 1239.992188 2870.621094 1375.8125 C 2909.435547 1412.201172 2944.179688 1438.210938 2958.205078 1456.314453 C 2980.302734 1484.832031 3019.353516 1565.273438 3018.871094 1661.896484 Z"/>
</svg>
