<?xml version="1.0" standalone="no"?>
<!DOCTYPE svg PUBLIC "-//W3C//DTD SVG 20010904//EN"
 "http://www.w3.org/TR/2001/REC-SVG-20010904/DTD/svg10.dtd">
<svg version="1.0" xmlns="http://www.w3.org/2000/svg"
 width="1088.000000pt" height="1088.000000pt" viewBox="480 480 1088.000000 1088.000000"
 preserveAspectRatio="xMidYMid meet">
<defs>
  <linearGradient id="teal-gradient" x1="100%" y1="0%" x2="0%" y2="100%" gradientUnits="objectBoundingBox">
    <stop offset="0%" stop-color="#4DD4C4"/>
    <stop offset="40%" stop-color="#14B8A6"/>
    <stop offset="100%" stop-color="#0D8A7A"/>
  </linearGradient>
</defs>
<g transform="translate(0.000000,2048.000000) scale(0.100000,-0.100000)"
fill="url(#teal-gradient)" stroke="none">
<path d="M5700 15334 c0 -201 91 -538 206 -764 79 -154 91 -174 188 -310 150
-212 412 -455 639 -592 294 -178 590 -280 955 -329 152 -21 196 -22 1342 -23
1241 -2 1235 -2 1485 -47 139 -26 413 -92 508 -123 312 -103 672 -288 887
-455 64 -50 224 -196 284 -259 128 -135 277 -375 320 -517 75 -250 57 -580
-42 -755 -78 -137 -202 -246 -353 -311 -146 -63 -436 -134 -674 -163 -265 -34
-386 -36 -1869 -36 -1561 0 -1647 -2 -1891 -45 -220 -38 -471 -118 -660 -210
-310 -150 -551 -335 -772 -592 -169 -197 -336 -502 -422 -773 -90 -286 -119
-456 -129 -770 -4 -107 -6 -896 -4 -1753 l2 -1557 1035 0 1035 0 0 1486 c0
1001 3 1509 11 1557 29 196 105 344 220 431 75 57 112 76 200 105 66 22 69 22
845 19 l779 -3 66 -26 c142 -55 232 -124 318 -244 34 -48 67 -98 72 -111 4
-13 79 -151 165 -307 87 -155 171 -309 187 -342 16 -33 61 -115 98 -183 38
-67 69 -124 69 -126 0 -1 30 -56 66 -122 36 -65 80 -146 97 -179 17 -33 57
-106 89 -163 32 -57 58 -106 58 -109 0 -4 31 -61 69 -127 38 -67 79 -141 91
-166 45 -91 413 -762 489 -893 124 -212 372 -398 626 -469 80 -22 82 -22 1098
-25 559 -2 1017 -1 1017 3 0 9 -186 369 -253 489 -27 49 -72 133 -99 185 -88
168 -448 850 -528 1000 -43 80 -111 210 -153 290 -41 80 -99 190 -128 245 -92
174 -166 315 -250 480 -45 88 -85 165 -89 170 -4 6 -70 129 -145 275 -76 146
-150 288 -165 315 -15 28 -43 79 -62 115 -19 36 -40 74 -46 85 -6 11 -24 48
-41 82 l-29 61 48 16 c27 9 53 16 59 16 15 0 228 84 333 131 228 103 553 318
753 499 174 157 384 383 473 508 155 221 244 365 328 537 86 176 110 238 178
465 32 106 73 302 86 417 22 196 7 580 -31 773 -71 362 -197 701 -378 1013
-160 277 -339 505 -611 777 -266 267 -455 421 -775 634 -305 202 -537 326
-880 469 -192 80 -461 173 -615 212 -36 8 -74 20 -85 25 -11 5 -76 21 -145 35
-69 14 -154 32 -190 40 -86 19 -510 72 -679 85 -87 6 -941 10 -2408 10 l-2273
0 0 -76z"/>
</g>
</svg>
