<?xml version="1.0" encoding="UTF-8"?>
<svg id="Layer_2" data-name="Layer 2" xmlns="http://www.w3.org/2000/svg" xmlns:xlink="http://www.w3.org/1999/xlink" viewBox="0 0 94.95 96.36">
  <defs>
    <style>
      .cls-1 {
        fill: url(#linear-gradient-2);
      }

      .cls-2 {
        fill: url(#linear-gradient-3);
      }

      .cls-3 {
        fill: url(#linear-gradient);
      }
    </style>
    <linearGradient id="linear-gradient" x1="7" y1="71.76" x2="89.14" y2="23.87" gradientUnits="userSpaceOnUse">
      <stop offset=".07" stop-color="#7daa4d"/>
      <stop offset=".31" stop-color="#c0ff84"/>
      <stop offset=".42" stop-color="#94e19b"/>
      <stop offset=".58" stop-color="#5cbbba"/>
      <stop offset=".65" stop-color="#47adc6"/>
      <stop offset=".85" stop-color="#1c82c1"/>
      <stop offset=".98" stop-color="#056bbf"/>
    </linearGradient>
    <linearGradient id="linear-gradient-2" x1="0" y1="78.53" x2="94.79" y2="78.53" gradientUnits="userSpaceOnUse">
      <stop offset="0" stop-color="#c0ff84"/>
      <stop offset=".12" stop-color="#94e19b"/>
      <stop offset=".28" stop-color="#5cbbba"/>
      <stop offset=".36" stop-color="#47adc6"/>
      <stop offset=".52" stop-color="#2c92c3"/>
      <stop offset=".69" stop-color="#167cc0"/>
      <stop offset=".85" stop-color="#096fbf"/>
      <stop offset="1" stop-color="#056bbf"/>
    </linearGradient>
    <linearGradient id="linear-gradient-3" x1="28.25" y1="39.56" x2="82.92" y2="-25.6" gradientUnits="userSpaceOnUse">
      <stop offset="0" stop-color="#c0ff84"/>
      <stop offset=".12" stop-color="#94e19b"/>
      <stop offset=".28" stop-color="#5cbbba"/>
      <stop offset=".36" stop-color="#47adc6"/>
      <stop offset=".5" stop-color="#2c92c3"/>
      <stop offset=".65" stop-color="#167cc0"/>
      <stop offset=".79" stop-color="#096fbf"/>
      <stop offset=".92" stop-color="#056bbf"/>
    </linearGradient>
  </defs>
  <g id="Layer_1-2" data-name="Layer 1">
    <g>
      <path class="cls-3" d="M93.59,32.42c0,1-.16,1.97-.47,2.86,0,0,0,0,0,0-.17.43-.35.85-.54,1.27-1.47,3.2-3.57,6.05-6.15,8.38-.55.47-1.11.93-1.67,1.39-9.99,8.15-21.34,14.7-33.65,19.25-12.71,4.7-26.44,7.26-40.78,7.28h-.03c-4.94,0-8.94-4-8.94-8.94,0-1.13.21-2.21.59-3.21.09-.23.19-.45.29-.67,0,0,0,0,0,0,1.58-3.53,3.93-6.64,6.84-9.12.1-.09.2-.17.3-.25,10.17-8.45,21.78-15.21,34.42-19.88,12.46-4.6,25.9-7.15,39.93-7.25h0c.29,0,.58,0,.87,0,.32,0,.64,0,.96,0,4.51.46,8.02,4.27,8.02,8.89Z"/>
      <path class="cls-1" d="M94.79,96.36H25.8c-13.48,0-24.54-10.33-25.7-23.51-.01-.14-.02-.29-.03-.43-.04-.61-.07-1.23-.07-1.85,0-3.49.69-6.82,1.95-9.86-.38,1-.59,2.08-.59,3.21,0,4.94,4,8.94,8.94,8.94h59.46c13.18.33,23.9,10.55,25.03,23.51Z"/>
      <path class="cls-2" d="M93.15,35.28c.3-.9.47-1.86.47-2.86,0-4.63-3.52-8.44-8.02-8.9-.01,0-.03,0-.05,0H25.83C12.36,23.51,1.29,13.18.13,0h51.4s17.61,0,17.61,0c13.48,0,24.54,10.34,25.7,23.51.01.15.02.29.03.44.04.61.07,1.22.07,1.85,0,3.35-.64,6.54-1.8,9.48Z"/>
    </g>
  </g>
</svg>