<svg id="ebrADMhwt0l1" xmlns="http://www.w3.org/2000/svg" xmlns:xlink="http://www.w3.org/1999/xlink" viewBox="0 0 380 100" shape-rendering="geometricPrecision" text-rendering="geometricPrecision">        
<defs>
          <linearGradient id="grad" x1="0%" y1="0%" x2="100%" y2="0%">
            <stop offset="0%" style="stop-color: #00A6ED" />
            <stop offset="100%" style="stop-color: #0077B2" />
          </linearGradient>
        </defs>
        <path fill="url(#grad)" d="M241.944,295.281c-19.394,15.502-38.186,30.434-57.035,45.297-1.395,1.1-3.154,2.291-4.806,2.389-3.01.18-6.066-.429-9.103-.708c1.236-2.613,1.795-6.057,3.816-7.707c14.512-11.849,29.342-23.306,44.028-34.943c15.294-12.119,30.405-24.472,45.834-36.414c28.047-21.71,56.174-43.319,84.449-64.729c22.832-17.288,45.897-34.267,68.946-51.264c3.806-2.807,7.816-5.907,12.212-7.112c2.38-.652,5.777,2.413,8.715,3.802-1.072,2.21-1.555,5.242-3.308,6.504-19.198,13.821-38.85,27.02-57.877,41.068-27.882,20.585-55.417,41.642-82.981,62.656-17.547,13.377-34.877,27.039-52.89,41.161Z" transform="matrix(.807747 0.58953-.58953 0.807747 106.672501-335.679022)" stroke="#fff" stroke-width="5"/><path fill="url(#grad)" d="M96,385.898602c2.978085-6.743678,5.499134-13.760298,9.838738-19.35787c13.157522-16.969778,27.012424-33.396226,40.621229-50.013798.946033-1.155055,1.942563-2.434755,3.205005-3.117433c1.366633-.739567,3.072688-.846316,4.630446-1.228564.114419,1.709251.999087,3.991234.224363,5.04018-8.101362,10.966306-16.343351,21.834814-24.800114,32.528816-7.046664,8.909964-14.276781,17.685694-21.738932,26.246649-3.205644,3.678021-1.656835,5.071501,1.941284,5.722857c9.086386,1.645969,18.169577,3.791801,27.340339,4.372843c12.332301.781755,24.838467,2.163091,37.044843-1.365994c3.311114-.956899,6.381245-2.815725,9.716009-3.59748c2.04164-.47813,4.376679.306821,6.58004.524153-1.01315,1.593553-1.667702,4.008493-3.101452,4.638116-6.331386,2.778651-12.797007,6.833806-19.378325,7.168114-22.294406,1.133321-44.669354,1.015067-66.382078-5.676834-1.775089-.547165-3.577409-1.007397-5.741395-1.883755Z" transform="matrix(.807747 0.58953-.58953 0.807747 151.018918-333.176839)" stroke="#fff" stroke-width="0"/>          
</svg>